G04*
G04 #@! TF.GenerationSoftware,Altium Limited,Altium Designer,25.2.1 (25)*
G04*
G04 Layer_Physical_Order=2*
G04 Layer_Color=36540*
%FSLAX44Y44*%
%MOMM*%
G71*
G04*
G04 #@! TF.SameCoordinates,A23D3B39-E9B1-4969-97C3-F5C5B3B73B29*
G04*
G04*
G04 #@! TF.FilePolarity,Positive*
G04*
G01*
G75*
%ADD140C,1.6000*%
%ADD142C,2.3000*%
%ADD144C,1.7000*%
%ADD150C,1.4500*%
%ADD169C,1.5000*%
%ADD170C,2.2000*%
%ADD171O,1.4000X2.2000*%
G04:AMPARAMS|DCode=172|XSize=1.6mm|YSize=1.6mm|CornerRadius=0.4mm|HoleSize=0mm|Usage=FLASHONLY|Rotation=90.000|XOffset=0mm|YOffset=0mm|HoleType=Round|Shape=RoundedRectangle|*
%AMROUNDEDRECTD172*
21,1,1.6000,0.8000,0,0,90.0*
21,1,0.8000,1.6000,0,0,90.0*
1,1,0.8000,0.4000,0.4000*
1,1,0.8000,0.4000,-0.4000*
1,1,0.8000,-0.4000,-0.4000*
1,1,0.8000,-0.4000,0.4000*
%
%ADD172ROUNDEDRECTD172*%
%ADD173C,6.0000*%
%ADD174C,1.3500*%
G04:AMPARAMS|DCode=175|XSize=1.6mm|YSize=1.6mm|CornerRadius=0.4mm|HoleSize=0mm|Usage=FLASHONLY|Rotation=180.000|XOffset=0mm|YOffset=0mm|HoleType=Round|Shape=RoundedRectangle|*
%AMROUNDEDRECTD175*
21,1,1.6000,0.8000,0,0,180.0*
21,1,0.8000,1.6000,0,0,180.0*
1,1,0.8000,-0.4000,0.4000*
1,1,0.8000,0.4000,0.4000*
1,1,0.8000,0.4000,-0.4000*
1,1,0.8000,-0.4000,-0.4000*
%
%ADD175ROUNDEDRECTD175*%
%ADD176C,3.6000*%
%ADD177O,1.0000X2.2000*%
%ADD178O,1.0000X1.6000*%
%ADD179C,0.6000*%
%ADD180C,0.4000*%
%ADD181C,0.5000*%
%ADD182C,0.7000*%
G36*
X294000Y234000D02*
Y129000D01*
X313000Y110000D01*
X694000D01*
X704000Y120000D01*
X805360D01*
X805743Y119076D01*
X804709Y118042D01*
X803067Y115585D01*
X801936Y112855D01*
X801414Y110230D01*
X831306D01*
X830784Y112855D01*
X829653Y115585D01*
X828011Y118042D01*
X826977Y119076D01*
X827360Y120000D01*
X962840D01*
X963223Y119076D01*
X962189Y118042D01*
X960547Y115585D01*
X959417Y112855D01*
X958894Y110230D01*
X973840D01*
X988786D01*
X988264Y112855D01*
X987133Y115585D01*
X985491Y118042D01*
X984457Y119076D01*
X984840Y120000D01*
X998000D01*
X1043000Y75000D01*
X1209000D01*
X1243000Y41000D01*
X1347000D01*
Y3414D01*
X1346000Y3000D01*
X106000D01*
Y222000D01*
X126493Y242493D01*
X128189Y240798D01*
X130811Y239284D01*
X133500Y238563D01*
Y250000D01*
X135250D01*
Y251750D01*
X146687D01*
X146084Y254000D01*
X146700Y255000D01*
X180600D01*
X181216Y254000D01*
X180613Y251750D01*
X203487D01*
X202884Y254000D01*
X203500Y255000D01*
X234600D01*
X235216Y254000D01*
X234613Y251750D01*
X257487D01*
X256884Y254000D01*
X257500Y255000D01*
X273000D01*
X294000Y234000D01*
D02*
G37*
G36*
X1497955Y2260D02*
X1364750D01*
Y95035D01*
X1214750D01*
Y135036D01*
X1178000D01*
Y121000D01*
X1159000Y102000D01*
X1071000D01*
X1047000Y126000D01*
Y135036D01*
X962797D01*
X962297Y135902D01*
X962966Y137061D01*
X963687Y139750D01*
X940813D01*
X941534Y137061D01*
X942203Y135902D01*
X941703Y135036D01*
X934667D01*
X934318Y136036D01*
X935423Y137949D01*
X936050Y140289D01*
Y142711D01*
X935423Y145051D01*
X934212Y147149D01*
X932499Y148862D01*
X930401Y150073D01*
X928061Y150700D01*
X925639D01*
X923299Y150073D01*
X921201Y148862D01*
X919488Y147149D01*
X918277Y145051D01*
X917650Y142711D01*
Y140289D01*
X918277Y137949D01*
X919382Y136036D01*
X919033Y135036D01*
X909267D01*
X908918Y136036D01*
X910023Y137949D01*
X910650Y140289D01*
Y142711D01*
X910023Y145051D01*
X908812Y147149D01*
X907099Y148862D01*
X905001Y150073D01*
X902661Y150700D01*
X900239D01*
X897899Y150073D01*
X895801Y148862D01*
X894088Y147149D01*
X892877Y145051D01*
X892250Y142711D01*
Y140289D01*
X892877Y137949D01*
X893982Y136036D01*
X893633Y135036D01*
X883867D01*
X883518Y136036D01*
X884623Y137949D01*
X885250Y140289D01*
Y142711D01*
X884623Y145051D01*
X883412Y147149D01*
X881699Y148862D01*
X879601Y150073D01*
X877261Y150700D01*
X874839D01*
X872499Y150073D01*
X870401Y148862D01*
X868688Y147149D01*
X867477Y145051D01*
X866850Y142711D01*
Y140289D01*
X867477Y137949D01*
X868582Y136036D01*
X868233Y135036D01*
X858467D01*
X858118Y136036D01*
X859223Y137949D01*
X859850Y140289D01*
Y142711D01*
X859223Y145051D01*
X858012Y147149D01*
X856299Y148862D01*
X854201Y150073D01*
X851861Y150700D01*
X849439D01*
X847099Y150073D01*
X845001Y148862D01*
X843288Y147149D01*
X842077Y145051D01*
X841450Y142711D01*
Y140289D01*
X842077Y137949D01*
X843182Y136036D01*
X842833Y135036D01*
X341000D01*
X309250Y166786D01*
Y317536D01*
X283650D01*
X283236Y318536D01*
X284512Y319812D01*
X285624Y321738D01*
X286200Y323887D01*
Y326113D01*
X285624Y328262D01*
X284512Y330188D01*
X282938Y331762D01*
X281012Y332874D01*
X278862Y333450D01*
X276638D01*
X274489Y332874D01*
X272562Y331762D01*
X270988Y330188D01*
X269876Y328262D01*
X269300Y326113D01*
Y323887D01*
X269876Y321738D01*
X270988Y319812D01*
X272264Y318536D01*
X271850Y317536D01*
X141150D01*
X140736Y318536D01*
X142012Y319812D01*
X143124Y321738D01*
X143700Y323887D01*
Y326113D01*
X143124Y328262D01*
X142012Y330188D01*
X140438Y331762D01*
X138512Y332874D01*
X136362Y333450D01*
X134138D01*
X131988Y332874D01*
X130062Y331762D01*
X128488Y330188D01*
X127376Y328262D01*
X126800Y326113D01*
Y323887D01*
X127376Y321738D01*
X128488Y319812D01*
X129764Y318536D01*
X129350Y317536D01*
X2295D01*
X2295Y1047670D01*
X1497955D01*
X1497955Y2260D01*
D02*
G37*
%LPC*%
G36*
X257487Y248250D02*
X247800D01*
Y238563D01*
X250489Y239284D01*
X253111Y240798D01*
X255252Y242939D01*
X256766Y245561D01*
X257487Y248250D01*
D02*
G37*
G36*
X244300D02*
X234613D01*
X235334Y245561D01*
X236848Y242939D01*
X238989Y240798D01*
X241611Y239284D01*
X244300Y238563D01*
Y248250D01*
D02*
G37*
G36*
X203487D02*
X193800D01*
Y238563D01*
X196489Y239284D01*
X199111Y240798D01*
X201252Y242939D01*
X202766Y245561D01*
X203487Y248250D01*
D02*
G37*
G36*
X190300D02*
X180613D01*
X181334Y245561D01*
X182848Y242939D01*
X184989Y240798D01*
X187611Y239284D01*
X190300Y238563D01*
Y248250D01*
D02*
G37*
G36*
X146687D02*
X137000D01*
Y238563D01*
X139689Y239284D01*
X142311Y240798D01*
X144452Y242939D01*
X145966Y245561D01*
X146687Y248250D01*
D02*
G37*
G36*
X279500Y211437D02*
Y201750D01*
X289187D01*
X288466Y204439D01*
X286952Y207061D01*
X284811Y209202D01*
X282189Y210716D01*
X279500Y211437D01*
D02*
G37*
G36*
X276000D02*
X273311Y210716D01*
X270689Y209202D01*
X268548Y207061D01*
X267034Y204439D01*
X266313Y201750D01*
X276000D01*
Y211437D01*
D02*
G37*
G36*
X289187Y198250D02*
X279500D01*
Y188563D01*
X282189Y189284D01*
X284811Y190798D01*
X286952Y192939D01*
X288466Y195561D01*
X289187Y198250D01*
D02*
G37*
G36*
X276000D02*
X266313D01*
X267034Y195561D01*
X268548Y192939D01*
X270689Y190798D01*
X273311Y189284D01*
X276000Y188563D01*
Y198250D01*
D02*
G37*
G36*
X137000Y161437D02*
Y151750D01*
X146687D01*
X145966Y154439D01*
X144452Y157061D01*
X142311Y159202D01*
X139689Y160716D01*
X137000Y161437D01*
D02*
G37*
G36*
X133500D02*
X130811Y160716D01*
X128189Y159202D01*
X126048Y157061D01*
X124534Y154439D01*
X123813Y151750D01*
X133500D01*
Y161437D01*
D02*
G37*
G36*
X146687Y148250D02*
X137000D01*
Y138563D01*
X139689Y139284D01*
X142311Y140798D01*
X144452Y142939D01*
X145966Y145561D01*
X146687Y148250D01*
D02*
G37*
G36*
X133500D02*
X123813D01*
X124534Y145561D01*
X126048Y142939D01*
X128189Y140798D01*
X130811Y139284D01*
X133500Y138563D01*
Y148250D01*
D02*
G37*
G36*
X279500Y111437D02*
Y101750D01*
X289187D01*
X288466Y104439D01*
X286952Y107061D01*
X284811Y109202D01*
X282189Y110716D01*
X279500Y111437D01*
D02*
G37*
G36*
X276000D02*
X273311Y110716D01*
X270689Y109202D01*
X268548Y107061D01*
X267034Y104439D01*
X266313Y101750D01*
X276000D01*
Y111437D01*
D02*
G37*
G36*
X972090Y106730D02*
X958894D01*
X959417Y104105D01*
X960547Y101375D01*
X962189Y98918D01*
X963691Y97416D01*
X963053Y96639D01*
X962434Y97053D01*
X958521Y98674D01*
X954368Y99500D01*
X954000D01*
Y79750D01*
X973750D01*
Y80118D01*
X972924Y84271D01*
X971303Y88184D01*
X968950Y91705D01*
X966421Y94235D01*
X966987Y95083D01*
X969465Y94057D01*
X972090Y93534D01*
Y106730D01*
D02*
G37*
G36*
X988786D02*
X975590D01*
Y93534D01*
X978215Y94057D01*
X980945Y95187D01*
X983402Y96829D01*
X985491Y98918D01*
X987133Y101375D01*
X988264Y104105D01*
X988786Y106730D01*
D02*
G37*
G36*
X814610D02*
X801414D01*
X801936Y104105D01*
X803067Y101375D01*
X804709Y98918D01*
X806798Y96829D01*
X809255Y95187D01*
X811985Y94057D01*
X814610Y93534D01*
Y106730D01*
D02*
G37*
G36*
X289187Y98250D02*
X279500D01*
Y88563D01*
X282189Y89284D01*
X284811Y90798D01*
X286952Y92939D01*
X288466Y95561D01*
X289187Y98250D01*
D02*
G37*
G36*
X276000D02*
X266313D01*
X267034Y95561D01*
X268548Y92939D01*
X270689Y90798D01*
X273311Y89284D01*
X276000Y88563D01*
Y98250D01*
D02*
G37*
G36*
X950500Y99500D02*
X950132D01*
X945979Y98674D01*
X942066Y97053D01*
X938545Y94700D01*
X935550Y91705D01*
X933197Y88184D01*
X931576Y84271D01*
X930750Y80118D01*
Y79750D01*
X950500D01*
Y99500D01*
D02*
G37*
G36*
X840068D02*
X839700D01*
Y79750D01*
X859450D01*
Y80118D01*
X858624Y84271D01*
X857003Y88184D01*
X854650Y91705D01*
X851655Y94700D01*
X848134Y97053D01*
X844221Y98674D01*
X840068Y99500D01*
D02*
G37*
G36*
X831306Y106730D02*
X818110D01*
Y93534D01*
X820735Y94057D01*
X823213Y95083D01*
X823779Y94235D01*
X821250Y91705D01*
X818897Y88184D01*
X817276Y84271D01*
X816450Y80118D01*
Y79750D01*
X836200D01*
Y99500D01*
X835832D01*
X831679Y98674D01*
X827766Y97053D01*
X827147Y96639D01*
X826509Y97416D01*
X828011Y98918D01*
X829653Y101375D01*
X830784Y104105D01*
X831306Y106730D01*
D02*
G37*
G36*
X973750Y76250D02*
X954000D01*
Y56500D01*
X954368D01*
X958521Y57326D01*
X962434Y58947D01*
X965955Y61300D01*
X968950Y64295D01*
X971303Y67816D01*
X972924Y71729D01*
X973750Y75882D01*
Y76250D01*
D02*
G37*
G36*
X950500D02*
X930750D01*
Y75882D01*
X931576Y71729D01*
X933197Y67816D01*
X935550Y64295D01*
X938545Y61300D01*
X942066Y58947D01*
X945979Y57326D01*
X950132Y56500D01*
X950500D01*
Y76250D01*
D02*
G37*
G36*
X859450D02*
X839700D01*
Y56500D01*
X840068D01*
X844221Y57326D01*
X848134Y58947D01*
X851655Y61300D01*
X854650Y64295D01*
X857003Y67816D01*
X858624Y71729D01*
X859450Y75882D01*
Y76250D01*
D02*
G37*
G36*
X836200D02*
X816450D01*
Y75882D01*
X817276Y71729D01*
X818897Y67816D01*
X821250Y64295D01*
X824245Y61300D01*
X827766Y58947D01*
X831679Y57326D01*
X835832Y56500D01*
X836200D01*
Y76250D01*
D02*
G37*
G36*
X222800Y61437D02*
Y51750D01*
X232487D01*
X231766Y54439D01*
X230252Y57061D01*
X228111Y59202D01*
X225489Y60716D01*
X222800Y61437D01*
D02*
G37*
G36*
X219300D02*
X216611Y60716D01*
X213989Y59202D01*
X211848Y57061D01*
X210334Y54439D01*
X209613Y51750D01*
X219300D01*
Y61437D01*
D02*
G37*
G36*
X137000D02*
Y51750D01*
X146687D01*
X145966Y54439D01*
X144452Y57061D01*
X142311Y59202D01*
X139689Y60716D01*
X137000Y61437D01*
D02*
G37*
G36*
X133500D02*
X130811Y60716D01*
X128189Y59202D01*
X126048Y57061D01*
X124534Y54439D01*
X123813Y51750D01*
X133500D01*
Y61437D01*
D02*
G37*
G36*
X232487Y48250D02*
X222800D01*
Y38563D01*
X225489Y39284D01*
X228111Y40798D01*
X230252Y42939D01*
X231766Y45561D01*
X232487Y48250D01*
D02*
G37*
G36*
X219300D02*
X209613D01*
X210334Y45561D01*
X211848Y42939D01*
X213989Y40798D01*
X216611Y39284D01*
X219300Y38563D01*
Y48250D01*
D02*
G37*
G36*
X146687D02*
X137000D01*
Y38563D01*
X139689Y39284D01*
X142311Y40798D01*
X144452Y42939D01*
X145966Y45561D01*
X146687Y48250D01*
D02*
G37*
G36*
X133500D02*
X123813D01*
X124534Y45561D01*
X126048Y42939D01*
X128189Y40798D01*
X130811Y39284D01*
X133500Y38563D01*
Y48250D01*
D02*
G37*
G36*
X1175119Y69250D02*
X1171681D01*
X1168310Y68580D01*
X1165134Y67264D01*
X1162276Y65354D01*
X1159846Y62924D01*
X1157936Y60066D01*
X1156621Y56890D01*
X1155950Y53519D01*
Y50081D01*
X1156621Y46710D01*
X1157936Y43534D01*
X1159846Y40676D01*
X1162276Y38246D01*
X1165134Y36336D01*
X1168310Y35021D01*
X1171681Y34350D01*
X1175119D01*
X1178490Y35021D01*
X1181666Y36336D01*
X1184524Y38246D01*
X1186954Y40676D01*
X1188864Y43534D01*
X1190180Y46710D01*
X1190850Y50081D01*
Y53519D01*
X1190180Y56890D01*
X1188864Y60066D01*
X1186954Y62924D01*
X1184524Y65354D01*
X1181666Y67264D01*
X1178490Y68580D01*
X1175119Y69250D01*
D02*
G37*
G36*
X1060819D02*
X1057381D01*
X1054010Y68580D01*
X1050834Y67264D01*
X1047976Y65354D01*
X1045546Y62924D01*
X1043636Y60066D01*
X1042320Y56890D01*
X1041650Y53519D01*
Y50081D01*
X1042320Y46710D01*
X1043636Y43534D01*
X1045546Y40676D01*
X1047976Y38246D01*
X1050834Y36336D01*
X1054010Y35021D01*
X1057381Y34350D01*
X1060819D01*
X1064190Y35021D01*
X1067366Y36336D01*
X1070224Y38246D01*
X1072654Y40676D01*
X1074564Y43534D01*
X1075879Y46710D01*
X1076550Y50081D01*
Y53519D01*
X1075879Y56890D01*
X1074564Y60066D01*
X1072654Y62924D01*
X1070224Y65354D01*
X1067366Y67264D01*
X1064190Y68580D01*
X1060819Y69250D01*
D02*
G37*
G36*
X1196159Y35800D02*
X1196000D01*
Y23050D01*
X1208750D01*
Y23209D01*
X1207762Y26897D01*
X1205853Y30203D01*
X1203153Y32903D01*
X1199847Y34812D01*
X1196159Y35800D01*
D02*
G37*
G36*
X1040159D02*
X1040000D01*
Y23050D01*
X1052750D01*
Y23209D01*
X1051762Y26897D01*
X1049853Y30203D01*
X1047153Y32903D01*
X1043847Y34812D01*
X1040159Y35800D01*
D02*
G37*
G36*
X1036500D02*
X1036341D01*
X1032653Y34812D01*
X1029347Y32903D01*
X1026647Y30203D01*
X1024738Y26897D01*
X1023750Y23209D01*
Y23050D01*
X1036500D01*
Y35800D01*
D02*
G37*
G36*
X1192500D02*
X1192341D01*
X1188653Y34812D01*
X1185347Y32903D01*
X1182647Y30203D01*
X1180738Y26897D01*
X1179750Y23209D01*
Y23050D01*
X1192500D01*
Y35800D01*
D02*
G37*
G36*
X1208750Y19550D02*
X1196000D01*
Y6800D01*
X1196159D01*
X1199847Y7788D01*
X1203153Y9697D01*
X1205853Y12397D01*
X1207762Y15703D01*
X1208750Y19391D01*
Y19550D01*
D02*
G37*
G36*
X1192500D02*
X1179750D01*
Y19391D01*
X1180738Y15703D01*
X1182647Y12397D01*
X1185347Y9697D01*
X1188653Y7788D01*
X1192341Y6800D01*
X1192500D01*
Y19550D01*
D02*
G37*
G36*
X1052750D02*
X1040000D01*
Y6800D01*
X1040159D01*
X1043847Y7788D01*
X1047153Y9697D01*
X1049853Y12397D01*
X1051762Y15703D01*
X1052750Y19391D01*
Y19550D01*
D02*
G37*
G36*
X1036500D02*
X1023750D01*
Y19391D01*
X1024738Y15703D01*
X1026647Y12397D01*
X1029347Y9697D01*
X1032653Y7788D01*
X1036341Y6800D01*
X1036500D01*
Y19550D01*
D02*
G37*
G36*
X1371384Y1035700D02*
X1369116D01*
X1367021Y1034832D01*
X1365418Y1033229D01*
X1364550Y1031134D01*
Y1028866D01*
X1365418Y1026771D01*
X1367021Y1025168D01*
X1369116Y1024300D01*
X1371384D01*
X1373479Y1025168D01*
X1375082Y1026771D01*
X1375950Y1028866D01*
Y1031134D01*
X1375082Y1033229D01*
X1373479Y1034832D01*
X1371384Y1035700D01*
D02*
G37*
G36*
X122215Y1039215D02*
X121328D01*
Y1007465D01*
X153078D01*
Y1008351D01*
X152253Y1013559D01*
X150624Y1018574D01*
X148230Y1023273D01*
X145131Y1027539D01*
X141402Y1031267D01*
X137136Y1034367D01*
X132438Y1036760D01*
X127423Y1038390D01*
X122215Y1039215D01*
D02*
G37*
G36*
X702010Y1038967D02*
X701123D01*
Y1007217D01*
X732873D01*
Y1008104D01*
X732048Y1013312D01*
X730419Y1018327D01*
X728025Y1023025D01*
X724926Y1027291D01*
X721197Y1031020D01*
X716931Y1034119D01*
X712233Y1036513D01*
X707218Y1038142D01*
X702010Y1038967D01*
D02*
G37*
G36*
X697623D02*
X696737D01*
X691529Y1038142D01*
X686514Y1036513D01*
X681816Y1034119D01*
X677550Y1031020D01*
X673821Y1027291D01*
X670722Y1023025D01*
X668328Y1018327D01*
X666698Y1013312D01*
X665873Y1008104D01*
Y1007217D01*
X697623D01*
Y1038967D01*
D02*
G37*
G36*
X117828Y1039215D02*
X116942D01*
X111734Y1038390D01*
X106719Y1036760D01*
X102020Y1034367D01*
X97754Y1031267D01*
X94026Y1027539D01*
X90927Y1023273D01*
X88533Y1018574D01*
X86903Y1013559D01*
X86078Y1008351D01*
Y1004925D01*
X85078Y1004846D01*
X84932Y1005771D01*
X83414Y1010441D01*
X81185Y1014817D01*
X78298Y1018790D01*
X74826Y1022263D01*
X70852Y1025149D01*
X66477Y1027379D01*
X61806Y1028896D01*
X56955Y1029665D01*
X52045D01*
X47194Y1028896D01*
X42523Y1027379D01*
X38148Y1025149D01*
X34175Y1022263D01*
X30702Y1018790D01*
X27815Y1014817D01*
X25586Y1010441D01*
X24068Y1005771D01*
X23300Y1000920D01*
Y996009D01*
X24068Y991159D01*
X25586Y986488D01*
X27815Y982112D01*
X30702Y978139D01*
X34175Y974667D01*
X38148Y971780D01*
X42523Y969550D01*
X47194Y968033D01*
X52045Y967265D01*
X56955D01*
X61806Y968033D01*
X66477Y969550D01*
X70852Y971780D01*
X74826Y974667D01*
X78298Y978139D01*
X81185Y982112D01*
X83414Y986488D01*
X84932Y991159D01*
X85700Y996009D01*
Y999074D01*
X86700Y999153D01*
X86903Y997870D01*
X88533Y992855D01*
X90927Y988157D01*
X94026Y983891D01*
X97754Y980163D01*
X102020Y977063D01*
X106719Y974669D01*
X111734Y973040D01*
X116942Y972215D01*
X117828D01*
Y1005715D01*
Y1039215D01*
D02*
G37*
G36*
X1181132Y1016700D02*
X1179368D01*
X1177664Y1016243D01*
X1176136Y1015361D01*
X1174889Y1014114D01*
X1174007Y1012586D01*
X1173550Y1010882D01*
Y1009118D01*
X1174007Y1007414D01*
X1174889Y1005886D01*
X1176136Y1004639D01*
X1177664Y1003757D01*
X1179368Y1003300D01*
X1181132D01*
X1182836Y1003757D01*
X1184364Y1004639D01*
X1185611Y1005886D01*
X1186493Y1007414D01*
X1186950Y1009118D01*
Y1010882D01*
X1186493Y1012586D01*
X1185611Y1014114D01*
X1184364Y1015361D01*
X1182836Y1016243D01*
X1181132Y1016700D01*
D02*
G37*
G36*
X601132D02*
X599368D01*
X597664Y1016243D01*
X596136Y1015361D01*
X594889Y1014114D01*
X594007Y1012586D01*
X593550Y1010882D01*
Y1009118D01*
X594007Y1007414D01*
X594889Y1005886D01*
X596136Y1004639D01*
X597664Y1003757D01*
X599368Y1003300D01*
X601132D01*
X602836Y1003757D01*
X604364Y1004639D01*
X605611Y1005886D01*
X606493Y1007414D01*
X606950Y1009118D01*
Y1010882D01*
X606493Y1012586D01*
X605611Y1014114D01*
X604364Y1015361D01*
X602836Y1016243D01*
X601132Y1016700D01*
D02*
G37*
G36*
X1370250Y1007562D02*
X1368026Y1007119D01*
X1366140Y1005860D01*
X1364881Y1003974D01*
X1364438Y1001750D01*
Y998250D01*
X1364881Y996026D01*
X1366140Y994140D01*
X1368026Y992881D01*
X1370250Y992438D01*
X1372474Y992881D01*
X1374359Y994140D01*
X1375619Y996026D01*
X1376062Y998250D01*
Y1001750D01*
X1375619Y1003974D01*
X1374359Y1005860D01*
X1372474Y1007119D01*
X1370250Y1007562D01*
D02*
G37*
G36*
X673029Y980950D02*
X671756D01*
X670580Y980463D01*
X669679Y979563D01*
X669612Y979401D01*
X668530D01*
X668463Y979563D01*
X667563Y980463D01*
X666386Y980950D01*
X665114D01*
X663937Y980463D01*
X663037Y979563D01*
X662550Y978387D01*
Y977113D01*
X663037Y975937D01*
X663937Y975037D01*
X665114Y974550D01*
X666386D01*
X667563Y975037D01*
X668463Y975937D01*
X668530Y976099D01*
X669612D01*
X669679Y975937D01*
X670580Y975037D01*
X671756Y974550D01*
X673029D01*
X674205Y975037D01*
X675105Y975937D01*
X675592Y977113D01*
Y978387D01*
X675105Y979563D01*
X674205Y980463D01*
X673029Y980950D01*
D02*
G37*
G36*
X1250136Y987950D02*
X1248864D01*
X1247687Y987463D01*
X1246787Y986563D01*
X1246300Y985387D01*
Y984113D01*
X1246558Y983491D01*
X1246363Y983200D01*
X1245187Y982713D01*
X1244287Y981813D01*
X1243800Y980637D01*
Y979363D01*
X1244287Y978187D01*
X1245187Y977287D01*
X1246364Y976800D01*
X1247636D01*
X1248813Y977287D01*
X1249625Y978100D01*
X1250437Y977287D01*
X1251613Y976800D01*
X1252887D01*
X1254063Y977287D01*
X1254963Y978187D01*
X1255450Y979363D01*
Y980637D01*
X1254963Y981813D01*
X1254063Y982713D01*
X1252887Y983200D01*
X1252538Y983722D01*
X1252700Y984113D01*
Y985387D01*
X1252213Y986563D01*
X1251313Y987463D01*
X1250136Y987950D01*
D02*
G37*
G36*
X1111887Y977700D02*
X1110613D01*
X1109437Y977213D01*
X1108896Y976672D01*
X1108250Y976423D01*
X1107604Y976672D01*
X1107063Y977213D01*
X1105887Y977700D01*
X1104613D01*
X1103437Y977213D01*
X1102537Y976313D01*
X1102050Y975136D01*
Y973864D01*
X1102537Y972687D01*
X1103437Y971787D01*
X1104613Y971300D01*
X1105050D01*
Y970363D01*
X1105537Y969187D01*
X1106437Y968287D01*
X1107614Y967800D01*
X1108887D01*
X1110063Y968287D01*
X1110963Y969187D01*
X1111450Y970363D01*
Y971300D01*
X1111887D01*
X1113063Y971787D01*
X1113963Y972687D01*
X1114450Y973864D01*
Y975136D01*
X1113963Y976313D01*
X1113063Y977213D01*
X1111887Y977700D01*
D02*
G37*
G36*
X499636Y976200D02*
X498363D01*
X497187Y975713D01*
X496500Y975025D01*
X495813Y975713D01*
X494636Y976200D01*
X493363D01*
X492187Y975713D01*
X491500Y975025D01*
X490813Y975713D01*
X489636Y976200D01*
X488363D01*
X487187Y975713D01*
X486500Y975025D01*
X485813Y975713D01*
X484636Y976200D01*
X483363D01*
X482187Y975713D01*
X481287Y974813D01*
X480800Y973636D01*
Y972364D01*
X481287Y971187D01*
X481975Y970500D01*
X481287Y969813D01*
X480800Y968636D01*
Y967364D01*
X481287Y966187D01*
X481974Y965500D01*
X481287Y964813D01*
X480800Y963636D01*
Y962364D01*
X481287Y961187D01*
X482187Y960287D01*
X483363Y959800D01*
X484636D01*
X485813Y960287D01*
X486500Y960975D01*
X487187Y960287D01*
X488363Y959800D01*
X489636D01*
X490813Y960287D01*
X491500Y960975D01*
X492187Y960287D01*
X493363Y959800D01*
X494636D01*
X495813Y960287D01*
X496500Y960975D01*
X497187Y960287D01*
X498363Y959800D01*
X499636D01*
X500813Y960287D01*
X501713Y961187D01*
X502200Y962364D01*
Y963636D01*
X501713Y964813D01*
X501026Y965500D01*
X501713Y966187D01*
X502200Y967364D01*
Y968636D01*
X501713Y969813D01*
X501026Y970500D01*
X501713Y971187D01*
X502200Y972364D01*
Y973636D01*
X501713Y974813D01*
X500813Y975713D01*
X499636Y976200D01*
D02*
G37*
G36*
X153078Y1003965D02*
X121328D01*
Y972215D01*
X122215D01*
X127423Y973040D01*
X132438Y974669D01*
X137136Y977063D01*
X141402Y980163D01*
X145131Y983891D01*
X148230Y988157D01*
X150624Y992855D01*
X152253Y997870D01*
X153078Y1003078D01*
Y1003965D01*
D02*
G37*
G36*
X732873Y1003717D02*
X701123D01*
Y971967D01*
X702010D01*
X707218Y972792D01*
X712233Y974422D01*
X716931Y976815D01*
X721197Y979915D01*
X724926Y983643D01*
X728025Y987909D01*
X730419Y992608D01*
X732048Y997623D01*
X732873Y1002831D01*
Y1003717D01*
D02*
G37*
G36*
X697623D02*
X665873D01*
Y1002831D01*
X666698Y997623D01*
X668328Y992608D01*
X670722Y987909D01*
X673821Y983643D01*
X677550Y979915D01*
X681816Y976815D01*
X686514Y974422D01*
X691529Y972792D01*
X696737Y971967D01*
X697623D01*
Y1003717D01*
D02*
G37*
G36*
X1448956Y1029665D02*
X1444044D01*
X1439194Y1028896D01*
X1434523Y1027379D01*
X1430148Y1025149D01*
X1426175Y1022263D01*
X1422702Y1018790D01*
X1419815Y1014817D01*
X1417586Y1010441D01*
X1416068Y1005771D01*
X1415300Y1000920D01*
Y996009D01*
X1416068Y991159D01*
X1417586Y986488D01*
X1419815Y982112D01*
X1422702Y978139D01*
X1426175Y974667D01*
X1430148Y971780D01*
X1434523Y969550D01*
X1439194Y968033D01*
X1444044Y967265D01*
X1448956D01*
X1453806Y968033D01*
X1458477Y969550D01*
X1462852Y971780D01*
X1466826Y974667D01*
X1470298Y978139D01*
X1473185Y982112D01*
X1475414Y986488D01*
X1476932Y991159D01*
X1477700Y996009D01*
Y1000920D01*
X1476932Y1005771D01*
X1475414Y1010441D01*
X1473185Y1014817D01*
X1470298Y1018790D01*
X1466826Y1022263D01*
X1462852Y1025149D01*
X1458477Y1027379D01*
X1453806Y1028896D01*
X1448956Y1029665D01*
D02*
G37*
G36*
X1368353Y966104D02*
X1367080D01*
X1365903Y965617D01*
X1365003Y964717D01*
X1364516Y963541D01*
Y962268D01*
X1365003Y961092D01*
X1365903Y960191D01*
X1367080Y959704D01*
X1368353D01*
X1369529Y960191D01*
X1370429Y961092D01*
X1370916Y962268D01*
Y963541D01*
X1370429Y964717D01*
X1369529Y965617D01*
X1368353Y966104D01*
D02*
G37*
G36*
X720137Y970700D02*
X718864D01*
X717687Y970213D01*
X716787Y969313D01*
X716300Y968137D01*
Y966950D01*
X715863D01*
X714687Y966463D01*
X713787Y965563D01*
X713300Y964387D01*
Y963113D01*
X713787Y961937D01*
X714687Y961037D01*
X715863Y960550D01*
X716300D01*
Y959363D01*
X716787Y958187D01*
X717687Y957287D01*
X718864Y956800D01*
X720136D01*
X721313Y957287D01*
X722213Y958187D01*
X722700Y959363D01*
Y960550D01*
X723137D01*
X724313Y961037D01*
X725213Y961937D01*
X725700Y963113D01*
Y964387D01*
X725213Y965563D01*
X724313Y966463D01*
X723137Y966950D01*
X722700D01*
Y968137D01*
X722213Y969313D01*
X721313Y970213D01*
X720137Y970700D01*
D02*
G37*
G36*
X125637Y960200D02*
X124363D01*
X123187Y959713D01*
X122287Y958813D01*
X121800Y957636D01*
Y956364D01*
X122287Y955187D01*
X123187Y954287D01*
X123428Y954188D01*
X123530Y953805D01*
X123535Y953061D01*
X122787Y952313D01*
X122300Y951136D01*
Y949864D01*
X122787Y948687D01*
X123687Y947787D01*
X124864Y947300D01*
X125550D01*
Y946613D01*
X126037Y945437D01*
X126937Y944537D01*
X128113Y944050D01*
X128800D01*
Y943363D01*
X129287Y942187D01*
X130187Y941287D01*
X131363Y940800D01*
X132636D01*
X133813Y941287D01*
X134354Y941828D01*
X135000Y942077D01*
X135646Y941828D01*
X136187Y941287D01*
X137364Y940800D01*
X138637D01*
X139813Y941287D01*
X140713Y942187D01*
X141200Y943363D01*
Y944637D01*
X140713Y945813D01*
X139813Y946713D01*
X138637Y947200D01*
X138200D01*
Y948137D01*
X137713Y949313D01*
X136813Y950213D01*
X135637Y950700D01*
X134950D01*
Y951386D01*
X134463Y952563D01*
X133563Y953463D01*
X132387Y953950D01*
X131700D01*
Y954637D01*
X131213Y955813D01*
X130313Y956713D01*
X129136Y957200D01*
X128200D01*
Y957636D01*
X127713Y958813D01*
X126813Y959713D01*
X125637Y960200D01*
D02*
G37*
G36*
X261713Y955767D02*
X260056Y955159D01*
X258756Y953968D01*
X258006Y952371D01*
X257962Y951489D01*
X257962D01*
X257879Y944650D01*
X257869Y943748D01*
X258546Y942076D01*
X259815Y940793D01*
X261480Y940098D01*
X263284Y940098D01*
X264949Y940793D01*
X266218Y942075D01*
X266873Y943693D01*
X266895Y943747D01*
X266886Y944650D01*
X266885Y944650D01*
X266886Y951146D01*
X266911Y952027D01*
X266286Y953677D01*
X265081Y954966D01*
X263476Y955699D01*
X261713Y955767D01*
D02*
G37*
G36*
X678886Y936700D02*
X677614D01*
X676437Y936213D01*
X675537Y935313D01*
X675050Y934137D01*
Y932863D01*
X675537Y931687D01*
X676437Y930787D01*
X677614Y930300D01*
X678886D01*
X680063Y930787D01*
X680963Y931687D01*
X681450Y932863D01*
Y934137D01*
X680963Y935313D01*
X680063Y936213D01*
X678886Y936700D01*
D02*
G37*
G36*
X1045637Y931200D02*
X1044363D01*
X1043187Y930713D01*
X1042287Y929813D01*
X1041800Y928636D01*
Y927364D01*
X1042287Y926187D01*
X1043187Y925287D01*
X1044363Y924800D01*
X1045637D01*
X1046813Y925287D01*
X1047713Y926187D01*
X1048200Y927364D01*
Y928636D01*
X1047713Y929813D01*
X1046813Y930713D01*
X1045637Y931200D01*
D02*
G37*
G36*
X1118387Y925700D02*
X1117113D01*
X1115937Y925213D01*
X1115037Y924313D01*
X1114550Y923137D01*
Y921863D01*
X1115037Y920687D01*
X1115937Y919787D01*
X1117113Y919300D01*
X1118387D01*
X1119563Y919787D01*
X1120463Y920687D01*
X1120950Y921863D01*
Y923137D01*
X1120463Y924313D01*
X1119563Y925213D01*
X1118387Y925700D01*
D02*
G37*
G36*
X573387D02*
X572113D01*
X570937Y925213D01*
X570037Y924313D01*
X569550Y923137D01*
Y921863D01*
X570037Y920687D01*
X570937Y919787D01*
X572113Y919300D01*
X573387D01*
X574563Y919787D01*
X575463Y920687D01*
X575950Y921863D01*
Y923137D01*
X575463Y924313D01*
X574563Y925213D01*
X573387Y925700D01*
D02*
G37*
G36*
X462387Y922200D02*
X461114D01*
X459937Y921713D01*
X459037Y920813D01*
X458550Y919637D01*
Y918363D01*
X459037Y917187D01*
X459937Y916287D01*
X461114Y915800D01*
X462387D01*
X463563Y916287D01*
X464463Y917187D01*
X464950Y918363D01*
Y919637D01*
X464463Y920813D01*
X463563Y921713D01*
X462387Y922200D01*
D02*
G37*
G36*
X1160887Y920700D02*
X1159613D01*
X1158437Y920213D01*
X1157537Y919313D01*
X1157050Y918137D01*
Y916863D01*
X1157537Y915687D01*
X1158437Y914787D01*
X1159613Y914300D01*
X1160887D01*
X1162063Y914787D01*
X1162963Y915687D01*
X1163450Y916863D01*
Y918137D01*
X1162963Y919313D01*
X1162063Y920213D01*
X1160887Y920700D01*
D02*
G37*
G36*
X723387Y914200D02*
X722113D01*
X720937Y913713D01*
X720037Y912813D01*
X719916Y912521D01*
X718834D01*
X718713Y912813D01*
X717813Y913713D01*
X716637Y914200D01*
X715363D01*
X714187Y913713D01*
X713287Y912813D01*
X712800Y911637D01*
Y910363D01*
X713287Y909187D01*
X714187Y908287D01*
X714781Y908041D01*
Y906959D01*
X714187Y906713D01*
X713287Y905813D01*
X712800Y904637D01*
Y903363D01*
X713287Y902187D01*
X714187Y901287D01*
X715363Y900800D01*
X716637D01*
X717813Y901287D01*
X718713Y902187D01*
X718937Y902729D01*
X720020D01*
X720037Y902687D01*
X720937Y901787D01*
X722113Y901300D01*
X723387D01*
X724563Y901787D01*
X725463Y902687D01*
X725950Y903864D01*
Y905136D01*
X725463Y906313D01*
X724563Y907213D01*
Y908287D01*
X725463Y909187D01*
X725950Y910363D01*
Y911637D01*
X725463Y912813D01*
X724563Y913713D01*
X723387Y914200D01*
D02*
G37*
G36*
X573387Y918200D02*
X572113D01*
X570937Y917713D01*
X570037Y916813D01*
X569550Y915637D01*
Y914363D01*
X570037Y913187D01*
X570937Y912287D01*
X572113Y911800D01*
X573387D01*
X574563Y912287D01*
X575463Y913187D01*
X575950Y914363D01*
Y915637D01*
X575463Y916813D01*
X574563Y917713D01*
X573387Y918200D01*
D02*
G37*
G36*
X1448500Y934771D02*
X1446359Y934489D01*
X1444365Y933663D01*
X1442652Y932348D01*
X1441337Y930635D01*
X1440511Y928641D01*
X1440229Y926500D01*
Y918500D01*
X1440511Y916359D01*
X1441337Y914365D01*
X1442652Y912652D01*
X1444365Y911337D01*
X1446359Y910511D01*
X1448500Y910229D01*
X1450641Y910511D01*
X1452635Y911337D01*
X1454348Y912652D01*
X1455663Y914365D01*
X1456489Y916359D01*
X1456771Y918500D01*
Y926500D01*
X1456489Y928641D01*
X1455663Y930635D01*
X1454348Y932348D01*
X1452635Y933663D01*
X1450641Y934489D01*
X1448500Y934771D01*
D02*
G37*
G36*
X1422500D02*
X1420359Y934489D01*
X1418365Y933663D01*
X1416652Y932348D01*
X1415337Y930635D01*
X1414511Y928641D01*
X1414229Y926500D01*
Y918500D01*
X1414511Y916359D01*
X1415337Y914365D01*
X1416652Y912652D01*
X1418365Y911337D01*
X1420359Y910511D01*
X1422500Y910229D01*
X1424641Y910511D01*
X1426635Y911337D01*
X1428348Y912652D01*
X1429663Y914365D01*
X1430489Y916359D01*
X1430771Y918500D01*
Y926500D01*
X1430489Y928641D01*
X1429663Y930635D01*
X1428348Y932348D01*
X1426635Y933663D01*
X1424641Y934489D01*
X1422500Y934771D01*
D02*
G37*
G36*
X1184637Y911200D02*
X1183363D01*
X1182187Y910713D01*
X1181500Y910025D01*
X1180813Y910713D01*
X1179637Y911200D01*
X1178363D01*
X1177187Y910713D01*
X1176500Y910025D01*
X1175813Y910713D01*
X1174637Y911200D01*
X1173363D01*
X1172187Y910713D01*
X1171500Y910025D01*
X1170813Y910713D01*
X1169637Y911200D01*
X1168363D01*
X1167187Y910713D01*
X1166287Y909813D01*
X1165800Y908636D01*
Y907364D01*
X1166287Y906187D01*
X1167187Y905287D01*
X1168363Y904800D01*
X1169637D01*
X1170813Y905287D01*
X1171500Y905975D01*
X1172187Y905287D01*
X1173363Y904800D01*
X1174637D01*
X1175813Y905287D01*
X1176500Y905975D01*
X1177187Y905287D01*
X1178363Y904800D01*
X1179637D01*
X1180813Y905287D01*
X1181500Y905975D01*
X1182187Y905287D01*
X1183363Y904800D01*
X1184637D01*
X1185813Y905287D01*
X1186713Y906187D01*
X1187200Y907364D01*
Y908636D01*
X1186713Y909813D01*
X1185813Y910713D01*
X1184637Y911200D01*
D02*
G37*
G36*
X1048886D02*
X1047614D01*
X1046437Y910713D01*
X1045537Y909813D01*
X1045050Y908636D01*
Y907364D01*
X1045537Y906187D01*
X1046437Y905287D01*
X1047614Y904800D01*
X1048886D01*
X1050063Y905287D01*
X1050963Y906187D01*
X1051450Y907364D01*
Y908636D01*
X1050963Y909813D01*
X1050063Y910713D01*
X1048886Y911200D01*
D02*
G37*
G36*
X1105887Y910700D02*
X1104613D01*
X1103437Y910213D01*
X1102537Y909313D01*
X1102050Y908137D01*
Y906863D01*
X1102537Y905687D01*
X1103437Y904787D01*
X1104613Y904300D01*
X1105887D01*
X1107063Y904787D01*
X1107963Y905687D01*
X1108450Y906863D01*
Y908137D01*
X1107963Y909313D01*
X1107063Y910213D01*
X1105887Y910700D01*
D02*
G37*
G36*
X176637Y902200D02*
X175364D01*
X174187Y901713D01*
X173287Y900813D01*
X172800Y899637D01*
Y898363D01*
X173287Y897187D01*
X174187Y896287D01*
X175364Y895800D01*
X176637D01*
X177813Y896287D01*
X178713Y897187D01*
X179200Y898363D01*
Y899637D01*
X178713Y900813D01*
X177813Y901713D01*
X176637Y902200D01*
D02*
G37*
G36*
X683886Y903950D02*
X682614D01*
X681437Y903463D01*
X680537Y902563D01*
X680050Y901386D01*
Y900114D01*
X680537Y898937D01*
X681437Y898037D01*
Y896963D01*
X680537Y896063D01*
X680050Y894886D01*
Y893614D01*
X680537Y892437D01*
X681358Y891616D01*
X681380Y891098D01*
X681303Y890511D01*
X681187Y890463D01*
X680287Y889563D01*
X679800Y888387D01*
Y887113D01*
X680287Y885937D01*
X681187Y885037D01*
X682364Y884550D01*
X683637D01*
X684813Y885037D01*
X685713Y885937D01*
X686200Y887113D01*
Y888387D01*
X685713Y889563D01*
X684892Y890384D01*
X684870Y890902D01*
X684947Y891489D01*
X685063Y891537D01*
X685963Y892437D01*
X686450Y893614D01*
Y894886D01*
X685963Y896063D01*
X685063Y896963D01*
Y898037D01*
X685963Y898937D01*
X686450Y900114D01*
Y901386D01*
X685963Y902563D01*
X685063Y903463D01*
X683886Y903950D01*
D02*
G37*
G36*
X1406211Y899200D02*
X1403789D01*
X1401449Y898573D01*
X1399351Y897362D01*
X1397638Y895649D01*
X1396427Y893551D01*
X1395800Y891211D01*
Y888789D01*
X1396427Y886449D01*
X1397638Y884351D01*
X1399351Y882638D01*
X1401449Y881427D01*
X1403789Y880800D01*
X1406211D01*
X1408551Y881427D01*
X1410649Y882638D01*
X1412362Y884351D01*
X1413573Y886449D01*
X1414200Y888789D01*
Y891211D01*
X1413573Y893551D01*
X1412362Y895649D01*
X1410649Y897362D01*
X1408551Y898573D01*
X1406211Y899200D01*
D02*
G37*
G36*
X1467277Y899700D02*
X1464723D01*
X1462256Y899039D01*
X1460044Y897762D01*
X1458238Y895956D01*
X1456961Y893744D01*
X1456300Y891277D01*
Y888723D01*
X1456961Y886256D01*
X1458238Y884044D01*
X1460044Y882238D01*
X1462256Y880961D01*
X1464723Y880300D01*
X1467277D01*
X1469744Y880961D01*
X1471956Y882238D01*
X1473762Y884044D01*
X1475039Y886256D01*
X1475700Y888723D01*
Y891277D01*
X1475039Y893744D01*
X1473762Y895956D01*
X1471956Y897762D01*
X1469744Y899039D01*
X1467277Y899700D01*
D02*
G37*
G36*
X617624Y885700D02*
X616351D01*
X615175Y885213D01*
X614274Y884313D01*
X613787Y883137D01*
Y881863D01*
X614274Y880687D01*
X615175Y879787D01*
X616351Y879300D01*
X617624D01*
X618800Y879787D01*
X619700Y880687D01*
X620187Y881863D01*
Y883137D01*
X619700Y884313D01*
X618800Y885213D01*
X617624Y885700D01*
D02*
G37*
G36*
X221637Y876200D02*
X220364D01*
X219187Y875713D01*
X218287Y874813D01*
X218166Y874521D01*
X217084D01*
X216963Y874813D01*
X216063Y875713D01*
X214886Y876200D01*
X213613D01*
X212437Y875713D01*
X211537Y874813D01*
X211050Y873636D01*
Y872364D01*
X211537Y871187D01*
X212437Y870287D01*
X213613Y869800D01*
X214886D01*
X216063Y870287D01*
X216963Y871187D01*
X217084Y871479D01*
X218166D01*
X218287Y871187D01*
X219187Y870287D01*
X220364Y869800D01*
X221637D01*
X222813Y870287D01*
X223713Y871187D01*
X224200Y872364D01*
Y873636D01*
X223713Y874813D01*
X222813Y875713D01*
X221637Y876200D01*
D02*
G37*
G36*
X583386Y875700D02*
X582113D01*
X580937Y875213D01*
X580037Y874313D01*
X579550Y873137D01*
Y871863D01*
X580037Y870687D01*
X580937Y869787D01*
X582113Y869300D01*
X583386D01*
X584563Y869787D01*
X585463Y870687D01*
X585950Y871863D01*
Y873137D01*
X585463Y874313D01*
X584563Y875213D01*
X583386Y875700D01*
D02*
G37*
G36*
X183887Y868200D02*
X182614D01*
X181437Y867713D01*
X180537Y866813D01*
X180050Y865637D01*
Y864363D01*
X180537Y863187D01*
X181437Y862287D01*
X182614Y861800D01*
X183887D01*
X185063Y862287D01*
X185963Y863187D01*
X186450Y864363D01*
Y865637D01*
X185963Y866813D01*
X185063Y867713D01*
X183887Y868200D01*
D02*
G37*
G36*
X818188Y874398D02*
X816532Y873790D01*
X815231Y872598D01*
X814481Y871002D01*
X814438Y870120D01*
X814438D01*
X814354Y863281D01*
X814344Y862379D01*
X815022Y860706D01*
X816290Y859424D01*
X817955Y858729D01*
X819759Y858729D01*
X821424Y859424D01*
X822693Y860706D01*
X823348Y862324D01*
X823370Y862378D01*
X823361Y863280D01*
X823361Y863280D01*
X823361Y869777D01*
X823386Y870658D01*
X822761Y872308D01*
X821556Y873597D01*
X819951Y874330D01*
X818188Y874398D01*
D02*
G37*
G36*
X1385887Y860700D02*
X1384613D01*
X1383437Y860213D01*
X1382537Y859313D01*
X1382050Y858137D01*
Y856863D01*
X1382537Y855687D01*
X1383437Y854787D01*
X1384613Y854300D01*
X1385887D01*
X1387063Y854787D01*
X1387963Y855687D01*
X1388450Y856863D01*
Y858137D01*
X1387963Y859313D01*
X1387063Y860213D01*
X1385887Y860700D01*
D02*
G37*
G36*
X265137Y851700D02*
X263864D01*
X262687Y851213D01*
X261787Y850313D01*
X261300Y849137D01*
Y847863D01*
X261787Y846687D01*
X262687Y845787D01*
X263864Y845300D01*
X265137D01*
X266313Y845787D01*
X267213Y846687D01*
X267700Y847863D01*
Y849137D01*
X267213Y850313D01*
X266313Y851213D01*
X265137Y851700D01*
D02*
G37*
G36*
X1453136Y848200D02*
X1451864D01*
X1450687Y847713D01*
X1449787Y846813D01*
X1449300Y845637D01*
Y844363D01*
X1449787Y843187D01*
X1450687Y842287D01*
X1451864Y841800D01*
X1453136D01*
X1454313Y842287D01*
X1455213Y843187D01*
X1455700Y844363D01*
Y845637D01*
X1455213Y846813D01*
X1454313Y847713D01*
X1453136Y848200D01*
D02*
G37*
G36*
X63137Y841700D02*
X61863D01*
X60687Y841213D01*
X59787Y840313D01*
X59300Y839137D01*
Y837863D01*
X59787Y836687D01*
X60224Y836250D01*
X59787Y835813D01*
X59300Y834637D01*
Y833363D01*
X59787Y832187D01*
X60687Y831287D01*
X61863Y830800D01*
X63137D01*
X64313Y831287D01*
X65213Y832187D01*
X65700Y833363D01*
Y834637D01*
X65213Y835813D01*
X64776Y836250D01*
X65213Y836687D01*
X65700Y837863D01*
Y839137D01*
X65213Y840313D01*
X64313Y841213D01*
X63137Y841700D01*
D02*
G37*
G36*
X163437Y843431D02*
X161772Y842737D01*
X160503Y841454D01*
X159862Y839869D01*
X159826Y839782D01*
X159836Y838880D01*
X159836Y838880D01*
X159835Y832384D01*
X159810Y831502D01*
X160435Y829852D01*
X161641Y828564D01*
X163245Y827830D01*
X165008Y827762D01*
X166665Y828370D01*
X167966Y829562D01*
X168715Y831159D01*
X168759Y832040D01*
X168759Y832040D01*
X168842Y838880D01*
X168852Y839782D01*
X168175Y841454D01*
X166906Y842736D01*
X165241Y843431D01*
X163437Y843431D01*
D02*
G37*
G36*
X108637Y821200D02*
X107364D01*
X106187Y820713D01*
X105646Y820172D01*
X105000Y819923D01*
X104354Y820172D01*
X103813Y820713D01*
X102636Y821200D01*
X101363D01*
X100187Y820713D01*
X99287Y819813D01*
X98800Y818636D01*
Y817364D01*
X99287Y816187D01*
X100187Y815287D01*
X101363Y814800D01*
X102636D01*
X103813Y815287D01*
X104354Y815828D01*
X105000Y816077D01*
X105646Y815828D01*
X106187Y815287D01*
X107364Y814800D01*
X108637D01*
X109813Y815287D01*
X110713Y816187D01*
X111200Y817364D01*
Y818636D01*
X110713Y819813D01*
X109813Y820713D01*
X108637Y821200D01*
D02*
G37*
G36*
X245887Y826200D02*
X244613D01*
X243437Y825713D01*
X242537Y824813D01*
X242050Y823636D01*
Y822364D01*
X242537Y821187D01*
X243437Y820287D01*
X244613Y819800D01*
X245887D01*
X247063Y820287D01*
X247963Y821187D01*
X248450Y822364D01*
Y823636D01*
X247963Y824813D01*
X247063Y825713D01*
X245887Y826200D01*
D02*
G37*
G36*
X179887D02*
X178613D01*
X177437Y825713D01*
X176537Y824813D01*
X176050Y823636D01*
Y822364D01*
X176537Y821187D01*
X177437Y820287D01*
X178613Y819800D01*
X179887D01*
X181063Y820287D01*
X181963Y821187D01*
X182450Y822364D01*
Y823636D01*
X181963Y824813D01*
X181063Y825713D01*
X179887Y826200D01*
D02*
G37*
G36*
X124637Y825200D02*
X123364D01*
X122187Y824713D01*
X121287Y823813D01*
X120800Y822636D01*
Y821364D01*
X121287Y820187D01*
X122187Y819287D01*
X123364Y818800D01*
X124637D01*
X125813Y819287D01*
X126713Y820187D01*
X127200Y821364D01*
Y822636D01*
X126713Y823813D01*
X125813Y824713D01*
X124637Y825200D01*
D02*
G37*
G36*
X1448137Y823200D02*
X1446864D01*
X1445687Y822713D01*
X1444787Y821813D01*
X1444300Y820637D01*
Y819363D01*
X1444787Y818187D01*
X1445687Y817287D01*
X1446864Y816800D01*
X1447200D01*
X1447868Y815800D01*
X1447800Y815637D01*
Y814363D01*
X1448287Y813187D01*
X1449187Y812287D01*
X1450363Y811800D01*
X1451637D01*
X1452813Y812287D01*
X1453713Y813187D01*
X1454200Y814363D01*
Y815637D01*
X1453713Y816813D01*
X1452813Y817713D01*
X1451637Y818200D01*
X1451301D01*
X1450632Y819200D01*
X1450700Y819363D01*
Y820637D01*
X1450213Y821813D01*
X1449313Y822713D01*
X1448137Y823200D01*
D02*
G37*
G36*
X1366637Y817700D02*
X1365363D01*
X1364187Y817213D01*
X1363287Y816313D01*
X1362800Y815136D01*
Y813864D01*
X1363287Y812687D01*
X1364187Y811787D01*
X1365363Y811300D01*
X1366637D01*
X1367813Y811787D01*
X1368713Y812687D01*
X1369200Y813864D01*
Y815136D01*
X1368713Y816313D01*
X1367813Y817213D01*
X1366637Y817700D01*
D02*
G37*
G36*
X1441637Y813450D02*
X1440363D01*
X1439187Y812963D01*
X1438287Y812063D01*
X1437800Y810887D01*
Y809613D01*
X1438287Y808437D01*
X1439187Y807537D01*
X1440363Y807050D01*
X1441637D01*
X1442813Y807537D01*
X1443713Y808437D01*
X1444200Y809613D01*
Y810887D01*
X1443713Y812063D01*
X1442813Y812963D01*
X1441637Y813450D01*
D02*
G37*
G36*
X1184637Y805200D02*
X1183363D01*
X1182187Y804713D01*
X1181500Y804025D01*
X1180813Y804713D01*
X1179637Y805200D01*
X1178363D01*
X1177187Y804713D01*
X1176500Y804025D01*
X1175813Y804713D01*
X1174637Y805200D01*
X1173363D01*
X1172187Y804713D01*
X1171500Y804025D01*
X1170813Y804713D01*
X1169637Y805200D01*
X1168363D01*
X1167187Y804713D01*
X1166287Y803813D01*
X1165800Y802636D01*
Y801364D01*
X1166287Y800187D01*
X1167187Y799287D01*
X1168363Y798800D01*
X1169637D01*
X1170813Y799287D01*
X1171500Y799975D01*
X1172187Y799287D01*
X1173363Y798800D01*
X1174637D01*
X1175813Y799287D01*
X1176500Y799975D01*
X1177187Y799287D01*
X1178363Y798800D01*
X1179637D01*
X1180813Y799287D01*
X1181500Y799975D01*
X1182187Y799287D01*
X1183363Y798800D01*
X1184637D01*
X1185813Y799287D01*
X1186713Y800187D01*
X1187200Y801364D01*
Y802636D01*
X1186713Y803813D01*
X1185813Y804713D01*
X1184637Y805200D01*
D02*
G37*
G36*
X214462Y807716D02*
X213189D01*
X212013Y807229D01*
X211112Y806329D01*
X210625Y805152D01*
Y803879D01*
X211112Y802703D01*
X212013Y801803D01*
X213189Y801316D01*
X214462D01*
X215638Y801803D01*
X216538Y802703D01*
X217025Y803879D01*
Y805152D01*
X216538Y806329D01*
X215638Y807229D01*
X214462Y807716D01*
D02*
G37*
G36*
X68387Y813200D02*
X67113D01*
X65937Y812713D01*
X65037Y811813D01*
X64550Y810637D01*
Y809363D01*
X64649Y809124D01*
X64146Y808006D01*
X63437Y807713D01*
X62537Y806813D01*
X62050Y805637D01*
Y804363D01*
X62149Y804124D01*
X61547Y802965D01*
X60937Y802713D01*
X60037Y801813D01*
X59550Y800637D01*
Y799363D01*
X60037Y798187D01*
X60937Y797287D01*
X62113Y796800D01*
X63387D01*
X64563Y797287D01*
X65463Y798187D01*
X65950Y799363D01*
Y800637D01*
X65851Y800876D01*
X66453Y802035D01*
X67063Y802287D01*
X67963Y803187D01*
X68450Y804363D01*
Y805637D01*
X68351Y805876D01*
X68854Y806994D01*
X69563Y807287D01*
X70463Y808187D01*
X70950Y809363D01*
Y810637D01*
X70463Y811813D01*
X69563Y812713D01*
X68387Y813200D01*
D02*
G37*
G36*
X1451637Y803450D02*
X1450363D01*
X1449187Y802963D01*
X1448287Y802063D01*
X1447800Y800887D01*
Y799613D01*
X1448287Y798437D01*
X1449100Y797625D01*
X1448287Y796813D01*
X1447800Y795637D01*
Y794363D01*
X1448287Y793187D01*
X1449187Y792287D01*
X1450363Y791800D01*
X1451637D01*
X1452813Y792287D01*
X1453713Y793187D01*
X1454200Y794363D01*
Y795637D01*
X1453713Y796813D01*
X1452901Y797625D01*
X1453713Y798437D01*
X1454200Y799613D01*
Y800887D01*
X1453713Y802063D01*
X1452813Y802963D01*
X1451637Y803450D01*
D02*
G37*
G36*
X1103137Y788200D02*
X1101863D01*
X1100687Y787713D01*
X1099787Y786813D01*
X1099300Y785637D01*
Y784363D01*
X1099787Y783187D01*
X1100687Y782287D01*
X1101863Y781800D01*
X1103137D01*
X1104313Y782287D01*
X1105213Y783187D01*
X1105700Y784363D01*
Y785637D01*
X1105213Y786813D01*
X1104313Y787713D01*
X1103137Y788200D01*
D02*
G37*
G36*
X366562Y792170D02*
X364906Y791562D01*
X363605Y790370D01*
X362855Y788773D01*
X362812Y787892D01*
X362812D01*
X362728Y781053D01*
X362719Y780151D01*
X363396Y778478D01*
X364664Y777196D01*
X366329Y776501D01*
X368133Y776501D01*
X369798Y777196D01*
X371067Y778478D01*
X371722Y780096D01*
X371744Y780150D01*
X371735Y781052D01*
X371735Y781052D01*
X371735Y787548D01*
X371760Y788430D01*
X371135Y790080D01*
X369930Y791368D01*
X368325Y792102D01*
X366562Y792170D01*
D02*
G37*
G36*
X88137Y771450D02*
X86863D01*
X85687Y770963D01*
X84787Y770063D01*
X83713D01*
X82813Y770963D01*
X81636Y771450D01*
X80364D01*
X79187Y770963D01*
X78287Y770063D01*
X78239Y769947D01*
X77652Y769870D01*
X77134Y769892D01*
X76313Y770713D01*
X75137Y771200D01*
X73864D01*
X72687Y770713D01*
X71787Y769813D01*
X71300Y768636D01*
Y767364D01*
X71787Y766187D01*
X72687Y765287D01*
X73864Y764800D01*
X75137D01*
X76313Y765287D01*
X77213Y766187D01*
X77261Y766303D01*
X77848Y766380D01*
X78366Y766358D01*
X79187Y765537D01*
X80364Y765050D01*
X81636D01*
X82813Y765537D01*
X83713Y766437D01*
X84787D01*
X85687Y765537D01*
X86863Y765050D01*
X88137D01*
X89313Y765537D01*
X90213Y766437D01*
X90700Y767614D01*
Y768886D01*
X90213Y770063D01*
X89313Y770963D01*
X88137Y771450D01*
D02*
G37*
G36*
X584637Y764450D02*
X583363D01*
X582187Y763963D01*
X581287Y763063D01*
X580800Y761887D01*
Y760613D01*
X581287Y759437D01*
X582187Y758537D01*
X583363Y758050D01*
X584637D01*
X585813Y758537D01*
X586713Y759437D01*
X587200Y760613D01*
Y761887D01*
X586713Y763063D01*
X585813Y763963D01*
X584637Y764450D01*
D02*
G37*
G36*
X936183Y763548D02*
X934910D01*
X933734Y763061D01*
X932834Y762161D01*
X932347Y760985D01*
Y759712D01*
X932834Y758536D01*
X933734Y757635D01*
X934910Y757148D01*
X936183D01*
X937360Y757635D01*
X938260Y758536D01*
X938747Y759712D01*
Y760985D01*
X938260Y762161D01*
X937360Y763061D01*
X936183Y763548D01*
D02*
G37*
G36*
X366518Y768352D02*
X364862Y767744D01*
X363561Y766552D01*
X362811Y764955D01*
X362768Y764074D01*
X362768D01*
X362684Y757234D01*
X362674Y756332D01*
X363351Y754660D01*
X364620Y753378D01*
X366285Y752683D01*
X368089Y752683D01*
X369754Y753377D01*
X371023Y754660D01*
X371678Y756278D01*
X371700Y756332D01*
X371691Y757234D01*
X371690Y757234D01*
X371691Y763730D01*
X371716Y764612D01*
X371091Y766262D01*
X369886Y767550D01*
X368281Y768284D01*
X366518Y768352D01*
D02*
G37*
G36*
X1181461Y769200D02*
X1179039D01*
X1176699Y768573D01*
X1174601Y767362D01*
X1172888Y765649D01*
X1171677Y763551D01*
X1171050Y761211D01*
Y758789D01*
X1171677Y756449D01*
X1172888Y754351D01*
X1174601Y752638D01*
X1176699Y751427D01*
X1179039Y750800D01*
X1181461D01*
X1183801Y751427D01*
X1185899Y752638D01*
X1187612Y754351D01*
X1188823Y756449D01*
X1189450Y758789D01*
Y761211D01*
X1188823Y763551D01*
X1187612Y765649D01*
X1185899Y767362D01*
X1183801Y768573D01*
X1181461Y769200D01*
D02*
G37*
G36*
X601461D02*
X599039D01*
X596699Y768573D01*
X594601Y767362D01*
X592888Y765649D01*
X591677Y763551D01*
X591050Y761211D01*
Y758789D01*
X591677Y756449D01*
X592888Y754351D01*
X594601Y752638D01*
X596699Y751427D01*
X599039Y750800D01*
X601461D01*
X603801Y751427D01*
X605899Y752638D01*
X607612Y754351D01*
X608823Y756449D01*
X609450Y758789D01*
Y761211D01*
X608823Y763551D01*
X607612Y765649D01*
X605899Y767362D01*
X603801Y768573D01*
X601461Y769200D01*
D02*
G37*
G36*
X164886Y755200D02*
X163613D01*
X162437Y754713D01*
X161537Y753813D01*
X161050Y752636D01*
Y751364D01*
X161537Y750187D01*
X162437Y749287D01*
X163613Y748800D01*
X164886D01*
X166063Y749287D01*
X166963Y750187D01*
X167450Y751364D01*
Y752636D01*
X166963Y753813D01*
X166063Y754713D01*
X164886Y755200D01*
D02*
G37*
G36*
X88137Y748950D02*
X86863D01*
X85687Y748463D01*
X84787Y747563D01*
X83713D01*
X82813Y748463D01*
X81636Y748950D01*
X80364D01*
X79187Y748463D01*
X78287Y747563D01*
X77213D01*
X76313Y748463D01*
X75137Y748950D01*
X73864D01*
X72687Y748463D01*
X71787Y747563D01*
X71300Y746386D01*
Y745114D01*
X71787Y743937D01*
X72687Y743037D01*
X73864Y742550D01*
X75137D01*
X76313Y743037D01*
X77213Y743937D01*
X78287D01*
X79187Y743037D01*
X80364Y742550D01*
X81636D01*
X82813Y743037D01*
X83713Y743937D01*
X84787D01*
X85687Y743037D01*
X86863Y742550D01*
X88137D01*
X89313Y743037D01*
X90213Y743937D01*
X90700Y745114D01*
Y746386D01*
X90213Y747563D01*
X89313Y748463D01*
X88137Y748950D01*
D02*
G37*
G36*
X1445637Y759700D02*
X1444364D01*
X1443187Y759213D01*
X1442287Y758313D01*
X1441800Y757137D01*
Y755863D01*
X1442287Y754687D01*
X1442828Y754146D01*
X1443077Y753500D01*
X1442828Y752854D01*
X1442287Y752313D01*
X1441800Y751136D01*
Y749864D01*
X1442287Y748687D01*
X1443187Y747787D01*
X1444364Y747300D01*
X1445637D01*
X1446813Y747787D01*
X1447713Y748687D01*
X1448200Y749864D01*
Y751136D01*
X1447713Y752313D01*
X1447172Y752854D01*
X1446923Y753500D01*
X1447172Y754146D01*
X1447713Y754687D01*
X1448200Y755863D01*
Y757137D01*
X1447713Y758313D01*
X1446813Y759213D01*
X1445637Y759700D01*
D02*
G37*
G36*
X56461Y764800D02*
X54039D01*
X51699Y764173D01*
X49601Y762962D01*
X47888Y761249D01*
X46677Y759151D01*
X46050Y756811D01*
Y754389D01*
X46677Y752049D01*
X47888Y749951D01*
X49601Y748238D01*
X51699Y747027D01*
X54039Y746400D01*
X56461D01*
X58801Y747027D01*
X60899Y748238D01*
X62612Y749951D01*
X63823Y752049D01*
X64450Y754389D01*
Y756811D01*
X63823Y759151D01*
X62612Y761249D01*
X60899Y762962D01*
X58801Y764173D01*
X56461Y764800D01*
D02*
G37*
G36*
X155887Y750200D02*
X154614D01*
X153437Y749713D01*
X152537Y748813D01*
X152050Y747636D01*
Y746364D01*
X152537Y745187D01*
X153437Y744287D01*
X154614Y743800D01*
X155887D01*
X157063Y744287D01*
X157963Y745187D01*
X158450Y746364D01*
Y747636D01*
X157963Y748813D01*
X157063Y749713D01*
X155887Y750200D01*
D02*
G37*
G36*
X934760Y754715D02*
X933487D01*
X932311Y754228D01*
X931411Y753327D01*
X930924Y752151D01*
Y750878D01*
X931411Y749702D01*
X932311Y748802D01*
X933487Y748315D01*
X934760D01*
X934800Y748288D01*
Y747364D01*
X935287Y746187D01*
X936187Y745287D01*
X937364Y744800D01*
X938636D01*
X938815Y744681D01*
Y743942D01*
X939303Y742766D01*
X940203Y741865D01*
X941379Y741378D01*
X942652D01*
X943828Y741865D01*
X944728Y742766D01*
X945215Y743942D01*
Y745215D01*
X944728Y746391D01*
X943828Y747291D01*
X942652Y747778D01*
X941379D01*
X941200Y747898D01*
Y748636D01*
X940713Y749813D01*
X939813Y750713D01*
X938636Y751200D01*
X937364D01*
X937324Y751227D01*
Y752151D01*
X936836Y753327D01*
X935936Y754228D01*
X934760Y754715D01*
D02*
G37*
G36*
X1431137Y738200D02*
X1429863D01*
X1428687Y737713D01*
X1428403Y737429D01*
X1427750Y736846D01*
X1427097Y737429D01*
X1426813Y737713D01*
X1425636Y738200D01*
X1424364D01*
X1423187Y737713D01*
X1422287Y736813D01*
X1421800Y735637D01*
Y734363D01*
X1422287Y733187D01*
X1423187Y732287D01*
X1424364Y731800D01*
X1425636D01*
X1426813Y732287D01*
X1427097Y732571D01*
X1427750Y733154D01*
X1428403Y732571D01*
X1428687Y732287D01*
X1429863Y731800D01*
X1431137D01*
X1432313Y732287D01*
X1433213Y733187D01*
X1433700Y734363D01*
Y735637D01*
X1433213Y736813D01*
X1432313Y737713D01*
X1431137Y738200D01*
D02*
G37*
G36*
X563387Y743200D02*
X562113D01*
X560937Y742713D01*
X560037Y741813D01*
X559550Y740637D01*
Y739363D01*
X560037Y738187D01*
X560937Y737287D01*
X562113Y736800D01*
X563387D01*
X564563Y737287D01*
X565463Y738187D01*
X565950Y739363D01*
Y740637D01*
X565463Y741813D01*
X564563Y742713D01*
X563387Y743200D01*
D02*
G37*
G36*
X136887D02*
X135613D01*
X134437Y742713D01*
X133537Y741813D01*
X133050Y740637D01*
Y739363D01*
X133537Y738187D01*
X134437Y737287D01*
X135613Y736800D01*
X136887D01*
X138063Y737287D01*
X138963Y738187D01*
X139450Y739363D01*
Y740637D01*
X138963Y741813D01*
X138063Y742713D01*
X136887Y743200D01*
D02*
G37*
G36*
X183636Y742700D02*
X182363D01*
X181187Y742213D01*
X180287Y741313D01*
X179800Y740136D01*
Y738864D01*
X180287Y737687D01*
X181187Y736787D01*
X182363Y736300D01*
X183636D01*
X184813Y736787D01*
X185713Y737687D01*
X186200Y738864D01*
Y740136D01*
X185713Y741313D01*
X184813Y742213D01*
X183636Y742700D01*
D02*
G37*
G36*
X296637Y739200D02*
X295364D01*
X294187Y738713D01*
X293287Y737813D01*
X292800Y736637D01*
Y735363D01*
X293287Y734187D01*
X294187Y733287D01*
X295364Y732800D01*
X296637D01*
X297813Y733287D01*
X298713Y734187D01*
X299200Y735363D01*
Y736637D01*
X298713Y737813D01*
X297813Y738713D01*
X296637Y739200D01*
D02*
G37*
G36*
X1348887Y740700D02*
X1347614D01*
X1346437Y740213D01*
X1345537Y739313D01*
X1345050Y738137D01*
Y736863D01*
X1345537Y735687D01*
X1346437Y734787D01*
X1346553Y734739D01*
X1346630Y734152D01*
X1346608Y733634D01*
X1345787Y732813D01*
X1345300Y731637D01*
Y730363D01*
X1345787Y729187D01*
X1346687Y728287D01*
X1347863Y727800D01*
X1349137D01*
X1350313Y728287D01*
X1351213Y729187D01*
X1351700Y730363D01*
Y731637D01*
X1351213Y732813D01*
X1350313Y733713D01*
X1350197Y733761D01*
X1350120Y734348D01*
X1350142Y734866D01*
X1350963Y735687D01*
X1351450Y736863D01*
Y738137D01*
X1350963Y739313D01*
X1350063Y740213D01*
X1348887Y740700D01*
D02*
G37*
G36*
X274137Y731200D02*
X272864D01*
X271687Y730713D01*
X270787Y729813D01*
X270300Y728636D01*
Y727364D01*
X270787Y726187D01*
X271687Y725287D01*
X272864Y724800D01*
X274137D01*
X275313Y725287D01*
X276213Y726187D01*
X276700Y727364D01*
Y728636D01*
X276213Y729813D01*
X275313Y730713D01*
X274137Y731200D01*
D02*
G37*
G36*
X901234Y729042D02*
X899961D01*
X898785Y728554D01*
X897885Y727654D01*
X897398Y726478D01*
Y725205D01*
X897885Y724029D01*
X898785Y723129D01*
X899961Y722642D01*
X901234D01*
X902410Y723129D01*
X903311Y724029D01*
X903798Y725205D01*
Y726478D01*
X903311Y727654D01*
X902410Y728554D01*
X901234Y729042D01*
D02*
G37*
G36*
X1154886Y728450D02*
X1153614D01*
X1152437Y727963D01*
X1151537Y727063D01*
X1151050Y725887D01*
Y724613D01*
X1151537Y723437D01*
X1152437Y722537D01*
X1153614Y722050D01*
X1154886D01*
X1156063Y722537D01*
X1156963Y723437D01*
X1157450Y724613D01*
Y725887D01*
X1156963Y727063D01*
X1156063Y727963D01*
X1154886Y728450D01*
D02*
G37*
G36*
X56461Y739400D02*
X54039D01*
X51699Y738773D01*
X49601Y737562D01*
X47888Y735849D01*
X46677Y733751D01*
X46050Y731411D01*
Y728989D01*
X46677Y726649D01*
X47888Y724551D01*
X49601Y722838D01*
X51699Y721627D01*
X54039Y721000D01*
X56461D01*
X58801Y721627D01*
X60899Y722838D01*
X62612Y724551D01*
X63823Y726649D01*
X64450Y728989D01*
Y731411D01*
X63823Y733751D01*
X62612Y735849D01*
X60899Y737562D01*
X58801Y738773D01*
X56461Y739400D01*
D02*
G37*
G36*
X165886Y726200D02*
X164613D01*
X163437Y725713D01*
X162537Y724813D01*
X162050Y723636D01*
Y722364D01*
X162537Y721187D01*
X163437Y720287D01*
X164613Y719800D01*
X165886D01*
X167063Y720287D01*
X167963Y721187D01*
X168450Y722364D01*
Y723636D01*
X167963Y724813D01*
X167063Y725713D01*
X165886Y726200D01*
D02*
G37*
G36*
X1126637Y717450D02*
X1125363D01*
X1124187Y716963D01*
X1123750Y716525D01*
X1123313Y716963D01*
X1122137Y717450D01*
X1120863D01*
X1119687Y716963D01*
X1119250Y716525D01*
X1118813Y716963D01*
X1117637Y717450D01*
X1116364D01*
X1115187Y716963D01*
X1114287Y716063D01*
X1113800Y714886D01*
Y713614D01*
X1114287Y712437D01*
X1115187Y711537D01*
X1116364Y711050D01*
X1117637D01*
X1118813Y711537D01*
X1119250Y711974D01*
X1119687Y711537D01*
X1120863Y711050D01*
X1122137D01*
X1123313Y711537D01*
X1123750Y711974D01*
X1124187Y711537D01*
X1125363Y711050D01*
X1126637D01*
X1127813Y711537D01*
X1128713Y712437D01*
X1129200Y713614D01*
Y714886D01*
X1128713Y716063D01*
X1127813Y716963D01*
X1126637Y717450D01*
D02*
G37*
G36*
X312136Y721200D02*
X310863D01*
X309687Y720713D01*
X308787Y719813D01*
X308300Y718636D01*
Y717364D01*
X308787Y716187D01*
X309687Y715287D01*
X310863Y714800D01*
X312136D01*
X313313Y715287D01*
X314213Y716187D01*
X314700Y717364D01*
Y718636D01*
X314213Y719813D01*
X313313Y720713D01*
X312136Y721200D01*
D02*
G37*
G36*
X280886D02*
X279613D01*
X278437Y720713D01*
X277537Y719813D01*
X277050Y718636D01*
Y717364D01*
X277537Y716187D01*
X278437Y715287D01*
X279613Y714800D01*
X280886D01*
X282063Y715287D01*
X282963Y716187D01*
X283450Y717364D01*
Y718636D01*
X282963Y719813D01*
X282063Y720713D01*
X280886Y721200D01*
D02*
G37*
G36*
X1330887Y722450D02*
X1329613D01*
X1328437Y721963D01*
X1327537Y721063D01*
X1327050Y719886D01*
Y718614D01*
X1327537Y717437D01*
X1328437Y716537D01*
X1327867Y715801D01*
X1327629Y715563D01*
X1327142Y714387D01*
Y713113D01*
X1327629Y711937D01*
X1328529Y711037D01*
X1329705Y710550D01*
X1330978D01*
X1332154Y711037D01*
X1333054Y711937D01*
X1333542Y713113D01*
Y714387D01*
X1333054Y715563D01*
X1332154Y716463D01*
X1332724Y717199D01*
X1332963Y717437D01*
X1333450Y718614D01*
Y719886D01*
X1332963Y721063D01*
X1332063Y721963D01*
X1330887Y722450D01*
D02*
G37*
G36*
X113387Y710950D02*
X112114D01*
X110937Y710463D01*
X110037Y709563D01*
X109550Y708387D01*
Y707113D01*
X110037Y705937D01*
X110937Y705037D01*
X112114Y704550D01*
X113387D01*
X114563Y705037D01*
X115463Y705937D01*
X115950Y707113D01*
Y708387D01*
X115463Y709563D01*
X114563Y710463D01*
X113387Y710950D01*
D02*
G37*
G36*
X256512Y707575D02*
X255238D01*
X254062Y707088D01*
X253162Y706188D01*
X252675Y705012D01*
Y703738D01*
X253162Y702562D01*
X254062Y701662D01*
X255238Y701175D01*
X256512D01*
X257688Y701662D01*
X258588Y702562D01*
X259075Y703738D01*
Y705012D01*
X258588Y706188D01*
X257688Y707088D01*
X256512Y707575D01*
D02*
G37*
G36*
X1163132Y711910D02*
X1161368D01*
X1159664Y711453D01*
X1158136Y710571D01*
X1156889Y709324D01*
X1156007Y707796D01*
X1155550Y706092D01*
Y704328D01*
X1156007Y702624D01*
X1156889Y701096D01*
X1158136Y699849D01*
X1159664Y698967D01*
X1161368Y698510D01*
X1163132D01*
X1164836Y698967D01*
X1166364Y699849D01*
X1167611Y701096D01*
X1168493Y702624D01*
X1168950Y704328D01*
Y706092D01*
X1168493Y707796D01*
X1167611Y709324D01*
X1166364Y710571D01*
X1164836Y711453D01*
X1163132Y711910D01*
D02*
G37*
G36*
X195886Y704750D02*
X194613D01*
X193437Y704263D01*
X192537Y703363D01*
X192050Y702186D01*
Y700913D01*
X192537Y699737D01*
X193437Y698837D01*
X194613Y698350D01*
X195886D01*
X197063Y698837D01*
X197963Y699737D01*
X198450Y700913D01*
Y702186D01*
X197963Y703363D01*
X197063Y704263D01*
X195886Y704750D01*
D02*
G37*
G36*
X169886D02*
X168613D01*
X167437Y704263D01*
X166537Y703363D01*
X166050Y702186D01*
Y700913D01*
X166537Y699737D01*
X167437Y698837D01*
X168613Y698350D01*
X169886D01*
X171063Y698837D01*
X171963Y699737D01*
X172450Y700913D01*
Y702186D01*
X171963Y703363D01*
X171063Y704263D01*
X169886Y704750D01*
D02*
G37*
G36*
X304137Y702700D02*
X302864D01*
X301687Y702213D01*
X300787Y701313D01*
X300300Y700136D01*
Y698864D01*
X300787Y697687D01*
X301687Y696787D01*
X302864Y696300D01*
X304137D01*
X305313Y696787D01*
X306213Y697687D01*
X306700Y698864D01*
Y700136D01*
X306213Y701313D01*
X305313Y702213D01*
X304137Y702700D01*
D02*
G37*
G36*
X56461Y714000D02*
X54039D01*
X51699Y713373D01*
X49601Y712162D01*
X47888Y710449D01*
X46677Y708351D01*
X46050Y706011D01*
Y703589D01*
X46677Y701249D01*
X47888Y699151D01*
X49601Y697438D01*
X51699Y696227D01*
X54039Y695600D01*
X56461D01*
X58801Y696227D01*
X60899Y697438D01*
X62612Y699151D01*
X63823Y701249D01*
X64450Y703589D01*
Y706011D01*
X63823Y708351D01*
X62612Y710449D01*
X60899Y712162D01*
X58801Y713373D01*
X56461Y714000D01*
D02*
G37*
G36*
X259887Y697200D02*
X258613D01*
X257437Y696713D01*
X256537Y695813D01*
X256050Y694637D01*
Y693363D01*
X256537Y692187D01*
X257437Y691287D01*
X258613Y690800D01*
X259887D01*
X261063Y691287D01*
X261963Y692187D01*
X262450Y693363D01*
Y694637D01*
X261963Y695813D01*
X261063Y696713D01*
X259887Y697200D01*
D02*
G37*
G36*
X1467211Y704200D02*
X1464789D01*
X1462449Y703573D01*
X1460351Y702362D01*
X1458638Y700649D01*
X1457427Y698551D01*
X1456800Y696211D01*
Y693789D01*
X1457427Y691449D01*
X1458638Y689351D01*
X1460351Y687638D01*
X1462449Y686427D01*
X1464789Y685800D01*
X1467211D01*
X1469551Y686427D01*
X1471649Y687638D01*
X1473362Y689351D01*
X1474573Y691449D01*
X1475200Y693789D01*
Y696211D01*
X1474573Y698551D01*
X1473362Y700649D01*
X1471649Y702362D01*
X1469551Y703573D01*
X1467211Y704200D01*
D02*
G37*
G36*
X1406211D02*
X1403789D01*
X1401449Y703573D01*
X1399351Y702362D01*
X1397638Y700649D01*
X1396427Y698551D01*
X1395800Y696211D01*
Y693789D01*
X1396427Y691449D01*
X1397638Y689351D01*
X1399351Y687638D01*
X1401449Y686427D01*
X1403789Y685800D01*
X1406211D01*
X1408551Y686427D01*
X1410649Y687638D01*
X1412362Y689351D01*
X1413573Y691449D01*
X1414200Y693789D01*
Y696211D01*
X1413573Y698551D01*
X1412362Y700649D01*
X1410649Y702362D01*
X1408551Y703573D01*
X1406211Y704200D01*
D02*
G37*
G36*
X667636Y694200D02*
X666364D01*
X665187Y693713D01*
X664287Y692813D01*
X663800Y691637D01*
Y690363D01*
X664287Y689187D01*
X664975Y688500D01*
X664287Y687813D01*
X663800Y686637D01*
Y685363D01*
X664287Y684187D01*
X664975Y683500D01*
X664287Y682813D01*
X663800Y681637D01*
Y680363D01*
X664287Y679187D01*
X665187Y678287D01*
X666364Y677800D01*
X667636D01*
X668813Y678287D01*
X669713Y679187D01*
X670200Y680363D01*
Y681637D01*
X669713Y682813D01*
X669025Y683500D01*
X669713Y684187D01*
X670200Y685363D01*
Y686637D01*
X669713Y687813D01*
X669025Y688500D01*
X669713Y689187D01*
X670200Y690363D01*
Y691637D01*
X669713Y692813D01*
X668813Y693713D01*
X667636Y694200D01*
D02*
G37*
G36*
X529887Y693200D02*
X528614D01*
X527437Y692713D01*
X526537Y691813D01*
X526050Y690637D01*
Y689363D01*
X526537Y688187D01*
X526975Y687750D01*
X526537Y687313D01*
X526050Y686136D01*
Y684864D01*
X526537Y683687D01*
X526975Y683250D01*
X526537Y682813D01*
X526050Y681637D01*
Y680363D01*
X526537Y679187D01*
X527437Y678287D01*
X528614Y677800D01*
X529887D01*
X531063Y678287D01*
X531963Y679187D01*
X532450Y680363D01*
Y681637D01*
X531963Y682813D01*
X531525Y683250D01*
X531963Y683687D01*
X532450Y684864D01*
Y686136D01*
X531963Y687313D01*
X531525Y687750D01*
X531963Y688187D01*
X532450Y689363D01*
Y690637D01*
X531963Y691813D01*
X531063Y692713D01*
X529887Y693200D01*
D02*
G37*
G36*
X107636Y687450D02*
X106363D01*
X105187Y686963D01*
X104287Y686063D01*
X103800Y684886D01*
Y683614D01*
X104287Y682437D01*
X105010Y681714D01*
X104801Y680880D01*
X104704Y680714D01*
X104680D01*
X103504Y680227D01*
X102604Y679327D01*
X102117Y678151D01*
Y676878D01*
X102604Y675702D01*
X103504Y674802D01*
X104680Y674314D01*
X105953D01*
X107129Y674802D01*
X108029Y675702D01*
X108517Y676878D01*
Y678151D01*
X108029Y679327D01*
X107306Y680050D01*
X107516Y680884D01*
X107613Y681050D01*
X107636D01*
X108813Y681537D01*
X109713Y682437D01*
X110200Y683614D01*
Y684886D01*
X109713Y686063D01*
X108813Y686963D01*
X107636Y687450D01*
D02*
G37*
G36*
X59250Y688702D02*
X51250D01*
X49221Y688298D01*
X47501Y687149D01*
X46352Y685429D01*
X45948Y683400D01*
Y675400D01*
X46352Y673371D01*
X47501Y671651D01*
X49221Y670502D01*
X51250Y670098D01*
X59250D01*
X61279Y670502D01*
X62999Y671651D01*
X64148Y673371D01*
X64552Y675400D01*
Y683400D01*
X64148Y685429D01*
X62999Y687149D01*
X61279Y688298D01*
X59250Y688702D01*
D02*
G37*
G36*
X1117637Y674700D02*
X1116364D01*
X1115187Y674213D01*
X1114287Y673313D01*
X1113800Y672137D01*
Y670863D01*
X1114287Y669687D01*
X1114725Y669250D01*
X1114287Y668813D01*
X1113800Y667636D01*
Y666364D01*
X1114287Y665187D01*
X1115187Y664287D01*
X1116364Y663800D01*
X1117637D01*
X1118813Y664287D01*
X1119375Y664849D01*
X1119937Y664287D01*
X1121114Y663800D01*
X1122386D01*
X1123563Y664287D01*
X1124463Y665187D01*
X1124950Y666364D01*
Y667636D01*
X1124463Y668813D01*
X1123563Y669713D01*
X1122386Y670200D01*
X1121114D01*
X1120986Y670147D01*
X1120200Y670863D01*
Y672137D01*
X1119713Y673313D01*
X1118813Y674213D01*
X1117637Y674700D01*
D02*
G37*
G36*
X1468887Y669553D02*
X1467614D01*
X1466437Y669066D01*
X1465537Y668166D01*
X1465050Y666990D01*
Y665717D01*
X1465537Y664541D01*
X1466437Y663641D01*
X1467614Y663153D01*
X1468887D01*
X1470063Y663641D01*
X1470963Y664541D01*
X1471450Y665717D01*
Y666990D01*
X1470963Y668166D01*
X1470063Y669066D01*
X1468887Y669553D01*
D02*
G37*
G36*
X122387Y660450D02*
X121114D01*
X119937Y659963D01*
X119037Y659063D01*
X118550Y657887D01*
Y656613D01*
X119037Y655437D01*
X119937Y654537D01*
X121114Y654050D01*
X122387D01*
X123563Y654537D01*
X124463Y655437D01*
X124950Y656613D01*
Y657887D01*
X124463Y659063D01*
X123563Y659963D01*
X122387Y660450D01*
D02*
G37*
G36*
X113386D02*
X112114D01*
X110937Y659963D01*
X110037Y659063D01*
X109550Y657887D01*
Y656613D01*
X110037Y655437D01*
X110937Y654537D01*
X112114Y654050D01*
X113386D01*
X114563Y654537D01*
X115463Y655437D01*
X115950Y656613D01*
Y657887D01*
X115463Y659063D01*
X114563Y659963D01*
X113386Y660450D01*
D02*
G37*
G36*
X615887Y659200D02*
X614613D01*
X613437Y658713D01*
X612537Y657813D01*
X612050Y656637D01*
Y655363D01*
X612537Y654187D01*
X613437Y653287D01*
X614613Y652800D01*
X615887D01*
X617063Y653287D01*
X617963Y654187D01*
X618450Y655363D01*
Y656637D01*
X617963Y657813D01*
X617063Y658713D01*
X615887Y659200D01*
D02*
G37*
G36*
X601887D02*
X600614D01*
X599437Y658713D01*
X598537Y657813D01*
X598050Y656637D01*
Y655363D01*
X598537Y654187D01*
X599437Y653287D01*
X600614Y652800D01*
X601887D01*
X603063Y653287D01*
X603963Y654187D01*
X604450Y655363D01*
Y656637D01*
X603963Y657813D01*
X603063Y658713D01*
X601887Y659200D01*
D02*
G37*
G36*
X153886Y664750D02*
X152613D01*
X151437Y664263D01*
X150537Y663363D01*
X150050Y662186D01*
Y660913D01*
X150537Y659737D01*
X151258Y659017D01*
X151314Y658285D01*
X151217Y657846D01*
X150439Y657068D01*
X149952Y655892D01*
Y654619D01*
X150439Y653443D01*
X151339Y652543D01*
X152515Y652055D01*
X153788D01*
X154965Y652543D01*
X155865Y653443D01*
X156352Y654619D01*
Y655892D01*
X155865Y657068D01*
X155144Y657788D01*
X155087Y658520D01*
X155185Y658959D01*
X155963Y659737D01*
X156450Y660913D01*
Y662186D01*
X155963Y663363D01*
X155063Y664263D01*
X153886Y664750D01*
D02*
G37*
G36*
X262887D02*
X261613D01*
X260437Y664263D01*
X259537Y663363D01*
X259050Y662186D01*
Y660913D01*
X259537Y659737D01*
X260322Y658952D01*
X260419Y658544D01*
X260371Y657782D01*
X259655Y657067D01*
X259168Y655891D01*
Y654618D01*
X259655Y653441D01*
X260556Y652541D01*
X261732Y652054D01*
X263005D01*
X264181Y652541D01*
X265081Y653441D01*
X265568Y654618D01*
Y655891D01*
X265081Y657067D01*
X264296Y657851D01*
X264199Y658260D01*
X264247Y659022D01*
X264963Y659737D01*
X265450Y660913D01*
Y662186D01*
X264963Y663363D01*
X264063Y664263D01*
X262887Y664750D01*
D02*
G37*
G36*
X1448500Y674771D02*
X1446359Y674489D01*
X1444365Y673663D01*
X1442652Y672348D01*
X1441337Y670635D01*
X1440511Y668641D01*
X1440229Y666500D01*
Y658500D01*
X1440511Y656359D01*
X1441337Y654365D01*
X1442652Y652652D01*
X1444365Y651337D01*
X1446359Y650511D01*
X1448500Y650229D01*
X1450641Y650511D01*
X1452635Y651337D01*
X1454348Y652652D01*
X1455663Y654365D01*
X1456489Y656359D01*
X1456771Y658500D01*
Y666500D01*
X1456489Y668641D01*
X1455663Y670635D01*
X1454348Y672348D01*
X1452635Y673663D01*
X1450641Y674489D01*
X1448500Y674771D01*
D02*
G37*
G36*
X1422500D02*
X1420359Y674489D01*
X1418365Y673663D01*
X1416652Y672348D01*
X1415337Y670635D01*
X1414511Y668641D01*
X1414229Y666500D01*
Y658500D01*
X1414511Y656359D01*
X1415337Y654365D01*
X1416652Y652652D01*
X1418365Y651337D01*
X1420359Y650511D01*
X1422500Y650229D01*
X1424641Y650511D01*
X1426635Y651337D01*
X1428348Y652652D01*
X1429663Y654365D01*
X1430489Y656359D01*
X1430771Y658500D01*
Y666500D01*
X1430489Y668641D01*
X1429663Y670635D01*
X1428348Y672348D01*
X1426635Y673663D01*
X1424641Y674489D01*
X1422500Y674771D01*
D02*
G37*
G36*
X607636Y654200D02*
X606363D01*
X605187Y653713D01*
X604287Y652813D01*
X603800Y651637D01*
Y650363D01*
X604287Y649187D01*
X605187Y648287D01*
X606363Y647800D01*
X607636D01*
X608813Y648287D01*
X609713Y649187D01*
X610200Y650363D01*
Y651637D01*
X609713Y652813D01*
X608813Y653713D01*
X607636Y654200D01*
D02*
G37*
G36*
X304886Y651200D02*
X303613D01*
X302437Y650713D01*
X301537Y649813D01*
X301050Y648636D01*
Y647364D01*
X301537Y646187D01*
X302437Y645287D01*
X303613Y644800D01*
X304886D01*
X306063Y645287D01*
X306963Y646187D01*
X307450Y647364D01*
Y648636D01*
X306963Y649813D01*
X306063Y650713D01*
X304886Y651200D01*
D02*
G37*
G36*
X154887Y648750D02*
X153614D01*
X152437Y648263D01*
X151537Y647363D01*
X151050Y646186D01*
Y644913D01*
X151537Y643737D01*
X152437Y642837D01*
X153614Y642350D01*
X154887D01*
X156063Y642837D01*
X156963Y643737D01*
X157450Y644913D01*
Y646186D01*
X156963Y647363D01*
X156063Y648263D01*
X154887Y648750D01*
D02*
G37*
G36*
X402316Y648235D02*
X401043D01*
X399867Y647748D01*
X398967Y646848D01*
X398480Y645671D01*
Y644398D01*
X398967Y643222D01*
X399867Y642322D01*
X401043Y641835D01*
X402316D01*
X403492Y642322D01*
X404249Y643079D01*
X404887Y643146D01*
X405410Y643065D01*
X406187Y642287D01*
X407364Y641800D01*
X408637D01*
X409813Y642287D01*
X410713Y643187D01*
X411200Y644363D01*
Y645637D01*
X410713Y646813D01*
X409813Y647713D01*
X408637Y648200D01*
X407364D01*
X406187Y647713D01*
X405430Y646956D01*
X404792Y646889D01*
X404270Y646970D01*
X403492Y647748D01*
X402316Y648235D01*
D02*
G37*
G36*
X492636Y643200D02*
X491363D01*
X490187Y642713D01*
X489287Y641813D01*
X488800Y640637D01*
Y639364D01*
X489287Y638187D01*
X490187Y637287D01*
X491363Y636800D01*
X492636D01*
X493813Y637287D01*
X494713Y638187D01*
X495200Y639364D01*
Y640637D01*
X494713Y641813D01*
X493813Y642713D01*
X492636Y643200D01*
D02*
G37*
G36*
X154004Y640972D02*
X152731D01*
X151555Y640484D01*
X150655Y639584D01*
X150168Y638408D01*
Y637135D01*
X150655Y635959D01*
X151555Y635059D01*
X152731Y634572D01*
X154004D01*
X155181Y635059D01*
X156081Y635959D01*
X156568Y637135D01*
Y638408D01*
X156081Y639584D01*
X155181Y640484D01*
X154004Y640972D01*
D02*
G37*
G36*
X689250Y647002D02*
X681250D01*
X679221Y646598D01*
X677501Y645449D01*
X676352Y643729D01*
X675948Y641700D01*
Y633700D01*
X676352Y631671D01*
X677501Y629951D01*
X679221Y628802D01*
X681250Y628398D01*
X689250D01*
X691279Y628802D01*
X692999Y629951D01*
X694148Y631671D01*
X694552Y633700D01*
Y641700D01*
X694148Y643729D01*
X692999Y645449D01*
X691279Y646598D01*
X689250Y647002D01*
D02*
G37*
G36*
X280886Y621200D02*
X279613D01*
X278437Y620713D01*
X277537Y619813D01*
X277050Y618637D01*
Y617364D01*
X277537Y616187D01*
X278437Y615287D01*
X279613Y614800D01*
X280886D01*
X282063Y615287D01*
X282963Y616187D01*
X283450Y617364D01*
Y618637D01*
X282963Y619813D01*
X282063Y620713D01*
X280886Y621200D01*
D02*
G37*
G36*
X687000Y623737D02*
Y614050D01*
X696687D01*
X695966Y616739D01*
X694452Y619361D01*
X692311Y621502D01*
X689689Y623016D01*
X687000Y623737D01*
D02*
G37*
G36*
X683500D02*
X680811Y623016D01*
X678189Y621502D01*
X676048Y619361D01*
X674534Y616739D01*
X673813Y614050D01*
X683500D01*
Y623737D01*
D02*
G37*
G36*
X339637Y618950D02*
X338363D01*
X337187Y618463D01*
X336287Y617563D01*
X335800Y616386D01*
Y615113D01*
X336287Y613937D01*
X337187Y613037D01*
X338363Y612550D01*
X339637D01*
X340813Y613037D01*
X341713Y613937D01*
X342200Y615113D01*
Y616386D01*
X341713Y617563D01*
X340813Y618463D01*
X339637Y618950D01*
D02*
G37*
G36*
X153886Y618750D02*
X152613D01*
X151437Y618263D01*
X150537Y617363D01*
X150050Y616186D01*
Y614913D01*
X150537Y613737D01*
X151437Y612837D01*
X152613Y612350D01*
X153886D01*
X155063Y612837D01*
X155963Y613737D01*
X156450Y614913D01*
Y616186D01*
X155963Y617363D01*
X155063Y618263D01*
X153886Y618750D01*
D02*
G37*
G36*
X882386Y638750D02*
X881500D01*
Y607000D01*
X913250D01*
Y607887D01*
X912425Y613095D01*
X910796Y618110D01*
X908402Y622808D01*
X905302Y627074D01*
X901574Y630802D01*
X897308Y633902D01*
X892610Y636296D01*
X887595Y637925D01*
X882386Y638750D01*
D02*
G37*
G36*
X878000D02*
X877113D01*
X871905Y637925D01*
X866890Y636296D01*
X862192Y633902D01*
X857926Y630802D01*
X854198Y627074D01*
X851098Y622808D01*
X848704Y618110D01*
X847075Y613095D01*
X846250Y607887D01*
Y607000D01*
X878000D01*
Y638750D01*
D02*
G37*
G36*
X333136Y612950D02*
X331864D01*
X330687Y612463D01*
X329787Y611563D01*
X329300Y610387D01*
Y609114D01*
X329787Y607937D01*
X330687Y607037D01*
X331864Y606550D01*
X333136D01*
X334313Y607037D01*
X335213Y607937D01*
X335700Y609114D01*
Y610387D01*
X335213Y611563D01*
X334313Y612463D01*
X333136Y612950D01*
D02*
G37*
G36*
X487636Y612200D02*
X486363D01*
X485187Y611713D01*
X484287Y610813D01*
X483800Y609636D01*
Y608363D01*
X484287Y607187D01*
X485187Y606287D01*
X486363Y605800D01*
X487636D01*
X488813Y606287D01*
X489713Y607187D01*
X490200Y608363D01*
Y609636D01*
X489713Y610813D01*
X488813Y611713D01*
X487636Y612200D01*
D02*
G37*
G36*
X798483Y626202D02*
X797210D01*
X796034Y625715D01*
X795134Y624815D01*
X794647Y623639D01*
Y622366D01*
X795134Y621190D01*
X796034Y620289D01*
X797210Y619802D01*
X798483D01*
X798535Y619768D01*
Y618809D01*
X799022Y617633D01*
X799922Y616732D01*
X801098Y616245D01*
X802371D01*
X802423Y616211D01*
Y615210D01*
X802910Y614034D01*
X803810Y613134D01*
X804986Y612647D01*
X806259D01*
X806435Y612529D01*
Y611736D01*
X806922Y610560D01*
X807822Y609660D01*
X808998Y609172D01*
X810116D01*
Y607972D01*
X810603Y606796D01*
X811504Y605896D01*
X812680Y605408D01*
X813953D01*
X815129Y605896D01*
X816029Y606796D01*
X816516Y607972D01*
Y609245D01*
X816029Y610421D01*
X815129Y611321D01*
X813953Y611808D01*
X812835D01*
Y613009D01*
X812348Y614185D01*
X811448Y615085D01*
X810272Y615572D01*
X808998D01*
X808823Y615690D01*
Y616483D01*
X808336Y617659D01*
X807436Y618559D01*
X806259Y619047D01*
X804986D01*
X804935Y619081D01*
Y620082D01*
X804448Y621258D01*
X803548Y622158D01*
X802371Y622645D01*
X801098D01*
X801047Y622680D01*
Y623639D01*
X800560Y624815D01*
X799660Y625715D01*
X798483Y626202D01*
D02*
G37*
G36*
X696687Y610550D02*
X687000D01*
Y600863D01*
X689689Y601584D01*
X692311Y603098D01*
X694452Y605239D01*
X695966Y607861D01*
X696687Y610550D01*
D02*
G37*
G36*
X683500D02*
X673813D01*
X674534Y607861D01*
X676048Y605239D01*
X678189Y603098D01*
X680811Y601584D01*
X683500Y600863D01*
Y610550D01*
D02*
G37*
G36*
X417911Y617200D02*
X415489D01*
X413149Y616573D01*
X411051Y615362D01*
X409338Y613649D01*
X408127Y611551D01*
X407500Y609211D01*
Y606789D01*
X408127Y604449D01*
X409338Y602351D01*
X411051Y600638D01*
X413149Y599427D01*
X415489Y598800D01*
X417911D01*
X420251Y599427D01*
X422349Y600638D01*
X424062Y602351D01*
X425273Y604449D01*
X425900Y606789D01*
Y609211D01*
X425273Y611551D01*
X424062Y613649D01*
X422349Y615362D01*
X420251Y616573D01*
X417911Y617200D01*
D02*
G37*
G36*
X395300Y617302D02*
X387300D01*
X385271Y616898D01*
X383551Y615749D01*
X382402Y614029D01*
X381998Y612000D01*
Y604000D01*
X382402Y601971D01*
X383551Y600251D01*
X385271Y599102D01*
X387300Y598698D01*
X395300D01*
X397329Y599102D01*
X399049Y600251D01*
X400198Y601971D01*
X400602Y604000D01*
Y612000D01*
X400198Y614029D01*
X399049Y615749D01*
X397329Y616898D01*
X395300Y617302D01*
D02*
G37*
G36*
X479636Y599200D02*
X478363D01*
X477187Y598713D01*
X476287Y597813D01*
X475800Y596637D01*
Y595364D01*
X476287Y594187D01*
X477187Y593287D01*
X478363Y592800D01*
X479636D01*
X480813Y593287D01*
X481713Y594187D01*
X482200Y595364D01*
Y596637D01*
X481713Y597813D01*
X480813Y598713D01*
X479636Y599200D01*
D02*
G37*
G36*
X245886Y597750D02*
X244613D01*
X243437Y597263D01*
X242537Y596362D01*
X242050Y595186D01*
Y593913D01*
X242537Y592737D01*
X243437Y591837D01*
X244613Y591350D01*
X245886D01*
X247063Y591837D01*
X247963Y592737D01*
X248450Y593913D01*
Y595186D01*
X247963Y596362D01*
X247063Y597263D01*
X245886Y597750D01*
D02*
G37*
G36*
X220886D02*
X219613D01*
X218437Y597263D01*
X217537Y596362D01*
X217050Y595186D01*
Y593913D01*
X217537Y592737D01*
X218437Y591837D01*
X219613Y591350D01*
X220886D01*
X222063Y591837D01*
X222963Y592737D01*
X223450Y593913D01*
Y595186D01*
X222963Y596362D01*
X222063Y597263D01*
X220886Y597750D01*
D02*
G37*
G36*
X209387Y591700D02*
X208113D01*
X206937Y591213D01*
X206037Y590313D01*
X205550Y589137D01*
Y587864D01*
X206037Y586687D01*
X206937Y585787D01*
X208113Y585300D01*
X209387D01*
X210563Y585787D01*
X211463Y586687D01*
X211950Y587864D01*
Y589137D01*
X211463Y590313D01*
X210563Y591213D01*
X209387Y591700D01*
D02*
G37*
G36*
X179387Y590769D02*
X178113D01*
X176937Y590282D01*
X176037Y589382D01*
X175550Y588206D01*
Y586933D01*
X176037Y585757D01*
X176937Y584856D01*
X178113Y584369D01*
X179387D01*
X180563Y584856D01*
X181463Y585757D01*
X181950Y586933D01*
Y588206D01*
X181463Y589382D01*
X180563Y590282D01*
X179387Y590769D01*
D02*
G37*
G36*
X485636Y587200D02*
X484364D01*
X483187Y586713D01*
X482287Y585813D01*
X481800Y584636D01*
Y583363D01*
X482287Y582187D01*
X483187Y581287D01*
X484364Y580800D01*
X485636D01*
X486813Y581287D01*
X487713Y582187D01*
X488200Y583363D01*
Y584636D01*
X487713Y585813D01*
X486813Y586713D01*
X485636Y587200D01*
D02*
G37*
G36*
X194730Y585598D02*
X193456D01*
X192280Y585111D01*
X191380Y584211D01*
X190893Y583035D01*
Y581762D01*
X191380Y580586D01*
X192280Y579686D01*
X193456Y579199D01*
X194730D01*
X195906Y579686D01*
X196806Y580586D01*
X197293Y581762D01*
Y583035D01*
X196806Y584211D01*
X195906Y585111D01*
X194730Y585598D01*
D02*
G37*
G36*
X123886Y584200D02*
X122613D01*
X121437Y583713D01*
X120537Y582813D01*
X120050Y581637D01*
Y580364D01*
X120537Y579187D01*
X121437Y578287D01*
X122613Y577800D01*
X123886D01*
X125063Y578287D01*
X125963Y579187D01*
X126450Y580364D01*
Y581637D01*
X125963Y582813D01*
X125063Y583713D01*
X123886Y584200D01*
D02*
G37*
G36*
X1257137Y581700D02*
X1255863D01*
X1254687Y581213D01*
X1253787Y580313D01*
X1253300Y579137D01*
Y577864D01*
X1253787Y576687D01*
X1254687Y575787D01*
X1255863Y575300D01*
X1257137D01*
X1258313Y575787D01*
X1259213Y576687D01*
X1259700Y577864D01*
Y579137D01*
X1259213Y580313D01*
X1258313Y581213D01*
X1257137Y581700D01*
D02*
G37*
G36*
X240637Y581200D02*
X239363D01*
X238187Y580713D01*
X237287Y579813D01*
X236800Y578637D01*
Y577364D01*
X237287Y576187D01*
X238187Y575287D01*
X239363Y574800D01*
X240637D01*
X241813Y575287D01*
X242713Y576187D01*
X243200Y577364D01*
Y578637D01*
X242713Y579813D01*
X241813Y580713D01*
X240637Y581200D01*
D02*
G37*
G36*
X218137Y578950D02*
X216863D01*
X215687Y578463D01*
X214787Y577563D01*
X214300Y576386D01*
Y575113D01*
X214787Y573937D01*
X215687Y573037D01*
X216863Y572550D01*
X218137D01*
X219313Y573037D01*
X220213Y573937D01*
X220700Y575113D01*
Y576386D01*
X220213Y577563D01*
X219313Y578463D01*
X218137Y578950D01*
D02*
G37*
G36*
X1180429Y587767D02*
X1178773Y587159D01*
X1177472Y585968D01*
X1176722Y584371D01*
X1176678Y583489D01*
X1176678D01*
X1176595Y576650D01*
X1176585Y575748D01*
X1177262Y574076D01*
X1178531Y572793D01*
X1180196Y572098D01*
X1182000Y572098D01*
X1183665Y572793D01*
X1184934Y574075D01*
X1185589Y575693D01*
X1185611Y575747D01*
X1185602Y576650D01*
X1185602Y576650D01*
X1185602Y583146D01*
X1185627Y584027D01*
X1185002Y585677D01*
X1183797Y586966D01*
X1182192Y587699D01*
X1180429Y587767D01*
D02*
G37*
G36*
X913250Y603500D02*
X881500D01*
Y571750D01*
X882386D01*
X887595Y572575D01*
X892610Y574204D01*
X897308Y576598D01*
X901574Y579698D01*
X905302Y583426D01*
X908402Y587692D01*
X910796Y592391D01*
X912425Y597405D01*
X913250Y602613D01*
Y603500D01*
D02*
G37*
G36*
X878000D02*
X846250D01*
Y602613D01*
X847075Y597405D01*
X848704Y592391D01*
X851098Y587692D01*
X854198Y583426D01*
X857926Y579698D01*
X862192Y576598D01*
X866890Y574204D01*
X871905Y572575D01*
X877113Y571750D01*
X878000D01*
Y603500D01*
D02*
G37*
G36*
X541637Y572200D02*
X540364D01*
X539187Y571713D01*
X538287Y570813D01*
X537800Y569636D01*
Y568363D01*
X538287Y567187D01*
X539187Y566287D01*
X540364Y565800D01*
X541637D01*
X542813Y566287D01*
X543713Y567187D01*
X544200Y568363D01*
Y569636D01*
X543713Y570813D01*
X542813Y571713D01*
X541637Y572200D01*
D02*
G37*
G36*
X387636Y570950D02*
X386363D01*
X385187Y570463D01*
X384287Y569563D01*
X383800Y568386D01*
Y567113D01*
X384287Y565937D01*
X385187Y565037D01*
X386363Y564550D01*
X387636D01*
X388813Y565037D01*
X389713Y565937D01*
X390200Y567113D01*
Y568386D01*
X389713Y569563D01*
X388813Y570463D01*
X387636Y570950D01*
D02*
G37*
G36*
X1421250Y572637D02*
Y562950D01*
X1430937D01*
X1430216Y565639D01*
X1428702Y568261D01*
X1426561Y570402D01*
X1423939Y571916D01*
X1421250Y572637D01*
D02*
G37*
G36*
X1417750Y572637D02*
X1415061Y571916D01*
X1412439Y570402D01*
X1410298Y568261D01*
X1408784Y565639D01*
X1408063Y562950D01*
X1417750D01*
Y572637D01*
D02*
G37*
G36*
X1446650Y572637D02*
Y562950D01*
X1456337D01*
X1455616Y565639D01*
X1454102Y568261D01*
X1451961Y570402D01*
X1449339Y571916D01*
X1446650Y572637D01*
D02*
G37*
G36*
X1443150Y572637D02*
X1440461Y571916D01*
X1437839Y570402D01*
X1435698Y568261D01*
X1434184Y565639D01*
X1433463Y562950D01*
X1443150D01*
Y572637D01*
D02*
G37*
G36*
X154321Y577418D02*
X152664Y576811D01*
X151364Y575619D01*
X150614Y574022D01*
X150570Y573141D01*
X150570D01*
X150487Y566301D01*
X150477Y565399D01*
X151154Y563727D01*
X152423Y562444D01*
X154088Y561749D01*
X155892Y561749D01*
X157557Y562444D01*
X158826Y563727D01*
X159481Y565345D01*
X159503Y565399D01*
X159494Y566301D01*
X159493Y566301D01*
X159494Y572797D01*
X159519Y573679D01*
X158894Y575329D01*
X157689Y576617D01*
X156084Y577350D01*
X154321Y577418D01*
D02*
G37*
G36*
X381137Y564700D02*
X379864D01*
X378687Y564213D01*
X377787Y563313D01*
X377300Y562136D01*
Y560863D01*
X377787Y559687D01*
X378687Y558787D01*
X379864Y558300D01*
X381137D01*
X382313Y558787D01*
X383213Y559687D01*
X383700Y560863D01*
Y562136D01*
X383213Y563313D01*
X382313Y564213D01*
X381137Y564700D01*
D02*
G37*
G36*
X1264886Y563950D02*
X1263614D01*
X1262437Y563463D01*
X1261537Y562563D01*
X1261050Y561386D01*
Y560113D01*
X1261537Y558937D01*
X1262437Y558037D01*
X1263614Y557550D01*
X1264886D01*
X1266063Y558037D01*
X1266963Y558937D01*
X1267450Y560113D01*
Y561386D01*
X1266963Y562563D01*
X1266063Y563463D01*
X1264886Y563950D01*
D02*
G37*
G36*
X702387Y559950D02*
X701114D01*
X699937Y559463D01*
X699037Y558563D01*
X698550Y557387D01*
Y556114D01*
X699037Y554937D01*
X699937Y554037D01*
X701114Y553550D01*
X702387D01*
X703563Y554037D01*
X704463Y554937D01*
X704950Y556114D01*
Y557387D01*
X704463Y558563D01*
X703563Y559463D01*
X702387Y559950D01*
D02*
G37*
G36*
X525887D02*
X524613D01*
X523437Y559463D01*
X522537Y558563D01*
X522050Y557387D01*
Y556114D01*
X522537Y554937D01*
X523437Y554037D01*
X524613Y553550D01*
X525887D01*
X527063Y554037D01*
X527963Y554937D01*
X528450Y556114D01*
Y557387D01*
X527963Y558563D01*
X527063Y559463D01*
X525887Y559950D01*
D02*
G37*
G36*
X1088637Y559700D02*
X1087364D01*
X1086187Y559213D01*
X1085287Y558313D01*
X1084800Y557136D01*
Y555863D01*
X1085287Y554687D01*
X1086187Y553787D01*
X1087364Y553300D01*
X1088637D01*
X1089813Y553787D01*
X1090713Y554687D01*
X1091200Y555863D01*
Y557136D01*
X1090713Y558313D01*
X1089813Y559213D01*
X1088637Y559700D01*
D02*
G37*
G36*
X1443150Y559450D02*
X1433463D01*
X1434184Y556761D01*
X1435698Y554139D01*
X1437839Y551998D01*
X1440461Y550484D01*
X1443150Y549763D01*
Y559450D01*
D02*
G37*
G36*
X1417750Y559450D02*
X1408063D01*
X1408784Y556761D01*
X1410298Y554139D01*
X1412439Y551998D01*
X1415061Y550484D01*
X1417750Y549763D01*
Y559450D01*
D02*
G37*
G36*
X1430937D02*
X1421250D01*
Y549763D01*
X1423939Y550484D01*
X1426561Y551998D01*
X1428702Y554139D01*
X1430216Y556761D01*
X1430937Y559450D01*
D02*
G37*
G36*
X1456337Y559450D02*
X1446650D01*
Y549763D01*
X1449339Y550484D01*
X1451961Y551998D01*
X1454102Y554139D01*
X1455616Y556761D01*
X1456337Y559450D01*
D02*
G37*
G36*
X125886Y554450D02*
X124614D01*
X123437Y553963D01*
X122537Y553063D01*
X122050Y551886D01*
Y550614D01*
X122537Y549437D01*
X123437Y548537D01*
X124614Y548050D01*
X125886D01*
X127063Y548537D01*
X127963Y549437D01*
X128450Y550614D01*
Y551886D01*
X127963Y553063D01*
X127063Y553963D01*
X125886Y554450D01*
D02*
G37*
G36*
X210137Y554200D02*
X208864D01*
X207687Y553713D01*
X206787Y552813D01*
X206300Y551637D01*
Y550364D01*
X206787Y549187D01*
X207687Y548287D01*
X208864Y547800D01*
X210137D01*
X211313Y548287D01*
X212213Y549187D01*
X212700Y550364D01*
Y551637D01*
X212213Y552813D01*
X211313Y553713D01*
X210137Y554200D01*
D02*
G37*
G36*
X119887Y548950D02*
X118614D01*
X117437Y548463D01*
X116537Y547563D01*
X116050Y546386D01*
Y545113D01*
X116537Y543937D01*
X117437Y543037D01*
X118614Y542550D01*
X119887D01*
X121063Y543037D01*
X121963Y543937D01*
X122450Y545113D01*
Y546386D01*
X121963Y547563D01*
X121063Y548463D01*
X119887Y548950D01*
D02*
G37*
G36*
X702636Y548200D02*
X701364D01*
X700187Y547713D01*
X699287Y546813D01*
X698800Y545636D01*
Y544364D01*
X699287Y543187D01*
X700187Y542287D01*
X701364Y541800D01*
X702636D01*
X703813Y542287D01*
X704713Y543187D01*
X705200Y544364D01*
Y545636D01*
X704713Y546813D01*
X703813Y547713D01*
X702636Y548200D01*
D02*
G37*
G36*
X525887D02*
X524613D01*
X523437Y547713D01*
X522537Y546813D01*
X522050Y545636D01*
Y544364D01*
X522537Y543187D01*
X523437Y542287D01*
X524613Y541800D01*
X525887D01*
X527063Y542287D01*
X527963Y543187D01*
X528450Y544364D01*
Y545636D01*
X527963Y546813D01*
X527063Y547713D01*
X525887Y548200D01*
D02*
G37*
G36*
X1421250Y547237D02*
Y537550D01*
X1430937D01*
X1430216Y540239D01*
X1428702Y542861D01*
X1426561Y545002D01*
X1423939Y546516D01*
X1421250Y547237D01*
D02*
G37*
G36*
X1417750Y547237D02*
X1415061Y546516D01*
X1412439Y545002D01*
X1410298Y542861D01*
X1408784Y540239D01*
X1408063Y537550D01*
X1417750D01*
Y547237D01*
D02*
G37*
G36*
X1446650Y547237D02*
Y537550D01*
X1456337D01*
X1455616Y540239D01*
X1454102Y542861D01*
X1451961Y545002D01*
X1449339Y546516D01*
X1446650Y547237D01*
D02*
G37*
G36*
X1443150D02*
X1440461Y546516D01*
X1437839Y545002D01*
X1435698Y542861D01*
X1434184Y540239D01*
X1433463Y537550D01*
X1443150D01*
Y547237D01*
D02*
G37*
G36*
X516637Y542200D02*
X515364D01*
X514187Y541713D01*
X513287Y540813D01*
X512800Y539636D01*
Y538363D01*
X513287Y537187D01*
X514187Y536287D01*
X515364Y535800D01*
X516637D01*
X517813Y536287D01*
X518713Y537187D01*
X519200Y538363D01*
Y539636D01*
X518713Y540813D01*
X517813Y541713D01*
X516637Y542200D01*
D02*
G37*
G36*
X452636D02*
X451363D01*
X450187Y541713D01*
X449287Y540813D01*
X448800Y539636D01*
Y538363D01*
X449287Y537187D01*
X450187Y536287D01*
X451363Y535800D01*
X452636D01*
X453813Y536287D01*
X454713Y537187D01*
X455200Y538363D01*
Y539636D01*
X454713Y540813D01*
X453813Y541713D01*
X452636Y542200D01*
D02*
G37*
G36*
X1089637Y541700D02*
X1088363D01*
X1087187Y541213D01*
X1086287Y540313D01*
X1085800Y539137D01*
Y537864D01*
X1086287Y536687D01*
X1087187Y535787D01*
X1088363Y535300D01*
X1089637D01*
X1090813Y535787D01*
X1091713Y536687D01*
X1092200Y537864D01*
Y539137D01*
X1091713Y540313D01*
X1090813Y541213D01*
X1089637Y541700D01*
D02*
G37*
G36*
X511637Y536200D02*
X510364D01*
X509187Y535713D01*
X508287Y534813D01*
X507800Y533637D01*
Y532364D01*
X508287Y531187D01*
X509187Y530287D01*
X510364Y529800D01*
X511637D01*
X512813Y530287D01*
X513713Y531187D01*
X514200Y532364D01*
Y533637D01*
X513713Y534813D01*
X512813Y535713D01*
X511637Y536200D01*
D02*
G37*
G36*
X1417750Y534050D02*
X1408063D01*
X1408784Y531361D01*
X1410298Y528739D01*
X1412439Y526598D01*
X1415061Y525084D01*
X1417750Y524363D01*
Y534050D01*
D02*
G37*
G36*
X1456337Y534050D02*
X1446650D01*
Y524363D01*
X1449339Y525084D01*
X1451961Y526598D01*
X1454102Y528739D01*
X1455616Y531361D01*
X1456337Y534050D01*
D02*
G37*
G36*
X1443150D02*
X1433463D01*
X1434184Y531361D01*
X1435698Y528739D01*
X1437839Y526598D01*
X1440461Y525084D01*
X1443150Y524363D01*
Y534050D01*
D02*
G37*
G36*
X1430937Y534050D02*
X1421250D01*
Y524363D01*
X1423939Y525084D01*
X1426561Y526598D01*
X1428702Y528739D01*
X1430216Y531361D01*
X1430937Y534050D01*
D02*
G37*
G36*
X506357Y530596D02*
X505084D01*
X503908Y530108D01*
X503008Y529208D01*
X502520Y528032D01*
Y526759D01*
X503008Y525583D01*
X503908Y524683D01*
X505084Y524196D01*
X506357D01*
X507533Y524683D01*
X508433Y525583D01*
X508920Y526759D01*
Y528032D01*
X508433Y529208D01*
X507533Y530108D01*
X506357Y530596D01*
D02*
G37*
G36*
X501218Y523996D02*
X499945D01*
X498769Y523509D01*
X497869Y522609D01*
X497382Y521432D01*
Y520159D01*
X497869Y518983D01*
X498769Y518083D01*
X499945Y517596D01*
X501218D01*
X502394Y518083D01*
X503295Y518983D01*
X503782Y520159D01*
Y521432D01*
X503295Y522609D01*
X502394Y523509D01*
X501218Y523996D01*
D02*
G37*
G36*
X265886Y520700D02*
X264613D01*
X263437Y520213D01*
X262537Y519313D01*
X262050Y518136D01*
Y516864D01*
X262537Y515687D01*
X263437Y514787D01*
X264613Y514300D01*
X265886D01*
X267063Y514787D01*
X267963Y515687D01*
X268450Y516864D01*
Y518136D01*
X267963Y519313D01*
X267063Y520213D01*
X265886Y520700D01*
D02*
G37*
G36*
X84628Y512402D02*
X83355D01*
X82179Y511915D01*
X81279Y511015D01*
X80792Y509838D01*
Y508565D01*
X81279Y507389D01*
X82179Y506489D01*
X83355Y506002D01*
X84628D01*
X85805Y506489D01*
X86393Y507078D01*
X87212Y507175D01*
X87624Y507002D01*
X88325Y506301D01*
X89501Y505813D01*
X90774D01*
X91950Y506301D01*
X92850Y507201D01*
X93337Y508377D01*
Y509650D01*
X92850Y510826D01*
X91950Y511726D01*
X90774Y512214D01*
X89501D01*
X88325Y511726D01*
X87736Y511138D01*
X86917Y511040D01*
X86506Y511214D01*
X85805Y511915D01*
X84628Y512402D01*
D02*
G37*
G36*
X71837Y512150D02*
X70564D01*
X69387Y511663D01*
X68487Y510763D01*
X68000Y509586D01*
Y508313D01*
X68487Y507137D01*
X69387Y506237D01*
X70564Y505750D01*
X71837D01*
X73013Y506237D01*
X73913Y507137D01*
X74400Y508313D01*
Y509586D01*
X73913Y510763D01*
X73013Y511663D01*
X71837Y512150D01*
D02*
G37*
G36*
X1446111Y519600D02*
X1443689D01*
X1441349Y518973D01*
X1439251Y517762D01*
X1437538Y516049D01*
X1436327Y513951D01*
X1435700Y511611D01*
Y509189D01*
X1436327Y506849D01*
X1437538Y504751D01*
X1439251Y503038D01*
X1441349Y501827D01*
X1443689Y501200D01*
X1446111D01*
X1448451Y501827D01*
X1450549Y503038D01*
X1452262Y504751D01*
X1453473Y506849D01*
X1454100Y509189D01*
Y511611D01*
X1453473Y513951D01*
X1452262Y516049D01*
X1450549Y517762D01*
X1448451Y518973D01*
X1446111Y519600D01*
D02*
G37*
G36*
X1420711D02*
X1418289D01*
X1415949Y518973D01*
X1413851Y517762D01*
X1412138Y516049D01*
X1410927Y513951D01*
X1410300Y511611D01*
Y509189D01*
X1410927Y506849D01*
X1412138Y504751D01*
X1413851Y503038D01*
X1415949Y501827D01*
X1418289Y501200D01*
X1420711D01*
X1423051Y501827D01*
X1425149Y503038D01*
X1426862Y504751D01*
X1428073Y506849D01*
X1428700Y509189D01*
Y511611D01*
X1428073Y513951D01*
X1426862Y516049D01*
X1425149Y517762D01*
X1423051Y518973D01*
X1420711Y519600D01*
D02*
G37*
G36*
X1163461Y514410D02*
X1161039D01*
X1158699Y513783D01*
X1156601Y512572D01*
X1154888Y510859D01*
X1153677Y508761D01*
X1153050Y506421D01*
Y503999D01*
X1153677Y501659D01*
X1154888Y499561D01*
X1156601Y497848D01*
X1158699Y496637D01*
X1161039Y496010D01*
X1163461D01*
X1165801Y496637D01*
X1167899Y497848D01*
X1169612Y499561D01*
X1170823Y501659D01*
X1171450Y503999D01*
Y506421D01*
X1170823Y508761D01*
X1169612Y510859D01*
X1167899Y512572D01*
X1165801Y513783D01*
X1163461Y514410D01*
D02*
G37*
G36*
X214886Y488200D02*
X213613D01*
X212437Y487713D01*
X211537Y486813D01*
X211050Y485636D01*
Y484364D01*
X211537Y483187D01*
X212437Y482287D01*
X213613Y481800D01*
X214886D01*
X216063Y482287D01*
X216963Y483187D01*
X217450Y484364D01*
Y485636D01*
X216963Y486813D01*
X216063Y487713D01*
X214886Y488200D01*
D02*
G37*
G36*
X148386D02*
X147114D01*
X145937Y487713D01*
X145037Y486813D01*
X144550Y485636D01*
Y484364D01*
X145037Y483187D01*
X145937Y482287D01*
X147114Y481800D01*
X148386D01*
X149563Y482287D01*
X150463Y483187D01*
X150950Y484364D01*
Y485636D01*
X150463Y486813D01*
X149563Y487713D01*
X148386Y488200D01*
D02*
G37*
G36*
X1446111Y494200D02*
X1443689D01*
X1441349Y493573D01*
X1439251Y492362D01*
X1437538Y490649D01*
X1436327Y488551D01*
X1435700Y486211D01*
Y483789D01*
X1436327Y481449D01*
X1437538Y479351D01*
X1439251Y477638D01*
X1441349Y476427D01*
X1443689Y475800D01*
X1446111D01*
X1448451Y476427D01*
X1450549Y477638D01*
X1452262Y479351D01*
X1453473Y481449D01*
X1454100Y483789D01*
Y486211D01*
X1453473Y488551D01*
X1452262Y490649D01*
X1450549Y492362D01*
X1448451Y493573D01*
X1446111Y494200D01*
D02*
G37*
G36*
X1420711D02*
X1418289D01*
X1415949Y493573D01*
X1413851Y492362D01*
X1412138Y490649D01*
X1410927Y488551D01*
X1410300Y486211D01*
Y483789D01*
X1410927Y481449D01*
X1412138Y479351D01*
X1413851Y477638D01*
X1415949Y476427D01*
X1418289Y475800D01*
X1420711D01*
X1423051Y476427D01*
X1425149Y477638D01*
X1426862Y479351D01*
X1428073Y481449D01*
X1428700Y483789D01*
Y486211D01*
X1428073Y488551D01*
X1426862Y490649D01*
X1425149Y492362D01*
X1423051Y493573D01*
X1420711Y494200D01*
D02*
G37*
G36*
X148386Y478200D02*
X147114D01*
X145937Y477713D01*
X145037Y476813D01*
X144550Y475636D01*
Y474364D01*
X145037Y473187D01*
X145937Y472287D01*
X147114Y471800D01*
X148386D01*
X149563Y472287D01*
X150463Y473187D01*
X150950Y474364D01*
Y475636D01*
X150463Y476813D01*
X149563Y477713D01*
X148386Y478200D01*
D02*
G37*
G36*
X197136Y477950D02*
X195863D01*
X194687Y477463D01*
X193787Y476563D01*
X193300Y475387D01*
Y474114D01*
X193787Y472937D01*
X194687Y472037D01*
X195863Y471550D01*
X197136D01*
X198313Y472037D01*
X199213Y472937D01*
X199700Y474114D01*
Y475387D01*
X199213Y476563D01*
X198313Y477463D01*
X197136Y477950D01*
D02*
G37*
G36*
X198636Y468200D02*
X197363D01*
X196187Y467713D01*
X195287Y466813D01*
X194800Y465636D01*
Y464364D01*
X195287Y463187D01*
X196187Y462287D01*
X197363Y461800D01*
X198636D01*
X199813Y462287D01*
X200713Y463187D01*
X201200Y464364D01*
Y465636D01*
X200713Y466813D01*
X199813Y467713D01*
X198636Y468200D01*
D02*
G37*
G36*
X148386D02*
X147114D01*
X145937Y467713D01*
X145037Y466813D01*
X144550Y465636D01*
Y464364D01*
X145037Y463187D01*
X145937Y462287D01*
X147114Y461800D01*
X148386D01*
X149563Y462287D01*
X150463Y463187D01*
X150950Y464364D01*
Y465636D01*
X150463Y466813D01*
X149563Y467713D01*
X148386Y468200D01*
D02*
G37*
G36*
X1446650Y471037D02*
Y461350D01*
X1456337D01*
X1455616Y464039D01*
X1454102Y466661D01*
X1451961Y468802D01*
X1449339Y470316D01*
X1446650Y471037D01*
D02*
G37*
G36*
X1443150D02*
X1440461Y470316D01*
X1437839Y468802D01*
X1435698Y466661D01*
X1434184Y464039D01*
X1433463Y461350D01*
X1443150D01*
Y471037D01*
D02*
G37*
G36*
X1287312Y459626D02*
X1286039D01*
X1284863Y459139D01*
X1283963Y458239D01*
X1283476Y457062D01*
Y455789D01*
X1283963Y454613D01*
X1284863Y453713D01*
X1286039Y453226D01*
X1287312D01*
X1288489Y453713D01*
X1289389Y454613D01*
X1289876Y455789D01*
Y457062D01*
X1289389Y458239D01*
X1288489Y459139D01*
X1287312Y459626D01*
D02*
G37*
G36*
X205887Y458450D02*
X204613D01*
X203437Y457963D01*
X202537Y457063D01*
X202050Y455886D01*
Y454613D01*
X202537Y453437D01*
X203437Y452537D01*
X204613Y452050D01*
X205887D01*
X207063Y452537D01*
X207963Y453437D01*
X208450Y454613D01*
Y455886D01*
X207963Y457063D01*
X207063Y457963D01*
X205887Y458450D01*
D02*
G37*
G36*
X148386Y458200D02*
X147114D01*
X145937Y457713D01*
X145037Y456813D01*
X144550Y455636D01*
Y454364D01*
X145037Y453187D01*
X145937Y452287D01*
X147114Y451800D01*
X148386D01*
X149563Y452287D01*
X150463Y453187D01*
X150950Y454364D01*
Y455636D01*
X150463Y456813D01*
X149563Y457713D01*
X148386Y458200D01*
D02*
G37*
G36*
X1305149Y456937D02*
X1303876D01*
X1302700Y456450D01*
X1301800Y455550D01*
X1301313Y454374D01*
Y453101D01*
X1301800Y451925D01*
X1302700Y451025D01*
X1303876Y450537D01*
X1305149D01*
X1306325Y451025D01*
X1307225Y451925D01*
X1307713Y453101D01*
Y454374D01*
X1307225Y455550D01*
X1306325Y456450D01*
X1305149Y456937D01*
D02*
G37*
G36*
X1420711Y468800D02*
X1418289D01*
X1415949Y468173D01*
X1413851Y466962D01*
X1412138Y465249D01*
X1410927Y463151D01*
X1410300Y460811D01*
Y458389D01*
X1410927Y456049D01*
X1412138Y453951D01*
X1413851Y452238D01*
X1415949Y451027D01*
X1418289Y450400D01*
X1420711D01*
X1423051Y451027D01*
X1425149Y452238D01*
X1426862Y453951D01*
X1428073Y456049D01*
X1428700Y458389D01*
Y460811D01*
X1428073Y463151D01*
X1426862Y465249D01*
X1425149Y466962D01*
X1423051Y468173D01*
X1420711Y468800D01*
D02*
G37*
G36*
X1456337Y457850D02*
X1446650D01*
Y448163D01*
X1449339Y448884D01*
X1451961Y450398D01*
X1454102Y452539D01*
X1455616Y455161D01*
X1456337Y457850D01*
D02*
G37*
G36*
X1443150D02*
X1433463D01*
X1434184Y455161D01*
X1435698Y452539D01*
X1437839Y450398D01*
X1440461Y448884D01*
X1443150Y448163D01*
Y457850D01*
D02*
G37*
G36*
X273637Y453700D02*
X272363D01*
X271187Y453213D01*
X270287Y452313D01*
X269800Y451137D01*
Y449864D01*
X270287Y448687D01*
X271187Y447787D01*
X272363Y447300D01*
X273637D01*
X274813Y447787D01*
X275713Y448687D01*
X276200Y449864D01*
Y451137D01*
X275713Y452313D01*
X274813Y453213D01*
X273637Y453700D01*
D02*
G37*
G36*
X208137Y449700D02*
X206863D01*
X205687Y449213D01*
X204787Y448313D01*
X204300Y447136D01*
Y445863D01*
X204787Y444687D01*
X205687Y443787D01*
X206863Y443300D01*
X208137D01*
X209313Y443787D01*
X210213Y444687D01*
X210700Y445863D01*
Y447136D01*
X210213Y448313D01*
X209313Y449213D01*
X208137Y449700D01*
D02*
G37*
G36*
X148386Y448200D02*
X147114D01*
X145937Y447713D01*
X145037Y446813D01*
X144550Y445636D01*
Y444364D01*
X145037Y443187D01*
X145937Y442287D01*
X147114Y441800D01*
X148386D01*
X149563Y442287D01*
X150463Y443187D01*
X150950Y444364D01*
Y445636D01*
X150463Y446813D01*
X149563Y447713D01*
X148386Y448200D01*
D02*
G37*
G36*
X224399Y437523D02*
X222727Y436846D01*
X221444Y435577D01*
X220750Y433912D01*
X220749Y432108D01*
X221444Y430443D01*
X222727Y429174D01*
X224399Y428497D01*
X225301Y428507D01*
X231797Y428506D01*
X232679Y428481D01*
X234329Y429106D01*
X235617Y430311D01*
X236350Y431916D01*
X236418Y433679D01*
X235811Y435336D01*
X234619Y436636D01*
X233022Y437386D01*
X232141Y437430D01*
Y437430D01*
X225301Y437513D01*
X224399Y437523D01*
D02*
G37*
G36*
X1420711Y443400D02*
X1418289D01*
X1415949Y442773D01*
X1413851Y441562D01*
X1412138Y439849D01*
X1410927Y437751D01*
X1410300Y435411D01*
Y432989D01*
X1410927Y430649D01*
X1412138Y428551D01*
X1413851Y426838D01*
X1415949Y425627D01*
X1418289Y425000D01*
X1420711D01*
X1423051Y425627D01*
X1425149Y426838D01*
X1426862Y428551D01*
X1428073Y430649D01*
X1428700Y432989D01*
Y435411D01*
X1428073Y437751D01*
X1426862Y439849D01*
X1425149Y441562D01*
X1423051Y442773D01*
X1420711Y443400D01*
D02*
G37*
G36*
X1448900Y443502D02*
X1440900D01*
X1438871Y443098D01*
X1437151Y441949D01*
X1436002Y440229D01*
X1435598Y438200D01*
Y430200D01*
X1436002Y428171D01*
X1437151Y426451D01*
X1438871Y425302D01*
X1440900Y424898D01*
X1448900D01*
X1450929Y425302D01*
X1452649Y426451D01*
X1453798Y428171D01*
X1454202Y430200D01*
Y438200D01*
X1453798Y440229D01*
X1452649Y441949D01*
X1450929Y443098D01*
X1448900Y443502D01*
D02*
G37*
G36*
X83461Y439900D02*
X81039D01*
X78699Y439273D01*
X76601Y438062D01*
X74888Y436349D01*
X73677Y434251D01*
X73050Y431911D01*
Y429489D01*
X73677Y427149D01*
X74888Y425051D01*
X76601Y423338D01*
X78699Y422127D01*
X81039Y421500D01*
X83461D01*
X85801Y422127D01*
X87899Y423338D01*
X89612Y425051D01*
X90823Y427149D01*
X91450Y429489D01*
Y431911D01*
X90823Y434251D01*
X89612Y436349D01*
X87899Y438062D01*
X85801Y439273D01*
X83461Y439900D01*
D02*
G37*
G36*
X255613Y429450D02*
X253388D01*
X251238Y428874D01*
X249312Y427762D01*
X247738Y426189D01*
X246626Y424262D01*
X246050Y422113D01*
Y419888D01*
X246626Y417738D01*
X247738Y415812D01*
X249312Y414238D01*
X251238Y413126D01*
X253388Y412550D01*
X255613D01*
X257762Y413126D01*
X259688Y414238D01*
X261262Y415812D01*
X262374Y417738D01*
X262950Y419888D01*
Y422113D01*
X262374Y424262D01*
X261262Y426189D01*
X259688Y427762D01*
X257762Y428874D01*
X255613Y429450D01*
D02*
G37*
G36*
X207612D02*
X205388D01*
X203239Y428874D01*
X201312Y427762D01*
X199738Y426189D01*
X198626Y424262D01*
X198050Y422113D01*
Y419888D01*
X198626Y417738D01*
X199738Y415812D01*
X201312Y414238D01*
X203239Y413126D01*
X205388Y412550D01*
X207612D01*
X209762Y413126D01*
X211688Y414238D01*
X213262Y415812D01*
X214374Y417738D01*
X214950Y419888D01*
Y422113D01*
X214374Y424262D01*
X213262Y426189D01*
X211688Y427762D01*
X209762Y428874D01*
X207612Y429450D01*
D02*
G37*
G36*
X159613D02*
X157388D01*
X155238Y428874D01*
X153312Y427762D01*
X151738Y426189D01*
X150626Y424262D01*
X150050Y422113D01*
Y419888D01*
X150626Y417738D01*
X151738Y415812D01*
X153312Y414238D01*
X155238Y413126D01*
X157388Y412550D01*
X159613D01*
X161762Y413126D01*
X163689Y414238D01*
X165262Y415812D01*
X166374Y417738D01*
X166950Y419888D01*
Y422113D01*
X166374Y424262D01*
X165262Y426189D01*
X163689Y427762D01*
X161762Y428874D01*
X159613Y429450D01*
D02*
G37*
G36*
X318636Y405450D02*
X317363D01*
X316187Y404963D01*
X315287Y404063D01*
X314800Y402887D01*
Y401614D01*
X315287Y400437D01*
X316187Y399537D01*
X317363Y399050D01*
X318636D01*
X319813Y399537D01*
X320713Y400437D01*
X321200Y401614D01*
Y402887D01*
X320713Y404063D01*
X319813Y404963D01*
X318636Y405450D01*
D02*
G37*
G36*
X86250Y414602D02*
X78250D01*
X76221Y414198D01*
X74501Y413049D01*
X73352Y411329D01*
X72948Y409300D01*
Y401300D01*
X73352Y399271D01*
X74501Y397551D01*
X76221Y396402D01*
X78250Y395998D01*
X86250D01*
X88279Y396402D01*
X89999Y397551D01*
X91148Y399271D01*
X91552Y401300D01*
Y409300D01*
X91148Y411329D01*
X89999Y413049D01*
X88279Y414198D01*
X86250Y414602D01*
D02*
G37*
G36*
X278961Y409200D02*
X276539D01*
X274199Y408573D01*
X272101Y407362D01*
X270388Y405649D01*
X269177Y403551D01*
X268550Y401211D01*
Y398789D01*
X269177Y396449D01*
X270388Y394351D01*
X272101Y392638D01*
X274199Y391427D01*
X276539Y390800D01*
X278961D01*
X281301Y391427D01*
X283399Y392638D01*
X285112Y394351D01*
X286323Y396449D01*
X286950Y398789D01*
Y401211D01*
X286323Y403551D01*
X285112Y405649D01*
X283399Y407362D01*
X281301Y408573D01*
X278961Y409200D01*
D02*
G37*
G36*
X335887Y384950D02*
X334613D01*
X333437Y384463D01*
X332537Y383563D01*
X332050Y382387D01*
Y381114D01*
X332537Y379937D01*
X333437Y379037D01*
X334613Y378550D01*
X335887D01*
X337063Y379037D01*
X337963Y379937D01*
X338450Y381114D01*
Y382387D01*
X337963Y383563D01*
X337063Y384463D01*
X335887Y384950D01*
D02*
G37*
G36*
X191887Y382200D02*
X190613D01*
X189437Y381713D01*
X188537Y380813D01*
X188050Y379636D01*
Y378363D01*
X188537Y377187D01*
X189437Y376287D01*
X190613Y375800D01*
X191887D01*
X193063Y376287D01*
X193963Y377187D01*
X194450Y378363D01*
Y379636D01*
X193963Y380813D01*
X193063Y381713D01*
X191887Y382200D01*
D02*
G37*
G36*
X444636Y374200D02*
X443363D01*
X442187Y373713D01*
X441500Y373026D01*
X440813Y373713D01*
X439636Y374200D01*
X438363D01*
X437187Y373713D01*
X436500Y373025D01*
X435813Y373713D01*
X434636Y374200D01*
X433363D01*
X432187Y373713D01*
X431500Y373026D01*
X430813Y373713D01*
X429636Y374200D01*
X428363D01*
X427187Y373713D01*
X426287Y372813D01*
X425800Y371637D01*
Y370364D01*
X426287Y369187D01*
X426975Y368500D01*
X426287Y367813D01*
X425800Y366637D01*
Y365364D01*
X426287Y364187D01*
X426974Y363500D01*
X426287Y362813D01*
X425800Y361637D01*
Y360364D01*
X426287Y359187D01*
X426975Y358500D01*
X426287Y357813D01*
X425800Y356637D01*
Y355363D01*
X426287Y354187D01*
X426974Y353500D01*
X426287Y352813D01*
X425800Y351637D01*
Y350364D01*
X426287Y349187D01*
X426974Y348500D01*
X426287Y347813D01*
X425800Y346637D01*
Y345364D01*
X426287Y344187D01*
X426975Y343500D01*
X426287Y342813D01*
X425800Y341637D01*
Y340364D01*
X426287Y339187D01*
X427187Y338287D01*
X428363Y337800D01*
X429636D01*
X430813Y338287D01*
X431500Y338974D01*
X432187Y338287D01*
X433363Y337800D01*
X434636D01*
X435813Y338287D01*
X436500Y338974D01*
X437187Y338287D01*
X438363Y337800D01*
X439636D01*
X440813Y338287D01*
X441500Y338974D01*
X442187Y338287D01*
X443363Y337800D01*
X444636D01*
X445813Y338287D01*
X446713Y339187D01*
X447200Y340364D01*
Y341637D01*
X446713Y342813D01*
X446026Y343500D01*
X446713Y344187D01*
X447200Y345364D01*
Y346637D01*
X446713Y347813D01*
X446026Y348500D01*
X446713Y349187D01*
X447200Y350364D01*
Y351637D01*
X446713Y352813D01*
X446026Y353500D01*
X446713Y354187D01*
X447200Y355363D01*
Y356637D01*
X446713Y357813D01*
X446026Y358500D01*
X446713Y359187D01*
X447200Y360364D01*
Y361637D01*
X446713Y362813D01*
X446026Y363500D01*
X446713Y364187D01*
X447200Y365364D01*
Y366637D01*
X446713Y367813D01*
X446026Y368500D01*
X446713Y369187D01*
X447200Y370364D01*
Y371637D01*
X446713Y372813D01*
X445813Y373713D01*
X444636Y374200D01*
D02*
G37*
G36*
X1204886Y373937D02*
X1203614D01*
X1202437Y373450D01*
X1201537Y372550D01*
X1201050Y371374D01*
Y370101D01*
X1201537Y368925D01*
X1202437Y368024D01*
X1203614Y367537D01*
X1204886D01*
X1206063Y368024D01*
X1206963Y368925D01*
X1207450Y370101D01*
Y371374D01*
X1206963Y372550D01*
X1206063Y373450D01*
X1204886Y373937D01*
D02*
G37*
G36*
X278862Y383450D02*
X276638D01*
X274489Y382874D01*
X272562Y381762D01*
X270988Y380188D01*
X269876Y378262D01*
X269300Y376113D01*
Y373887D01*
X269876Y371738D01*
X270988Y369812D01*
X272562Y368238D01*
X274489Y367126D01*
X276638Y366550D01*
X278862D01*
X281012Y367126D01*
X282938Y368238D01*
X284512Y369812D01*
X285624Y371738D01*
X286200Y373887D01*
Y376113D01*
X285624Y378262D01*
X284512Y380188D01*
X282938Y381762D01*
X281012Y382874D01*
X278862Y383450D01*
D02*
G37*
G36*
X136362D02*
X134138D01*
X131988Y382874D01*
X130062Y381762D01*
X128488Y380188D01*
X127376Y378262D01*
X126800Y376113D01*
Y373887D01*
X127376Y371738D01*
X128488Y369812D01*
X130062Y368238D01*
X131988Y367126D01*
X134138Y366550D01*
X136362D01*
X138512Y367126D01*
X140438Y368238D01*
X142012Y369812D01*
X143124Y371738D01*
X143700Y373887D01*
Y376113D01*
X143124Y378262D01*
X142012Y380188D01*
X140438Y381762D01*
X138512Y382874D01*
X136362Y383450D01*
D02*
G37*
G36*
X206136Y371700D02*
X204863D01*
X203687Y371213D01*
X202787Y370313D01*
X202300Y369137D01*
Y367864D01*
X202787Y366687D01*
X203687Y365787D01*
X204863Y365300D01*
X206136D01*
X207313Y365787D01*
X208213Y366687D01*
X208700Y367864D01*
Y369137D01*
X208213Y370313D01*
X207313Y371213D01*
X206136Y371700D01*
D02*
G37*
G36*
X330387Y368950D02*
X329114D01*
X327937Y368463D01*
X327037Y367563D01*
X326550Y366386D01*
Y365113D01*
X327037Y363937D01*
X327937Y363037D01*
X329114Y362550D01*
X330387D01*
X331563Y363037D01*
X332463Y363937D01*
X332950Y365113D01*
Y366386D01*
X332463Y367563D01*
X331563Y368463D01*
X330387Y368950D01*
D02*
G37*
G36*
X255678Y367950D02*
X253322D01*
X251045Y367340D01*
X249005Y366162D01*
X247338Y364496D01*
X246160Y362455D01*
X245550Y360178D01*
Y357822D01*
X246160Y355545D01*
X247338Y353505D01*
X249005Y351838D01*
X251045Y350660D01*
X253322Y350050D01*
X255678D01*
X257955Y350660D01*
X259995Y351838D01*
X261662Y353505D01*
X262840Y355545D01*
X263450Y357822D01*
Y360178D01*
X262840Y362455D01*
X261662Y364496D01*
X259995Y366162D01*
X257955Y367340D01*
X255678Y367950D01*
D02*
G37*
G36*
X159678D02*
X157322D01*
X155045Y367340D01*
X153005Y366162D01*
X151338Y364496D01*
X150160Y362455D01*
X149550Y360178D01*
Y357822D01*
X150160Y355545D01*
X151338Y353505D01*
X153005Y351838D01*
X155045Y350660D01*
X157322Y350050D01*
X159678D01*
X161955Y350660D01*
X163995Y351838D01*
X165662Y353505D01*
X166840Y355545D01*
X167450Y357822D01*
Y360178D01*
X166840Y362455D01*
X165662Y364496D01*
X163995Y366162D01*
X161955Y367340D01*
X159678Y367950D01*
D02*
G37*
G36*
X136297Y357950D02*
X134203D01*
X132182Y357408D01*
X130369Y356362D01*
X128889Y354881D01*
X127842Y353069D01*
X127300Y351047D01*
Y348953D01*
X127842Y346931D01*
X128889Y345119D01*
X130369Y343638D01*
X132182Y342592D01*
X134203Y342050D01*
X136297D01*
X138319Y342592D01*
X140132Y343638D01*
X141612Y345119D01*
X142658Y346931D01*
X143200Y348953D01*
Y351047D01*
X142658Y353069D01*
X141612Y354881D01*
X140132Y356362D01*
X138319Y357408D01*
X136297Y357950D01*
D02*
G37*
G36*
X955637Y341200D02*
X954363D01*
X953187Y340713D01*
X952500Y340025D01*
X951813Y340713D01*
X950637Y341200D01*
X949363D01*
X948187Y340713D01*
X947500Y340025D01*
X946813Y340713D01*
X945637Y341200D01*
X944363D01*
X943187Y340713D01*
X942500Y340025D01*
X941813Y340713D01*
X940637Y341200D01*
X939363D01*
X938187Y340713D01*
X937287Y339813D01*
X936800Y338637D01*
Y337364D01*
X937287Y336187D01*
X937975Y335500D01*
X937287Y334813D01*
X936800Y333637D01*
Y332364D01*
X937287Y331187D01*
X937974Y330500D01*
X937287Y329813D01*
X936800Y328637D01*
Y327364D01*
X937287Y326187D01*
X937975Y325500D01*
X937287Y324813D01*
X936800Y323637D01*
Y322364D01*
X937287Y321187D01*
X937974Y320500D01*
X937287Y319813D01*
X936800Y318636D01*
Y317363D01*
X937287Y316187D01*
X938187Y315287D01*
X939363Y314800D01*
X940637D01*
X941813Y315287D01*
X942500Y315975D01*
X943187Y315287D01*
X944363Y314800D01*
X945637D01*
X946813Y315287D01*
X947500Y315975D01*
X948187Y315287D01*
X949363Y314800D01*
X950637D01*
X951813Y315287D01*
X952500Y315975D01*
X953187Y315287D01*
X954363Y314800D01*
X955637D01*
X956813Y315287D01*
X957713Y316187D01*
X958200Y317363D01*
Y318636D01*
X957713Y319813D01*
X957026Y320500D01*
X957713Y321187D01*
X958200Y322364D01*
Y323637D01*
X957713Y324813D01*
X957026Y325500D01*
X957713Y326187D01*
X958200Y327364D01*
Y328637D01*
X957713Y329813D01*
X957026Y330500D01*
X957713Y331187D01*
X958200Y332364D01*
Y333637D01*
X957713Y334813D01*
X957026Y335500D01*
X957713Y336187D01*
X958200Y337364D01*
Y338637D01*
X957713Y339813D01*
X956813Y340713D01*
X955637Y341200D01*
D02*
G37*
G36*
X1285887Y336200D02*
X1284613D01*
X1283437Y335713D01*
X1282537Y334813D01*
X1282291Y334219D01*
X1281209D01*
X1280963Y334813D01*
X1280063Y335713D01*
X1278886Y336200D01*
X1277614D01*
X1276437Y335713D01*
X1275537Y334813D01*
X1275050Y333637D01*
Y332364D01*
X1275537Y331187D01*
X1276437Y330287D01*
X1277614Y329800D01*
X1278886D01*
X1280063Y330287D01*
X1280963Y331187D01*
X1281209Y331781D01*
X1282291D01*
X1282537Y331187D01*
X1283437Y330287D01*
X1284613Y329800D01*
X1285887D01*
X1287063Y330287D01*
X1287963Y331187D01*
X1288450Y332364D01*
Y333637D01*
X1287963Y334813D01*
X1287063Y335713D01*
X1285887Y336200D01*
D02*
G37*
G36*
X330636Y337700D02*
X329364D01*
X328187Y337213D01*
X327287Y336313D01*
X326800Y335136D01*
Y333863D01*
X327287Y332687D01*
X328187Y331787D01*
X329364Y331300D01*
X330636D01*
X331813Y331787D01*
X332713Y332687D01*
X333200Y333863D01*
Y335136D01*
X332713Y336313D01*
X331813Y337213D01*
X330636Y337700D01*
D02*
G37*
G36*
X976637Y337200D02*
X975363D01*
X974187Y336713D01*
X973287Y335813D01*
X972800Y334636D01*
Y333363D01*
X973287Y332187D01*
X974187Y331287D01*
X975363Y330800D01*
X976637D01*
X977813Y331287D01*
X978713Y332187D01*
X979200Y333363D01*
Y334636D01*
X978713Y335813D01*
X977813Y336713D01*
X976637Y337200D01*
D02*
G37*
G36*
X383136Y313950D02*
X381864D01*
X380687Y313463D01*
X379787Y312563D01*
X379375Y311568D01*
X379361Y311565D01*
X378389D01*
X378375Y311568D01*
X377963Y312563D01*
X377063Y313463D01*
X375886Y313950D01*
X374613D01*
X373437Y313463D01*
X372537Y312563D01*
X372050Y311387D01*
Y310114D01*
X372537Y308937D01*
X373437Y308037D01*
X374613Y307550D01*
X375886D01*
X377063Y308037D01*
X377963Y308937D01*
X378375Y309932D01*
X378389Y309935D01*
X379361D01*
X379375Y309932D01*
X379787Y308937D01*
X380687Y308037D01*
X381864Y307550D01*
X383136D01*
X384313Y308037D01*
X385213Y308937D01*
X385700Y310114D01*
Y311387D01*
X385213Y312563D01*
X384313Y313463D01*
X383136Y313950D01*
D02*
G37*
G36*
X616637Y270200D02*
X615364D01*
X614187Y269713D01*
X613646Y269172D01*
X613000Y268923D01*
X612354Y269172D01*
X611813Y269713D01*
X610636Y270200D01*
X609364D01*
X608187Y269713D01*
X607287Y268813D01*
X606800Y267637D01*
Y266364D01*
X607287Y265187D01*
X608187Y264287D01*
X609364Y263800D01*
X610636D01*
X611813Y264287D01*
X612354Y264828D01*
X613000Y265077D01*
X613646Y264828D01*
X614187Y264287D01*
X615364Y263800D01*
X616637D01*
X617813Y264287D01*
X618713Y265187D01*
X619200Y266364D01*
Y267637D01*
X618713Y268813D01*
X617813Y269713D01*
X616637Y270200D01*
D02*
G37*
G36*
X429636D02*
X428363D01*
X427187Y269713D01*
X426287Y268813D01*
X426041Y268219D01*
X424959D01*
X424713Y268813D01*
X423813Y269713D01*
X422636Y270200D01*
X421363D01*
X420187Y269713D01*
X419287Y268813D01*
X418800Y267637D01*
Y266364D01*
X419287Y265187D01*
X420187Y264287D01*
X421363Y263800D01*
X422636D01*
X423813Y264287D01*
X424713Y265187D01*
X424959Y265781D01*
X426041D01*
X426287Y265187D01*
X427187Y264287D01*
X428363Y263800D01*
X429636D01*
X430813Y264287D01*
X431713Y265187D01*
X432200Y266364D01*
Y267637D01*
X431713Y268813D01*
X430813Y269713D01*
X429636Y270200D01*
D02*
G37*
G36*
X759637Y264200D02*
X758363D01*
X757187Y263713D01*
X756287Y262813D01*
X755800Y261637D01*
Y260364D01*
X756287Y259187D01*
X757187Y258287D01*
X758363Y257800D01*
X759637D01*
X760813Y258287D01*
X761713Y259187D01*
X762200Y260364D01*
Y261637D01*
X761713Y262813D01*
X760813Y263713D01*
X759637Y264200D01*
D02*
G37*
G36*
X429636Y245200D02*
X428363D01*
X427187Y244713D01*
X426287Y243813D01*
X426041Y243219D01*
X424959D01*
X424713Y243813D01*
X423813Y244713D01*
X422636Y245200D01*
X421363D01*
X420187Y244713D01*
X419287Y243813D01*
X418800Y242637D01*
Y241364D01*
X419287Y240187D01*
X420187Y239287D01*
X421363Y238800D01*
X422636D01*
X423813Y239287D01*
X424713Y240187D01*
X424959Y240781D01*
X426041D01*
X426287Y240187D01*
X427187Y239287D01*
X428363Y238800D01*
X429636D01*
X430813Y239287D01*
X431713Y240187D01*
X432200Y241364D01*
Y242637D01*
X431713Y243813D01*
X430813Y244713D01*
X429636Y245200D01*
D02*
G37*
G36*
X616637Y243200D02*
X615364D01*
X614187Y242713D01*
X613646Y242172D01*
X613000Y241923D01*
X612354Y242172D01*
X611813Y242713D01*
X610636Y243200D01*
X609364D01*
X608187Y242713D01*
X607287Y241813D01*
X606800Y240637D01*
Y239363D01*
X607287Y238187D01*
X608187Y237287D01*
X609364Y236800D01*
X610636D01*
X611813Y237287D01*
X612354Y237828D01*
X613000Y238077D01*
X613646Y237828D01*
X614187Y237287D01*
X615364Y236800D01*
X616637D01*
X617813Y237287D01*
X618713Y238187D01*
X619200Y239363D01*
Y240637D01*
X618713Y241813D01*
X617813Y242713D01*
X616637Y243200D01*
D02*
G37*
G36*
X1448956Y235165D02*
X1444044D01*
X1439194Y234396D01*
X1434523Y232879D01*
X1430148Y230649D01*
X1426175Y227763D01*
X1422702Y224290D01*
X1419815Y220317D01*
X1417586Y215941D01*
X1416068Y211271D01*
X1415300Y206420D01*
Y201509D01*
X1416068Y196659D01*
X1417586Y191988D01*
X1419815Y187612D01*
X1422702Y183639D01*
X1426175Y180166D01*
X1430148Y177280D01*
X1434523Y175050D01*
X1439194Y173533D01*
X1444044Y172765D01*
X1448956D01*
X1453806Y173533D01*
X1458477Y175050D01*
X1462852Y177280D01*
X1466826Y180166D01*
X1470298Y183639D01*
X1473185Y187612D01*
X1475414Y191988D01*
X1476932Y196659D01*
X1477700Y201509D01*
Y206420D01*
X1476932Y211271D01*
X1475414Y215941D01*
X1473185Y220317D01*
X1470298Y224290D01*
X1466826Y227763D01*
X1462852Y230649D01*
X1458477Y232879D01*
X1453806Y234396D01*
X1448956Y235165D01*
D02*
G37*
G36*
X679250Y176608D02*
X675050D01*
X672904Y176181D01*
X671085Y174965D01*
X669869Y173146D01*
X669442Y171000D01*
X669869Y168854D01*
X671085Y167035D01*
X672904Y165819D01*
X675050Y165392D01*
X679250D01*
X681396Y165819D01*
X683215Y167035D01*
X684431Y168854D01*
X684858Y171000D01*
X684431Y173146D01*
X683215Y174965D01*
X681396Y176181D01*
X679250Y176608D01*
D02*
G37*
G36*
X492250D02*
X488050D01*
X485904Y176181D01*
X484085Y174965D01*
X482869Y173146D01*
X482442Y171000D01*
X482869Y168854D01*
X484085Y167035D01*
X485904Y165819D01*
X488050Y165392D01*
X492250D01*
X494396Y165819D01*
X496215Y167035D01*
X497431Y168854D01*
X497858Y171000D01*
X497431Y173146D01*
X496215Y174965D01*
X494396Y176181D01*
X492250Y176608D01*
D02*
G37*
G36*
X535274Y176650D02*
X533026D01*
X530950Y175790D01*
X529360Y174200D01*
X528500Y172124D01*
Y169876D01*
X529360Y167799D01*
X530950Y166210D01*
X533026Y165350D01*
X535274D01*
X537351Y166210D01*
X538940Y167799D01*
X539800Y169876D01*
Y172124D01*
X538940Y174200D01*
X537351Y175790D01*
X535274Y176650D01*
D02*
G37*
G36*
X348274D02*
X346026D01*
X343950Y175790D01*
X342360Y174200D01*
X341500Y172124D01*
Y169876D01*
X342360Y167799D01*
X343950Y166210D01*
X346026Y165350D01*
X348274D01*
X350350Y166210D01*
X351940Y167799D01*
X352800Y169876D01*
Y172124D01*
X351940Y174200D01*
X350350Y175790D01*
X348274Y176650D01*
D02*
G37*
G36*
X1404886Y168200D02*
X1403613D01*
X1402437Y167713D01*
X1401537Y166813D01*
X1401050Y165637D01*
Y164363D01*
X1401537Y163187D01*
X1402437Y162287D01*
X1403613Y161800D01*
X1404886D01*
X1406063Y162287D01*
X1406963Y163187D01*
X1407450Y164363D01*
Y165637D01*
X1406963Y166813D01*
X1406063Y167713D01*
X1404886Y168200D01*
D02*
G37*
G36*
X940761Y176100D02*
X938339D01*
X935999Y175473D01*
X933901Y174262D01*
X932188Y172549D01*
X930977Y170451D01*
X930350Y168111D01*
Y165689D01*
X930977Y163349D01*
X932188Y161251D01*
X933901Y159538D01*
X935999Y158327D01*
X938339Y157700D01*
X940761D01*
X943101Y158327D01*
X945199Y159538D01*
X946912Y161251D01*
X948123Y163349D01*
X948750Y165689D01*
Y168111D01*
X948123Y170451D01*
X946912Y172549D01*
X945199Y174262D01*
X943101Y175473D01*
X940761Y176100D01*
D02*
G37*
G36*
X915361D02*
X912939D01*
X910599Y175473D01*
X908501Y174262D01*
X906788Y172549D01*
X905577Y170451D01*
X904950Y168111D01*
Y165689D01*
X905577Y163349D01*
X906788Y161251D01*
X908501Y159538D01*
X910599Y158327D01*
X912939Y157700D01*
X915361D01*
X917701Y158327D01*
X919799Y159538D01*
X921512Y161251D01*
X922723Y163349D01*
X923350Y165689D01*
Y168111D01*
X922723Y170451D01*
X921512Y172549D01*
X919799Y174262D01*
X917701Y175473D01*
X915361Y176100D01*
D02*
G37*
G36*
X889961D02*
X887539D01*
X885199Y175473D01*
X883101Y174262D01*
X881388Y172549D01*
X880177Y170451D01*
X879550Y168111D01*
Y165689D01*
X880177Y163349D01*
X881388Y161251D01*
X883101Y159538D01*
X885199Y158327D01*
X887539Y157700D01*
X889961D01*
X892301Y158327D01*
X894399Y159538D01*
X896112Y161251D01*
X897323Y163349D01*
X897950Y165689D01*
Y168111D01*
X897323Y170451D01*
X896112Y172549D01*
X894399Y174262D01*
X892301Y175473D01*
X889961Y176100D01*
D02*
G37*
G36*
X864561D02*
X862139D01*
X859799Y175473D01*
X857701Y174262D01*
X855988Y172549D01*
X854777Y170451D01*
X854150Y168111D01*
Y165689D01*
X854777Y163349D01*
X855988Y161251D01*
X857701Y159538D01*
X859799Y158327D01*
X862139Y157700D01*
X864561D01*
X866901Y158327D01*
X868999Y159538D01*
X870712Y161251D01*
X871923Y163349D01*
X872550Y165689D01*
Y168111D01*
X871923Y170451D01*
X870712Y172549D01*
X868999Y174262D01*
X866901Y175473D01*
X864561Y176100D01*
D02*
G37*
G36*
X839161D02*
X836739D01*
X834399Y175473D01*
X832301Y174262D01*
X830588Y172549D01*
X829377Y170451D01*
X828750Y168111D01*
Y165689D01*
X829377Y163349D01*
X830588Y161251D01*
X832301Y159538D01*
X834399Y158327D01*
X836739Y157700D01*
X839161D01*
X841501Y158327D01*
X843599Y159538D01*
X845312Y161251D01*
X846523Y163349D01*
X847150Y165689D01*
Y168111D01*
X846523Y170451D01*
X845312Y172549D01*
X843599Y174262D01*
X841501Y175473D01*
X839161Y176100D01*
D02*
G37*
G36*
X954000Y152937D02*
Y143250D01*
X963687D01*
X962966Y145939D01*
X961452Y148561D01*
X959311Y150702D01*
X956689Y152216D01*
X954000Y152937D01*
D02*
G37*
G36*
X950500D02*
X947811Y152216D01*
X945189Y150702D01*
X943048Y148561D01*
X941534Y145939D01*
X940813Y143250D01*
X950500D01*
Y152937D01*
D02*
G37*
G36*
X1111650Y151619D02*
Y142450D01*
X1120819D01*
X1120150Y144946D01*
X1118702Y147454D01*
X1116654Y149502D01*
X1114146Y150950D01*
X1111650Y151619D01*
D02*
G37*
G36*
X1108150Y151619D02*
X1105654Y150950D01*
X1103146Y149502D01*
X1101098Y147454D01*
X1099650Y144946D01*
X1098981Y142450D01*
X1108150D01*
Y151619D01*
D02*
G37*
G36*
X1161845Y149400D02*
X1159555D01*
X1157342Y148807D01*
X1155358Y147662D01*
X1153738Y146042D01*
X1152593Y144058D01*
X1152000Y141845D01*
Y139555D01*
X1152593Y137342D01*
X1152790Y137000D01*
X1153738Y135358D01*
X1155358Y133738D01*
X1157342Y132593D01*
X1159555Y132000D01*
X1161845D01*
X1164058Y132593D01*
X1166042Y133738D01*
X1167662Y135358D01*
X1168610Y137000D01*
X1168807Y137342D01*
X1169400Y139555D01*
Y141845D01*
X1168807Y144058D01*
X1167662Y146042D01*
X1166042Y147662D01*
X1164058Y148807D01*
X1161845Y149400D01*
D02*
G37*
G36*
X1085645D02*
X1083355D01*
X1081142Y148807D01*
X1079158Y147662D01*
X1077538Y146042D01*
X1076393Y144058D01*
X1075800Y141845D01*
Y139555D01*
X1076393Y137342D01*
X1076590Y137000D01*
X1077538Y135358D01*
X1079158Y133738D01*
X1081142Y132593D01*
X1083355Y132000D01*
X1085645D01*
X1087858Y132593D01*
X1089842Y133738D01*
X1091462Y135358D01*
X1092410Y137000D01*
X1092607Y137342D01*
X1093200Y139555D01*
Y141845D01*
X1092607Y144058D01*
X1091462Y146042D01*
X1089842Y147662D01*
X1087858Y148807D01*
X1085645Y149400D01*
D02*
G37*
G36*
X1136445Y149400D02*
X1134155D01*
X1131942Y148807D01*
X1129958Y147662D01*
X1128338Y146042D01*
X1127193Y144058D01*
X1126600Y141845D01*
Y139555D01*
X1127193Y137342D01*
X1127390Y137000D01*
X1128338Y135358D01*
X1129958Y133738D01*
X1131942Y132593D01*
X1134155Y132000D01*
X1136445D01*
X1138658Y132593D01*
X1140642Y133738D01*
X1142262Y135358D01*
X1143210Y137000D01*
X1143407Y137342D01*
X1144000Y139555D01*
Y141845D01*
X1143407Y144058D01*
X1142262Y146042D01*
X1140642Y147662D01*
X1138658Y148807D01*
X1136445Y149400D01*
D02*
G37*
G36*
X1120819Y138950D02*
X1111650D01*
Y129781D01*
X1114146Y130450D01*
X1116654Y131898D01*
X1118702Y133946D01*
X1119909Y136036D01*
X1120150Y136454D01*
X1120819Y138950D01*
D02*
G37*
G36*
X1108150D02*
X1098981D01*
X1099650Y136454D01*
X1099891Y136036D01*
X1101098Y133946D01*
X1103146Y131898D01*
X1105654Y130450D01*
X1108150Y129781D01*
Y138950D01*
D02*
G37*
G36*
X1124350Y126219D02*
Y117050D01*
X1133519D01*
X1132850Y119546D01*
X1131402Y122054D01*
X1129354Y124102D01*
X1126846Y125550D01*
X1124350Y126219D01*
D02*
G37*
G36*
X1120850Y126219D02*
X1118354Y125550D01*
X1115846Y124102D01*
X1113798Y122054D01*
X1112350Y119546D01*
X1111681Y117050D01*
X1120850D01*
Y126219D01*
D02*
G37*
G36*
X1149145Y124000D02*
X1146855D01*
X1144642Y123407D01*
X1142658Y122262D01*
X1141038Y120642D01*
X1139893Y118658D01*
X1139300Y116445D01*
Y114155D01*
X1139893Y111942D01*
X1141038Y109958D01*
X1142658Y108338D01*
X1144642Y107193D01*
X1146855Y106600D01*
X1149145D01*
X1151358Y107193D01*
X1153342Y108338D01*
X1154962Y109958D01*
X1156107Y111942D01*
X1156700Y114155D01*
Y116445D01*
X1156107Y118658D01*
X1154962Y120642D01*
X1153342Y122262D01*
X1151358Y123407D01*
X1149145Y124000D01*
D02*
G37*
G36*
X1098345D02*
X1096055D01*
X1093842Y123407D01*
X1091858Y122262D01*
X1090238Y120642D01*
X1089093Y118658D01*
X1088500Y116445D01*
Y114155D01*
X1089093Y111942D01*
X1090238Y109958D01*
X1091858Y108338D01*
X1093842Y107193D01*
X1096055Y106600D01*
X1098345D01*
X1100558Y107193D01*
X1102542Y108338D01*
X1104162Y109958D01*
X1105307Y111942D01*
X1105900Y114155D01*
Y116445D01*
X1105307Y118658D01*
X1104162Y120642D01*
X1102542Y122262D01*
X1100558Y123407D01*
X1098345Y124000D01*
D02*
G37*
G36*
X1072945D02*
X1070655D01*
X1068442Y123407D01*
X1066458Y122262D01*
X1064838Y120642D01*
X1063693Y118658D01*
X1063100Y116445D01*
Y114155D01*
X1063693Y111942D01*
X1064838Y109958D01*
X1066458Y108338D01*
X1068442Y107193D01*
X1070655Y106600D01*
X1072945D01*
X1075158Y107193D01*
X1077142Y108338D01*
X1078762Y109958D01*
X1079907Y111942D01*
X1080500Y114155D01*
Y116445D01*
X1079907Y118658D01*
X1078762Y120642D01*
X1077142Y122262D01*
X1075158Y123407D01*
X1072945Y124000D01*
D02*
G37*
G36*
X1133519Y113550D02*
X1124350D01*
Y104381D01*
X1126846Y105050D01*
X1129354Y106498D01*
X1131402Y108546D01*
X1132850Y111054D01*
X1133519Y113550D01*
D02*
G37*
G36*
X1120850D02*
X1111681D01*
X1112350Y111054D01*
X1113798Y108546D01*
X1115846Y106498D01*
X1118354Y105050D01*
X1120850Y104381D01*
Y113550D01*
D02*
G37*
G36*
X1293636Y102450D02*
X1292363D01*
X1291187Y101963D01*
X1290375Y101150D01*
X1289563Y101963D01*
X1288387Y102450D01*
X1287113D01*
X1285937Y101963D01*
X1285037Y101063D01*
X1284550Y99887D01*
Y98614D01*
X1285037Y97437D01*
X1285937Y96537D01*
X1287113Y96050D01*
X1288387D01*
X1289563Y96537D01*
X1290375Y97350D01*
X1291187Y96537D01*
X1292363Y96050D01*
X1293636D01*
X1294813Y96537D01*
X1295713Y97437D01*
X1296200Y98614D01*
Y99887D01*
X1295713Y101063D01*
X1294813Y101963D01*
X1293636Y102450D01*
D02*
G37*
G36*
X1445887Y95700D02*
X1444613D01*
X1443437Y95213D01*
X1442537Y94313D01*
X1442050Y93137D01*
Y91863D01*
X1442537Y90687D01*
X1443437Y89787D01*
X1444613Y89300D01*
X1445887D01*
X1447063Y89787D01*
X1447963Y90687D01*
X1448450Y91863D01*
Y93137D01*
X1447963Y94313D01*
X1447063Y95213D01*
X1445887Y95700D01*
D02*
G37*
%LPD*%
D140*
X1405000Y695000D02*
D03*
X1466000D02*
D03*
X1405000Y890000D02*
D03*
X416700Y608000D02*
D03*
X221050Y50000D02*
D03*
X246050Y250000D02*
D03*
X277750Y200000D02*
D03*
Y300000D02*
D03*
Y400000D02*
D03*
Y100000D02*
D03*
X135250Y50000D02*
D03*
Y250000D02*
D03*
Y150000D02*
D03*
X192050Y250000D02*
D03*
X55250Y730200D02*
D03*
Y704800D02*
D03*
Y755600D02*
D03*
X82250Y430700D02*
D03*
X837950Y166900D02*
D03*
X863350D02*
D03*
X888750D02*
D03*
X914150D02*
D03*
X939550D02*
D03*
X850650Y141500D02*
D03*
X876050D02*
D03*
X901450D02*
D03*
X926850D02*
D03*
X952250D02*
D03*
X1419500Y561200D02*
D03*
Y535800D02*
D03*
Y510400D02*
D03*
Y485000D02*
D03*
Y459600D02*
D03*
Y434200D02*
D03*
X1444900Y561200D02*
D03*
Y485000D02*
D03*
Y535800D02*
D03*
Y459600D02*
D03*
Y510400D02*
D03*
X685250Y612300D02*
D03*
D142*
X816360Y108480D02*
D03*
X973840D02*
D03*
D144*
X1466000Y890000D02*
D03*
D150*
X206500Y421000D02*
D03*
X254500D02*
D03*
X277750Y278000D02*
D03*
Y325000D02*
D03*
Y375000D02*
D03*
X135250Y278000D02*
D03*
Y325000D02*
D03*
Y375000D02*
D03*
X158500Y421000D02*
D03*
D169*
X1160700Y140700D02*
D03*
X1135300Y140700D02*
D03*
X1148000Y115300D02*
D03*
X1122600D02*
D03*
X1097200D02*
D03*
X1109900Y140700D02*
D03*
X1071800Y115300D02*
D03*
X1084500Y140700D02*
D03*
D170*
X1194250Y21300D02*
D03*
X1038250D02*
D03*
D171*
X1422500Y662500D02*
D03*
X1448500D02*
D03*
X1422500Y922500D02*
D03*
X1448500D02*
D03*
D172*
X391300Y608000D02*
D03*
D173*
X879750Y605250D02*
D03*
X119578Y1005715D02*
D03*
X699373Y1005467D02*
D03*
X54500Y203965D02*
D03*
X1446500D02*
D03*
X54500Y998465D02*
D03*
X1446500D02*
D03*
D174*
X135250Y350000D02*
D03*
D175*
X55250Y679400D02*
D03*
X82250Y405300D02*
D03*
X1444900Y434200D02*
D03*
X685250Y637700D02*
D03*
D176*
X837950Y78000D02*
D03*
X952250D02*
D03*
D177*
X1251999Y62699D02*
D03*
X1338501D02*
D03*
D178*
X1251999Y21000D02*
D03*
X1338501D02*
D03*
D179*
X1266350Y57500D02*
D03*
X1324150D02*
D03*
D180*
X225508Y686089D02*
D03*
X225531Y676051D02*
D03*
X225508Y681000D02*
D03*
X316000Y312000D02*
D03*
X1461000Y934000D02*
D03*
X1441000Y894000D02*
D03*
X1461000Y614000D02*
D03*
Y534000D02*
D03*
Y454000D02*
D03*
X1441000Y414000D02*
D03*
X1461000Y374000D02*
D03*
X1441000Y334000D02*
D03*
X1461000Y294000D02*
D03*
X1441000Y254000D02*
D03*
X1421000Y854000D02*
D03*
X1401000Y654000D02*
D03*
Y574000D02*
D03*
Y414000D02*
D03*
X1421000Y374000D02*
D03*
Y294000D02*
D03*
Y134000D02*
D03*
X1401000Y94000D02*
D03*
X1421000Y54000D02*
D03*
X1401000Y14000D02*
D03*
X1381000Y934000D02*
D03*
Y854000D02*
D03*
X1361000Y654000D02*
D03*
X1381000Y614000D02*
D03*
X1361000Y574000D02*
D03*
X1381000Y534000D02*
D03*
Y454000D02*
D03*
X1361000Y414000D02*
D03*
X1381000Y374000D02*
D03*
X1361000Y334000D02*
D03*
X1381000Y294000D02*
D03*
X1361000Y254000D02*
D03*
X1381000Y134000D02*
D03*
Y54000D02*
D03*
X1321000Y974000D02*
D03*
X1341000Y934000D02*
D03*
X1321000Y894000D02*
D03*
X1341000Y854000D02*
D03*
X1321000Y734000D02*
D03*
X1341000Y534000D02*
D03*
Y454000D02*
D03*
X1321000Y414000D02*
D03*
X1341000Y294000D02*
D03*
X1321000Y254000D02*
D03*
X1341000Y134000D02*
D03*
X1301000Y1014000D02*
D03*
X1281000Y974000D02*
D03*
X1301000Y934000D02*
D03*
Y854000D02*
D03*
X1281000Y734000D02*
D03*
X1301000Y694000D02*
D03*
X1281000Y254000D02*
D03*
X1301000Y214000D02*
D03*
Y134000D02*
D03*
X1261000Y1014000D02*
D03*
X1241000Y894000D02*
D03*
Y734000D02*
D03*
X1261000Y694000D02*
D03*
X1241000Y654000D02*
D03*
X1261000Y534000D02*
D03*
X1241000Y414000D02*
D03*
X1261000Y294000D02*
D03*
Y214000D02*
D03*
X1201000Y654000D02*
D03*
Y334000D02*
D03*
X1221000Y294000D02*
D03*
X1201000Y254000D02*
D03*
Y174000D02*
D03*
X1221000Y134000D02*
D03*
X1161000Y894000D02*
D03*
X1181000Y774000D02*
D03*
Y694000D02*
D03*
X1161000Y654000D02*
D03*
X1181000Y614000D02*
D03*
Y534000D02*
D03*
X1161000Y414000D02*
D03*
Y334000D02*
D03*
Y254000D02*
D03*
X1181000Y214000D02*
D03*
X1161000Y174000D02*
D03*
X1141000Y1014000D02*
D03*
X1121000Y654000D02*
D03*
Y334000D02*
D03*
X1141000Y294000D02*
D03*
X1121000Y254000D02*
D03*
X1141000Y214000D02*
D03*
X1121000Y174000D02*
D03*
X1081000Y734000D02*
D03*
X1101000Y614000D02*
D03*
X1081000Y574000D02*
D03*
X1101000Y294000D02*
D03*
X1081000Y174000D02*
D03*
X1061000Y1014000D02*
D03*
X1041000Y734000D02*
D03*
X1061000Y614000D02*
D03*
X1041000Y574000D02*
D03*
X1061000Y534000D02*
D03*
Y214000D02*
D03*
X1041000Y174000D02*
D03*
X1021000Y1014000D02*
D03*
X1001000Y894000D02*
D03*
X1021000Y774000D02*
D03*
X1001000Y654000D02*
D03*
X1021000Y614000D02*
D03*
X1001000Y574000D02*
D03*
X1021000Y534000D02*
D03*
X1001000Y174000D02*
D03*
X981000Y1014000D02*
D03*
X961000Y734000D02*
D03*
Y654000D02*
D03*
X981000Y614000D02*
D03*
X961000Y574000D02*
D03*
X981000Y534000D02*
D03*
Y454000D02*
D03*
X961000Y414000D02*
D03*
X981000Y214000D02*
D03*
X941000Y1014000D02*
D03*
X921000Y894000D02*
D03*
X941000Y774000D02*
D03*
Y614000D02*
D03*
X921000Y574000D02*
D03*
X941000Y534000D02*
D03*
Y454000D02*
D03*
X921000Y414000D02*
D03*
Y254000D02*
D03*
X901000Y1014000D02*
D03*
Y774000D02*
D03*
Y534000D02*
D03*
Y294000D02*
D03*
X881000Y254000D02*
D03*
X901000Y214000D02*
D03*
X861000Y1014000D02*
D03*
Y934000D02*
D03*
Y694000D02*
D03*
X841000Y574000D02*
D03*
X861000Y534000D02*
D03*
Y294000D02*
D03*
X841000Y254000D02*
D03*
X861000Y214000D02*
D03*
X821000Y1014000D02*
D03*
Y934000D02*
D03*
X801000Y574000D02*
D03*
Y414000D02*
D03*
X821000Y294000D02*
D03*
X801000Y254000D02*
D03*
X821000Y214000D02*
D03*
X801000Y174000D02*
D03*
X781000Y934000D02*
D03*
Y614000D02*
D03*
X761000Y494000D02*
D03*
Y414000D02*
D03*
Y254000D02*
D03*
X781000Y214000D02*
D03*
X761000Y174000D02*
D03*
X741000Y1014000D02*
D03*
Y934000D02*
D03*
Y774000D02*
D03*
X721000Y734000D02*
D03*
Y654000D02*
D03*
X741000Y614000D02*
D03*
X721000Y574000D02*
D03*
Y494000D02*
D03*
X741000Y294000D02*
D03*
X721000Y254000D02*
D03*
X741000Y214000D02*
D03*
X721000Y174000D02*
D03*
X701000Y774000D02*
D03*
X681000Y734000D02*
D03*
X701000Y614000D02*
D03*
X681000Y574000D02*
D03*
X701000Y534000D02*
D03*
X681000Y494000D02*
D03*
X701000Y454000D02*
D03*
X681000Y414000D02*
D03*
X701000Y294000D02*
D03*
X681000Y254000D02*
D03*
X701000Y214000D02*
D03*
X661000Y1014000D02*
D03*
Y934000D02*
D03*
Y774000D02*
D03*
X641000Y574000D02*
D03*
Y494000D02*
D03*
Y414000D02*
D03*
Y254000D02*
D03*
X621000Y774000D02*
D03*
X601000Y734000D02*
D03*
X621000Y614000D02*
D03*
X601000Y574000D02*
D03*
X621000Y534000D02*
D03*
X601000Y494000D02*
D03*
X621000Y454000D02*
D03*
X601000Y414000D02*
D03*
X581000Y1014000D02*
D03*
X561000Y734000D02*
D03*
X581000Y614000D02*
D03*
Y534000D02*
D03*
X561000Y494000D02*
D03*
X581000Y454000D02*
D03*
X561000Y414000D02*
D03*
X581000Y294000D02*
D03*
X561000Y254000D02*
D03*
X581000Y214000D02*
D03*
X561000Y174000D02*
D03*
X541000Y1014000D02*
D03*
Y934000D02*
D03*
X521000Y734000D02*
D03*
X541000Y454000D02*
D03*
Y294000D02*
D03*
X521000Y254000D02*
D03*
X541000Y214000D02*
D03*
X521000Y174000D02*
D03*
X501000Y934000D02*
D03*
X481000Y894000D02*
D03*
X501000Y694000D02*
D03*
X481000Y574000D02*
D03*
Y494000D02*
D03*
Y414000D02*
D03*
X501000Y294000D02*
D03*
X481000Y254000D02*
D03*
X501000Y214000D02*
D03*
X461000Y1014000D02*
D03*
X441000Y814000D02*
D03*
X461000Y454000D02*
D03*
Y214000D02*
D03*
X441000Y174000D02*
D03*
X421000Y1014000D02*
D03*
X401000Y894000D02*
D03*
Y814000D02*
D03*
X421000Y694000D02*
D03*
X401000Y574000D02*
D03*
X421000Y534000D02*
D03*
X401000Y494000D02*
D03*
X421000Y454000D02*
D03*
X401000Y414000D02*
D03*
X421000Y294000D02*
D03*
X401000Y254000D02*
D03*
Y174000D02*
D03*
X381000Y1014000D02*
D03*
Y694000D02*
D03*
X361000Y654000D02*
D03*
Y574000D02*
D03*
X381000Y534000D02*
D03*
Y294000D02*
D03*
X361000Y254000D02*
D03*
X381000Y214000D02*
D03*
X361000Y174000D02*
D03*
X341000Y1014000D02*
D03*
X321000Y894000D02*
D03*
X341000Y854000D02*
D03*
X321000Y814000D02*
D03*
Y494000D02*
D03*
Y414000D02*
D03*
X341000Y294000D02*
D03*
Y214000D02*
D03*
X321000Y174000D02*
D03*
X301000Y1014000D02*
D03*
X281000Y894000D02*
D03*
X301000Y854000D02*
D03*
X281000Y574000D02*
D03*
X301000Y534000D02*
D03*
X281000Y414000D02*
D03*
X301000Y374000D02*
D03*
X261000Y1014000D02*
D03*
Y534000D02*
D03*
X221000Y1014000D02*
D03*
X181000D02*
D03*
Y934000D02*
D03*
X161000Y494000D02*
D03*
X181000Y374000D02*
D03*
X141000Y934000D02*
D03*
X81000Y974000D02*
D03*
X101000Y854000D02*
D03*
X81000Y814000D02*
D03*
Y334000D02*
D03*
X41000Y814000D02*
D03*
X61000Y694000D02*
D03*
Y614000D02*
D03*
X41000Y494000D02*
D03*
X61000Y374000D02*
D03*
X41000Y334000D02*
D03*
X241515Y639896D02*
D03*
X244000Y644000D02*
D03*
X239000D02*
D03*
X242454Y677237D02*
D03*
X240000Y673000D02*
D03*
X245000D02*
D03*
X237000Y618000D02*
D03*
X240000Y622000D02*
D03*
X96000Y642000D02*
D03*
Y647000D02*
D03*
Y652000D02*
D03*
X102000Y601000D02*
D03*
Y606000D02*
D03*
X114000Y589000D02*
D03*
X114733Y598894D02*
D03*
X114680Y594161D02*
D03*
X109000Y594000D02*
D03*
Y599000D02*
D03*
X221000Y681000D02*
D03*
Y676000D02*
D03*
Y686000D02*
D03*
X173000Y670000D02*
D03*
X179000Y636000D02*
D03*
X177000Y622000D02*
D03*
X172000Y624000D02*
D03*
X184000Y621000D02*
D03*
X194000D02*
D03*
X198000Y617000D02*
D03*
Y612000D02*
D03*
X200000Y625000D02*
D03*
X205000D02*
D03*
X497000Y1000000D02*
D03*
Y1006000D02*
D03*
X502000Y1003000D02*
D03*
X1276000Y971000D02*
D03*
Y966000D02*
D03*
Y956000D02*
D03*
Y946000D02*
D03*
Y941000D02*
D03*
Y936000D02*
D03*
Y978000D02*
D03*
X1079000Y882000D02*
D03*
X1078932Y892762D02*
D03*
X1085000Y1015000D02*
D03*
X1081000Y1012000D02*
D03*
Y1002000D02*
D03*
Y992000D02*
D03*
X1086000Y990000D02*
D03*
X1091000D02*
D03*
X1090000Y1015000D02*
D03*
X798435Y700098D02*
D03*
X1055000Y412000D02*
D03*
Y407000D02*
D03*
X716000Y904000D02*
D03*
Y911000D02*
D03*
X401680Y645035D02*
D03*
X408000Y645000D02*
D03*
X1174000Y802000D02*
D03*
X1179000D02*
D03*
X1184000D02*
D03*
X1169000D02*
D03*
X1184000Y908000D02*
D03*
X1169000D02*
D03*
X1174000D02*
D03*
X1179000D02*
D03*
X32000Y82000D02*
D03*
Y77000D02*
D03*
Y87000D02*
D03*
X541000Y952000D02*
D03*
Y946000D02*
D03*
Y940000D02*
D03*
X1419000Y805000D02*
D03*
Y775000D02*
D03*
Y790000D02*
D03*
X731000Y699000D02*
D03*
Y694000D02*
D03*
Y689000D02*
D03*
X736000D02*
D03*
X746000D02*
D03*
X741000D02*
D03*
X751000D02*
D03*
X772000Y700000D02*
D03*
X928000Y463000D02*
D03*
X938000D02*
D03*
X943000D02*
D03*
X948000D02*
D03*
X953000D02*
D03*
X958000D02*
D03*
X963000D02*
D03*
X968000D02*
D03*
X973000D02*
D03*
X978000D02*
D03*
Y483000D02*
D03*
Y478000D02*
D03*
Y473000D02*
D03*
Y468000D02*
D03*
X973000D02*
D03*
X968000D02*
D03*
X963000D02*
D03*
X958000D02*
D03*
X953000D02*
D03*
X948000D02*
D03*
X943000D02*
D03*
X938000D02*
D03*
X933000Y463000D02*
D03*
X983000Y305000D02*
D03*
X978000D02*
D03*
X973000D02*
D03*
X968000D02*
D03*
X930000Y290000D02*
D03*
Y295000D02*
D03*
X935000D02*
D03*
Y290000D02*
D03*
X963000Y300000D02*
D03*
X968000D02*
D03*
X973000D02*
D03*
X1005000Y407000D02*
D03*
X990000D02*
D03*
X995000D02*
D03*
X1000000D02*
D03*
X1010000D02*
D03*
X1015000D02*
D03*
X1020000D02*
D03*
X1025000D02*
D03*
X1030000D02*
D03*
X1035000D02*
D03*
X1040000D02*
D03*
X1045000D02*
D03*
X1050000D02*
D03*
Y412000D02*
D03*
X1045000D02*
D03*
X1040000D02*
D03*
X1035000D02*
D03*
X1030000D02*
D03*
X1025000D02*
D03*
X1020000D02*
D03*
X1015000D02*
D03*
X1010000D02*
D03*
X1005000D02*
D03*
X1000000D02*
D03*
X995000D02*
D03*
X990000D02*
D03*
Y417000D02*
D03*
Y422000D02*
D03*
Y427000D02*
D03*
X912000Y421000D02*
D03*
Y426000D02*
D03*
Y431000D02*
D03*
Y436000D02*
D03*
Y441000D02*
D03*
Y446000D02*
D03*
Y451000D02*
D03*
Y456000D02*
D03*
X897000Y416000D02*
D03*
X902000D02*
D03*
X907000D02*
D03*
X902000Y421000D02*
D03*
X907000D02*
D03*
Y426000D02*
D03*
Y461000D02*
D03*
X897000D02*
D03*
X902000D02*
D03*
Y456000D02*
D03*
X907000D02*
D03*
Y451000D02*
D03*
X1009000Y347000D02*
D03*
X1004000Y352000D02*
D03*
X999000D02*
D03*
X938000Y373000D02*
D03*
X933000D02*
D03*
X928000D02*
D03*
X918000D02*
D03*
X913000D02*
D03*
X903000D02*
D03*
X923000D02*
D03*
X908000D02*
D03*
X898000D02*
D03*
X893000D02*
D03*
X888000D02*
D03*
X883000D02*
D03*
X878000D02*
D03*
X873000D02*
D03*
X868000D02*
D03*
Y363000D02*
D03*
Y368000D02*
D03*
X938000Y363000D02*
D03*
Y368000D02*
D03*
X933000D02*
D03*
X928000D02*
D03*
X923000D02*
D03*
X918000D02*
D03*
X913000D02*
D03*
X908000D02*
D03*
X903000D02*
D03*
X898000D02*
D03*
X1204250Y370737D02*
D03*
X1014000Y352000D02*
D03*
Y347000D02*
D03*
X1009000Y352000D02*
D03*
X994000D02*
D03*
Y317000D02*
D03*
Y322000D02*
D03*
Y327000D02*
D03*
Y332000D02*
D03*
Y337000D02*
D03*
Y342000D02*
D03*
Y347000D02*
D03*
X1004000D02*
D03*
X999000D02*
D03*
Y342000D02*
D03*
Y337000D02*
D03*
X44000Y928000D02*
D03*
X80000Y943000D02*
D03*
X75000D02*
D03*
X70000D02*
D03*
X65000D02*
D03*
X59000D02*
D03*
X54000D02*
D03*
X49000D02*
D03*
X44000D02*
D03*
Y938000D02*
D03*
Y933000D02*
D03*
X49000Y928000D02*
D03*
Y933000D02*
D03*
Y938000D02*
D03*
X80000D02*
D03*
X75000D02*
D03*
X70000D02*
D03*
X940000Y323000D02*
D03*
X945000Y328000D02*
D03*
X940000D02*
D03*
X945000Y323000D02*
D03*
X940000Y333000D02*
D03*
Y318000D02*
D03*
X945000D02*
D03*
Y333000D02*
D03*
X950000D02*
D03*
Y328000D02*
D03*
Y323000D02*
D03*
Y318000D02*
D03*
X955000D02*
D03*
Y323000D02*
D03*
Y328000D02*
D03*
Y333000D02*
D03*
X940000Y338000D02*
D03*
X945000D02*
D03*
X950000D02*
D03*
X955000D02*
D03*
X759000Y261000D02*
D03*
X976000Y334000D02*
D03*
X529250Y690000D02*
D03*
Y685500D02*
D03*
X710000Y967000D02*
D03*
X484000Y963000D02*
D03*
X489000D02*
D03*
X494000D02*
D03*
Y968000D02*
D03*
X489000D02*
D03*
X484000D02*
D03*
Y973000D02*
D03*
X489000D02*
D03*
X494000D02*
D03*
X499000D02*
D03*
Y968000D02*
D03*
Y963000D02*
D03*
X434000Y361000D02*
D03*
Y366000D02*
D03*
X429000Y356000D02*
D03*
X434000D02*
D03*
X439000D02*
D03*
X444000D02*
D03*
Y361000D02*
D03*
Y366000D02*
D03*
X439000D02*
D03*
X429000D02*
D03*
Y371000D02*
D03*
X434000D02*
D03*
X439000D02*
D03*
X444000D02*
D03*
Y346000D02*
D03*
X439000D02*
D03*
X434000D02*
D03*
X429000D02*
D03*
Y341000D02*
D03*
X434000D02*
D03*
X439000D02*
D03*
X444000D02*
D03*
Y351000D02*
D03*
X439000D02*
D03*
X434000D02*
D03*
X607000Y651000D02*
D03*
X108000Y818000D02*
D03*
X102000D02*
D03*
X296000Y736000D02*
D03*
X198000Y465000D02*
D03*
X500582Y520796D02*
D03*
X505720Y527396D02*
D03*
X516000Y539000D02*
D03*
X935547Y760348D02*
D03*
X934124Y751515D02*
D03*
X942015Y744578D02*
D03*
X900598Y725842D02*
D03*
X797847Y623002D02*
D03*
X801735Y619445D02*
D03*
X813316Y608608D02*
D03*
X805623Y615847D02*
D03*
X809635Y612372D02*
D03*
X479000Y596000D02*
D03*
X485000Y584000D02*
D03*
X492000Y640000D02*
D03*
X487000Y609000D02*
D03*
X541000Y569000D02*
D03*
X452000Y539000D02*
D03*
X511000Y533000D02*
D03*
X422000Y242000D02*
D03*
Y267000D02*
D03*
X429000D02*
D03*
Y242000D02*
D03*
X667000Y691000D02*
D03*
Y681000D02*
D03*
Y686000D02*
D03*
X938000Y748000D02*
D03*
X1030000Y925000D02*
D03*
X1045000Y928000D02*
D03*
X610000Y240000D02*
D03*
Y267000D02*
D03*
X616000Y240000D02*
D03*
Y267000D02*
D03*
X818802Y864000D02*
D03*
Y869500D02*
D03*
X1154250Y725250D02*
D03*
X1121750Y667000D02*
D03*
X1126000Y714250D02*
D03*
X1121500D02*
D03*
X1117000Y667000D02*
D03*
X722750Y904500D02*
D03*
X716500Y963750D02*
D03*
X722500D02*
D03*
X719500Y960000D02*
D03*
X722750Y911000D02*
D03*
X1111250Y974500D02*
D03*
X1105250D02*
D03*
X1108250Y971000D02*
D03*
X1252250Y980000D02*
D03*
X1247000D02*
D03*
X1249500Y984750D02*
D03*
X62500Y834000D02*
D03*
Y838500D02*
D03*
X672392Y977750D02*
D03*
X678250Y933500D02*
D03*
X665750Y977750D02*
D03*
X125000Y957000D02*
D03*
X132000Y944000D02*
D03*
X128750Y947250D02*
D03*
X125500Y950500D02*
D03*
X138000Y944000D02*
D03*
X135000Y947500D02*
D03*
X131750Y950750D02*
D03*
X128500Y954000D02*
D03*
X439000Y361000D02*
D03*
X429000D02*
D03*
Y351000D02*
D03*
X1303000Y85250D02*
D03*
X1297750D02*
D03*
X1287750Y99250D02*
D03*
X1293000D02*
D03*
X312500Y257500D02*
D03*
X316153Y266770D02*
D03*
X312500Y275000D02*
D03*
X534474Y699949D02*
D03*
X1207500Y195000D02*
D03*
Y190000D02*
D03*
Y185000D02*
D03*
Y200000D02*
D03*
X1237500Y937500D02*
D03*
X1102500Y785000D02*
D03*
X616987Y882500D02*
D03*
X893000Y368000D02*
D03*
X888000D02*
D03*
X883000D02*
D03*
X878000D02*
D03*
X873000D02*
D03*
X172500Y337500D02*
D03*
X1125250Y565000D02*
D03*
X1105250Y715000D02*
D03*
X1097750D02*
D03*
X1090250D02*
D03*
Y707500D02*
D03*
Y700000D02*
D03*
Y692500D02*
D03*
Y685000D02*
D03*
X1367716Y962904D02*
D03*
X1385250Y857500D02*
D03*
X562750Y740000D02*
D03*
X584000Y761250D02*
D03*
X62750Y800000D02*
D03*
X65250Y805000D02*
D03*
X67750Y810000D02*
D03*
X582750Y872500D02*
D03*
X572750Y922500D02*
D03*
Y915000D02*
D03*
X506000Y990000D02*
D03*
X502000Y993000D02*
D03*
Y998000D02*
D03*
Y1008000D02*
D03*
Y1013000D02*
D03*
X507000Y1015000D02*
D03*
X1105250Y260000D02*
D03*
Y267500D02*
D03*
X1112750D02*
D03*
X1120250D02*
D03*
X1092750Y260000D02*
D03*
Y267500D02*
D03*
X1085250D02*
D03*
X1077750D02*
D03*
X832750Y497500D02*
D03*
X825250D02*
D03*
X797750D02*
D03*
X805250D02*
D03*
X907000Y446000D02*
D03*
X1276000Y951000D02*
D03*
Y961000D02*
D03*
X1271000Y978000D02*
D03*
X1266000D02*
D03*
X1207750Y942500D02*
D03*
X1237500D02*
D03*
X1237750Y902500D02*
D03*
Y910000D02*
D03*
X1152750Y995000D02*
D03*
X1117750Y922500D02*
D03*
X1160250Y917500D02*
D03*
X1105250Y907500D02*
D03*
X1445250Y92500D02*
D03*
X1451750Y833500D02*
D03*
X1215000Y627500D02*
D03*
X1188250Y613500D02*
D03*
X1454537Y777925D02*
D03*
X1430500Y735000D02*
D03*
X1425000D02*
D03*
X1445000Y750500D02*
D03*
Y756500D02*
D03*
X1468250Y666353D02*
D03*
X1441000Y810250D02*
D03*
X1348250Y737500D02*
D03*
X1348500Y731000D02*
D03*
X1330341Y713750D02*
D03*
X1330250Y719250D02*
D03*
X1366000Y814500D02*
D03*
X1451000Y800250D02*
D03*
X1452500Y845000D02*
D03*
X1451000Y795000D02*
D03*
X1447500Y820000D02*
D03*
X1451000Y815000D02*
D03*
X230250Y352500D02*
D03*
X582750Y635000D02*
D03*
X575250D02*
D03*
X1262758Y101581D02*
D03*
X1327750Y101500D02*
D03*
X1330250Y152500D02*
D03*
Y202500D02*
D03*
X1322750Y210000D02*
D03*
X1312750Y202500D02*
D03*
X1322750Y160000D02*
D03*
X1312750Y152500D02*
D03*
X1320250Y337500D02*
D03*
Y330000D02*
D03*
X1325250Y325000D02*
D03*
Y317500D02*
D03*
X1322750Y310000D02*
D03*
X1315250D02*
D03*
X1287750Y392500D02*
D03*
X1232750Y292500D02*
D03*
X1220250Y305000D02*
D03*
Y322500D02*
D03*
X1227750D02*
D03*
X1220250Y312500D02*
D03*
X1225250Y300000D02*
D03*
X1320250Y407500D02*
D03*
Y400000D02*
D03*
X1315250Y412500D02*
D03*
X1305250D02*
D03*
X662750Y882500D02*
D03*
X407500Y903250D02*
D03*
X65000Y938000D02*
D03*
X59000D02*
D03*
X54000D02*
D03*
X85250Y842500D02*
D03*
Y835000D02*
D03*
X77750D02*
D03*
X165250Y922500D02*
D03*
Y912500D02*
D03*
X155250Y922500D02*
D03*
X240250Y352500D02*
D03*
X235250D02*
D03*
X240250Y380000D02*
D03*
X745250Y145000D02*
D03*
X717750Y150000D02*
D03*
Y140000D02*
D03*
X745250Y165000D02*
D03*
X755250D02*
D03*
X767750D02*
D03*
X780250D02*
D03*
X790250D02*
D03*
Y155000D02*
D03*
X745250D02*
D03*
X999000Y332000D02*
D03*
X807750Y540000D02*
D03*
X792750Y505000D02*
D03*
X810250D02*
D03*
X820250D02*
D03*
X837750D02*
D03*
X928000Y483000D02*
D03*
Y473000D02*
D03*
Y478000D02*
D03*
Y468000D02*
D03*
X933000D02*
D03*
X907000Y431000D02*
D03*
Y436000D02*
D03*
Y441000D02*
D03*
X999000Y317000D02*
D03*
Y322000D02*
D03*
Y327000D02*
D03*
X978000Y300000D02*
D03*
X983000D02*
D03*
X168000Y261500D02*
D03*
X161750Y266750D02*
D03*
X330000Y334500D02*
D03*
X329750Y365750D02*
D03*
X149000Y548000D02*
D03*
X209776Y821802D02*
D03*
X1154000Y955000D02*
D03*
X200750Y512250D02*
D03*
X683250Y900750D02*
D03*
X683000Y887750D02*
D03*
X683250Y894250D02*
D03*
X461750Y919000D02*
D03*
X1095000Y564500D02*
D03*
X1119250D02*
D03*
X1089000Y538500D02*
D03*
X1088000Y556500D02*
D03*
X1117000Y671500D02*
D03*
Y714250D02*
D03*
X90137Y509013D02*
D03*
X226750Y555500D02*
D03*
X287500Y827500D02*
D03*
Y857750D02*
D03*
X281500Y887250D02*
D03*
X255750Y892000D02*
D03*
X194904Y881168D02*
D03*
X250750Y847750D02*
D03*
Y822250D02*
D03*
X213825Y804516D02*
D03*
X105317Y677514D02*
D03*
X107000Y684250D02*
D03*
X141750Y632500D02*
D03*
X102000Y611000D02*
D03*
X112750Y657250D02*
D03*
X210000Y625000D02*
D03*
X189000Y621000D02*
D03*
X180000Y615000D02*
D03*
X172000Y635000D02*
D03*
X184000Y637000D02*
D03*
X224500Y618750D02*
D03*
X245000Y622000D02*
D03*
X208750Y588500D02*
D03*
X217500Y575750D02*
D03*
X178750Y587569D02*
D03*
X194093Y582399D02*
D03*
X184500Y685250D02*
D03*
X173000Y675000D02*
D03*
X303500Y699500D02*
D03*
X303000Y601500D02*
D03*
X240000Y578000D02*
D03*
X502000Y911750D02*
D03*
X489000Y898000D02*
D03*
X465250Y897000D02*
D03*
X704000Y967000D02*
D03*
Y962000D02*
D03*
X1081000Y997000D02*
D03*
Y1007000D02*
D03*
X1079000Y887000D02*
D03*
Y898000D02*
D03*
X1112500Y785750D02*
D03*
X1117500Y760000D02*
D03*
X1087500D02*
D03*
X183000Y739500D02*
D03*
X119250Y545750D02*
D03*
X125250Y551250D02*
D03*
X382500Y310750D02*
D03*
X375250D02*
D03*
X121750Y657250D02*
D03*
X112750Y707750D02*
D03*
X87500Y745750D02*
D03*
X81000D02*
D03*
X74500D02*
D03*
X87500Y768250D02*
D03*
X81000D02*
D03*
X74500Y768000D02*
D03*
X265250Y517500D02*
D03*
X1048250Y908000D02*
D03*
X719500Y907750D02*
D03*
Y967500D02*
D03*
X221000Y873000D02*
D03*
X124000Y822000D02*
D03*
X259250Y694000D02*
D03*
X255875Y704375D02*
D03*
X332500Y609750D02*
D03*
X339000Y615750D02*
D03*
X311500Y718000D02*
D03*
X380500Y561500D02*
D03*
X387000Y567750D02*
D03*
X525250Y545000D02*
D03*
Y556750D02*
D03*
X153152Y655255D02*
D03*
X153368Y637772D02*
D03*
X262368Y655254D02*
D03*
X308500Y126000D02*
D03*
X273500Y728000D02*
D03*
X264500Y848500D02*
D03*
X702000Y545000D02*
D03*
X701750Y556750D02*
D03*
X335250Y381750D02*
D03*
X209500Y551000D02*
D03*
X214250Y485000D02*
D03*
X207500Y446500D02*
D03*
X196500Y474750D02*
D03*
X205250Y455250D02*
D03*
X147750Y485000D02*
D03*
Y475000D02*
D03*
Y465000D02*
D03*
Y455000D02*
D03*
Y445000D02*
D03*
X205500Y368500D02*
D03*
X191250Y379000D02*
D03*
X273000Y450500D02*
D03*
X176000Y899000D02*
D03*
X318000Y402250D02*
D03*
X1264250Y560750D02*
D03*
X1256500Y578500D02*
D03*
X1304513Y453737D02*
D03*
X1286676Y456426D02*
D03*
X1285250Y333000D02*
D03*
X1278250D02*
D03*
X83992Y509202D02*
D03*
X71200Y508950D02*
D03*
X262327Y950869D02*
D03*
Y945369D02*
D03*
X601250Y656000D02*
D03*
X615250D02*
D03*
X529250Y681000D02*
D03*
X1181043Y582869D02*
D03*
Y577369D02*
D03*
X1404250Y165000D02*
D03*
X304250Y648000D02*
D03*
X123250Y581000D02*
D03*
X165250Y723000D02*
D03*
X164250Y752000D02*
D03*
X280250Y618000D02*
D03*
Y718000D02*
D03*
X155250Y747000D02*
D03*
X136250Y740000D02*
D03*
X183250Y865000D02*
D03*
X164394Y838160D02*
D03*
Y832660D02*
D03*
X367176Y787272D02*
D03*
Y781772D02*
D03*
X367132Y763454D02*
D03*
Y757954D02*
D03*
X155000Y572250D02*
D03*
Y566750D02*
D03*
X225750Y433000D02*
D03*
X231250D02*
D03*
X245250Y823000D02*
D03*
X214250Y873000D02*
D03*
X179250Y823000D02*
D03*
X154250Y645550D02*
D03*
X153250Y615550D02*
D03*
Y661550D02*
D03*
X169250Y701550D02*
D03*
X195250D02*
D03*
X262250Y661550D02*
D03*
X220250Y594550D02*
D03*
X245250D02*
D03*
D181*
X813725Y858423D02*
D03*
X824009D02*
D03*
X813725Y874631D02*
D03*
X824009D02*
D03*
X1419869Y740207D02*
D03*
X1436077Y729923D02*
D03*
Y740207D02*
D03*
X1419869Y729923D02*
D03*
X1450207Y761131D02*
D03*
Y744923D02*
D03*
X1439923D02*
D03*
Y761131D02*
D03*
X1175966Y571792D02*
D03*
X1186250D02*
D03*
X1175966Y588000D02*
D03*
X1186250D02*
D03*
X159187Y827530D02*
D03*
X169471D02*
D03*
X159187Y843738D02*
D03*
X169471D02*
D03*
X267534Y956000D02*
D03*
X257250D02*
D03*
X267534Y939792D02*
D03*
X257250D02*
D03*
X362099Y776195D02*
D03*
X372383D02*
D03*
X362099Y792403D02*
D03*
X372383D02*
D03*
X362055Y752376D02*
D03*
X372339D02*
D03*
X362055Y768585D02*
D03*
X372339D02*
D03*
X149858Y561443D02*
D03*
X160142D02*
D03*
X149858Y577651D02*
D03*
X160142D02*
D03*
X236651Y427858D02*
D03*
Y438142D02*
D03*
X220443Y427858D02*
D03*
Y438142D02*
D03*
D182*
X1040750Y269500D02*
D03*
Y257000D02*
D03*
Y244500D02*
D03*
X1025750D02*
D03*
Y269500D02*
D03*
Y257000D02*
D03*
X875250Y496000D02*
D03*
Y508500D02*
D03*
Y521000D02*
D03*
X890250D02*
D03*
Y496000D02*
D03*
Y508500D02*
D03*
M02*
