G04*
G04 #@! TF.GenerationSoftware,Altium Limited,Altium Designer,25.2.1 (25)*
G04*
G04 Layer_Color=128*
%FSLAX44Y44*%
%MOMM*%
G71*
G04*
G04 #@! TF.SameCoordinates,A23D3B39-E9B1-4969-97C3-F5C5B3B73B29*
G04*
G04*
G04 #@! TF.FilePolarity,Positive*
G04*
G01*
G75*
G04:AMPARAMS|DCode=26|XSize=0.6mm|YSize=0.5mm|CornerRadius=0.05mm|HoleSize=0mm|Usage=FLASHONLY|Rotation=180.000|XOffset=0mm|YOffset=0mm|HoleType=Round|Shape=RoundedRectangle|*
%AMROUNDEDRECTD26*
21,1,0.6000,0.4000,0,0,180.0*
21,1,0.5000,0.5000,0,0,180.0*
1,1,0.1000,-0.2500,0.2000*
1,1,0.1000,0.2500,0.2000*
1,1,0.1000,0.2500,-0.2000*
1,1,0.1000,-0.2500,-0.2000*
%
%ADD26ROUNDEDRECTD26*%
G04:AMPARAMS|DCode=33|XSize=0.5mm|YSize=0.6mm|CornerRadius=0.05mm|HoleSize=0mm|Usage=FLASHONLY|Rotation=0.000|XOffset=0mm|YOffset=0mm|HoleType=Round|Shape=RoundedRectangle|*
%AMROUNDEDRECTD33*
21,1,0.5000,0.5000,0,0,0.0*
21,1,0.4000,0.6000,0,0,0.0*
1,1,0.1000,0.2000,-0.2500*
1,1,0.1000,-0.2000,-0.2500*
1,1,0.1000,-0.2000,0.2500*
1,1,0.1000,0.2000,0.2500*
%
%ADD33ROUNDEDRECTD33*%
%ADD34R,1.4000X1.0000*%
%ADD35R,1.0000X1.4000*%
G04:AMPARAMS|DCode=36|XSize=0.5mm|YSize=0.6mm|CornerRadius=0.05mm|HoleSize=0mm|Usage=FLASHONLY|Rotation=90.000|XOffset=0mm|YOffset=0mm|HoleType=Round|Shape=RoundedRectangle|*
%AMROUNDEDRECTD36*
21,1,0.5000,0.5000,0,0,90.0*
21,1,0.4000,0.6000,0,0,90.0*
1,1,0.1000,0.2500,0.2000*
1,1,0.1000,0.2500,-0.2000*
1,1,0.1000,-0.2500,-0.2000*
1,1,0.1000,-0.2500,0.2000*
%
%ADD36ROUNDEDRECTD36*%
%ADD40R,0.8000X0.5000*%
%ADD183O,1.9000X0.3000*%
%ADD184R,1.9000X0.3000*%
%ADD185R,0.8000X0.8500*%
%ADD186R,0.8500X0.8000*%
%ADD187R,1.0000X0.9000*%
%ADD188R,0.8000X0.6000*%
G36*
X1045250Y241000D02*
Y273000D01*
X1021250D01*
Y241000D01*
X1045250D01*
D02*
G37*
G36*
X870750Y524500D02*
Y492500D01*
X894750D01*
Y524500D01*
X870750D01*
D02*
G37*
D26*
X175250Y603050D02*
D03*
Y594050D02*
D03*
X185316Y582369D02*
D03*
Y591369D02*
D03*
X204250Y603050D02*
D03*
Y594050D02*
D03*
D33*
X146800Y638550D02*
D03*
X137700D02*
D03*
X162700Y643550D02*
D03*
X171800D02*
D03*
X227700Y823000D02*
D03*
X236800D02*
D03*
X186700D02*
D03*
X195800D02*
D03*
X186700Y858000D02*
D03*
X195800D02*
D03*
X242700Y653550D02*
D03*
X251800D02*
D03*
X171800Y614550D02*
D03*
X162700D02*
D03*
X242700Y663550D02*
D03*
X251800D02*
D03*
D34*
X210250Y665550D02*
D03*
Y681550D02*
D03*
Y651550D02*
D03*
Y635550D02*
D03*
X187500Y390250D02*
D03*
Y406250D02*
D03*
X133250Y602550D02*
D03*
Y618550D02*
D03*
D35*
X216750Y365500D02*
D03*
X232750D02*
D03*
D36*
X245250Y604000D02*
D03*
Y613100D02*
D03*
X220250Y604000D02*
D03*
Y613100D02*
D03*
X192250Y694100D02*
D03*
Y685000D02*
D03*
X169250Y693100D02*
D03*
Y684000D02*
D03*
X214250Y865550D02*
D03*
Y856450D02*
D03*
X189250Y612100D02*
D03*
Y603000D02*
D03*
D40*
X118250Y609000D02*
D03*
Y618100D02*
D03*
X195250Y672100D02*
D03*
Y663000D02*
D03*
X183250Y645000D02*
D03*
Y654100D02*
D03*
X195250Y645000D02*
D03*
Y654100D02*
D03*
X183250Y672100D02*
D03*
Y663000D02*
D03*
D183*
X1467000Y720000D02*
D03*
Y725000D02*
D03*
Y730000D02*
D03*
Y735000D02*
D03*
Y740000D02*
D03*
Y745000D02*
D03*
Y750000D02*
D03*
Y755000D02*
D03*
Y760000D02*
D03*
Y765000D02*
D03*
Y770000D02*
D03*
Y775000D02*
D03*
Y780000D02*
D03*
Y785000D02*
D03*
Y790000D02*
D03*
Y795000D02*
D03*
Y800000D02*
D03*
Y805000D02*
D03*
Y810000D02*
D03*
Y815000D02*
D03*
Y820000D02*
D03*
Y825000D02*
D03*
Y830000D02*
D03*
Y835000D02*
D03*
Y840000D02*
D03*
Y845000D02*
D03*
Y850000D02*
D03*
Y855000D02*
D03*
Y860000D02*
D03*
Y865000D02*
D03*
X1404000D02*
D03*
Y860000D02*
D03*
Y855000D02*
D03*
Y850000D02*
D03*
Y845000D02*
D03*
Y840000D02*
D03*
Y835000D02*
D03*
Y830000D02*
D03*
Y825000D02*
D03*
Y820000D02*
D03*
Y815000D02*
D03*
Y810000D02*
D03*
Y805000D02*
D03*
Y800000D02*
D03*
Y795000D02*
D03*
Y790000D02*
D03*
Y785000D02*
D03*
Y780000D02*
D03*
Y775000D02*
D03*
Y770000D02*
D03*
Y765000D02*
D03*
Y760000D02*
D03*
Y755000D02*
D03*
Y750000D02*
D03*
Y745000D02*
D03*
Y740000D02*
D03*
Y735000D02*
D03*
Y730000D02*
D03*
Y725000D02*
D03*
D184*
Y720000D02*
D03*
D185*
X91250Y618550D02*
D03*
X105250D02*
D03*
X216750Y381250D02*
D03*
X230750D02*
D03*
D186*
X203500Y391000D02*
D03*
Y405000D02*
D03*
D187*
X110250Y30000D02*
D03*
X140750D02*
D03*
X167750D02*
D03*
X198250D02*
D03*
X242750Y31000D02*
D03*
X273250D02*
D03*
D188*
X125250Y31500D02*
D03*
X182750D02*
D03*
X257750Y32500D02*
D03*
M02*
